<?xml version="1.0" encoding="utf-8"?>
<!-- Generator: Adobe Illustrator 24.1.2, SVG Export Plug-In . SVG Version: 6.00 Build 0)  -->
<svg version="1.1" id="Layer_1" xmlns="http://www.w3.org/2000/svg" xmlns:xlink="http://www.w3.org/1999/xlink" x="0px" y="0px"
	 width="960px" height="580px" viewBox="0 0 960 580" style="enable-background:new 0 0 960 580;" xml:space="preserve">
<style type="text/css">
	.st0{clip-path:url(#SVGID_2_);fill:#D9D9D9;}
</style>
<g>
	<defs>
		<rect id="SVGID_1_" width="960" height="580"/>
	</defs>
	<clipPath id="SVGID_2_">
		<use xlink:href="#SVGID_1_"  style="overflow:visible;"/>
	</clipPath>
	<path class="st0" d="M780.9,336.6c-3.7-0.6-6.3-2.2-8-5c-1.7-2.8-2.1-6.6-1.4-11.5c0.7-4.9,2.3-8.4,4.8-10.7
		c2.4-2.3,5.5-3.2,9.2-2.6c2.4,0.4,4.4,1.2,5.9,2.6c1.5,1.3,2.5,3.1,3.1,5.2l-3.1,1.3c-0.4-1.6-1.1-2.9-2.1-4
		c-1.1-1.1-2.5-1.8-4.3-2c-1.2-0.2-2.4-0.1-3.4,0.2c-1.1,0.3-2,0.9-2.8,1.6c-0.8,0.8-1.5,1.7-2,2.9c-0.5,1.1-0.9,2.5-1.2,4l-0.7,4.3
		c-0.5,3-0.1,5.4,1,7.3c1.1,1.9,2.9,3,5.5,3.4c1.9,0.3,3.5,0,4.9-0.7c1.4-0.8,2.5-1.9,3.3-3.4l2.5,2.2c-1.2,1.9-2.8,3.3-4.7,4.2
		C785.5,336.7,783.3,337,780.9,336.6z M806.4,342.6c-1.8-0.6-3.3-1.4-4.6-2.5c-1.3-1.1-2.2-2.4-2.9-3.9c-0.7-1.5-1-3.3-1-5.3
		c0-2,0.4-4.1,1.1-6.5c0.7-2.3,1.6-4.3,2.8-5.9c1.1-1.6,2.4-2.9,3.8-3.8c1.4-0.9,2.9-1.4,4.6-1.6c1.6-0.2,3.4,0,5.2,0.6
		c1.8,0.6,3.3,1.4,4.6,2.5c1.3,1.1,2.2,2.4,2.9,3.9c0.6,1.5,1,3.3,1,5.3c0,2-0.4,4.1-1.1,6.5c-0.7,2.3-1.6,4.3-2.8,6
		c-1.1,1.6-2.4,2.9-3.8,3.8c-1.4,0.9-2.9,1.4-4.6,1.6C809.9,343.3,808.2,343.1,806.4,342.6z M807.3,339.6c1.2,0.4,2.4,0.5,3.5,0.4
		c1.1-0.1,2.2-0.5,3.2-1c1-0.6,1.8-1.4,2.6-2.4c0.7-1,1.3-2.2,1.8-3.6l1.4-4.7c0.4-1.4,0.6-2.7,0.6-4c-0.1-1.2-0.3-2.4-0.8-3.4
		c-0.5-1-1.2-1.9-2-2.7c-0.9-0.7-1.9-1.3-3.1-1.7c-1.2-0.4-2.4-0.5-3.5-0.4c-1.1,0.1-2.2,0.5-3.2,1c-1,0.6-1.9,1.4-2.6,2.4
		c-0.7,1-1.3,2.2-1.8,3.6l-1.4,4.7c-0.4,1.4-0.6,2.7-0.6,4c0.1,1.2,0.3,2.4,0.8,3.4c0.5,1,1.2,1.9,2,2.7S806.1,339.2,807.3,339.6z
		 M855.8,336.6l-0.2-0.1l-4.4,3.2l-12,8.1l-0.4-14.5l0-5.5l-0.2-0.1l-11.3,21.9l-3.1-1.6l13.4-26l4.2,2.1l0.3,17.8l0.2,0.1L857,332
		l4,2.1l-13.4,26l-3.1-1.6L855.8,336.6z M853.1,364l1.7-2.4l3.4,2.4l13.5-19.1l-3.4-2.4l1.7-2.4l9.6,6.8l-1.7,2.4l-3.4-2.4L861,366
		l3.4,2.4l-1.7,2.4L853.1,364z M885.5,366.4l1.8-7.2l-0.1-0.1l-16.4,18l-2.5-2.3l19.7-21.6l3,2.7l-4.2,20.4l-1.8,7.2l0.1,0.1
		l16.4-18l2.5,2.3l-19.7,21.6l-3-2.7L885.5,366.4z M904.8,407.6L904.8,407.6c-1.4,0.5-2.8,0.5-4.4-0.1c-1.6-0.5-3.1-1.7-4.5-3.4
		c-1.1-1.4-1.9-2.9-2.3-4.5c-0.4-1.6-0.5-3.2-0.1-4.8s1.1-3.3,2.2-4.9c1.1-1.6,2.6-3.2,4.5-4.8c1.9-1.5,3.8-2.6,5.6-3.3
		c1.8-0.7,3.6-1,5.3-1c1.7,0.1,3.2,0.5,4.7,1.3c1.5,0.8,2.8,1.9,4,3.4c1.6,2.1,2.5,4.1,2.7,6.2c0.2,2.1-0.2,4.1-1.1,6.1l-3.2-1.2
		c0.8-1.5,1.2-3,1-4.6c-0.1-1.6-0.8-3.1-1.9-4.6c-0.8-1-1.7-1.8-2.7-2.3c-1-0.5-2.1-0.9-3.2-0.9c-1.1-0.1-2.3,0.1-3.5,0.5
		c-1.2,0.4-2.3,1.1-3.5,2l-3.7,3c-1.1,0.9-2,1.9-2.7,3c-0.7,1.1-1.1,2.2-1.3,3.3s-0.1,2.3,0.2,3.4c0.3,1.2,0.9,2.3,1.8,3.4
		c0.6,0.8,1.3,1.5,2.1,2c0.8,0.5,1.6,0.9,2.4,1.1c0.8,0.2,1.7,0.2,2.6,0c0.9-0.2,1.7-0.6,2.6-1.3l2.3-1.8l-4-5.1l2.4-1.9l6.1,7.7
		l-11.8,9.3l-2-2.6L904.8,407.6z M916.1,435.6c-1.1-2.1-1.6-4.1-1.5-6s0.5-3.7,1.4-5.5l3.1,1.3c-0.8,1.5-1.2,3-1.2,4.5
		c-0.1,1.4,0.3,2.9,1,4.4c0.9,1.9,2.1,3.1,3.5,3.6c1.4,0.5,2.8,0.4,4.3-0.3c1.2-0.6,2-1.5,2.3-2.6c0.3-1.1,0.2-2.6-0.3-4.5l-0.6-2.4
		c-0.7-2.7-0.7-4.9-0.3-6.7c0.5-1.8,1.7-3.2,3.7-4.3c1.1-0.6,2.3-0.9,3.4-0.9c1.1,0,2.2,0.2,3.1,0.6c1,0.5,1.9,1.1,2.7,2
		c0.8,0.9,1.6,2,2.2,3.3c1,2,1.5,3.8,1.5,5.6c0,1.8-0.5,3.5-1.4,5.2l-2.9-1.5c0.6-1.2,1-2.5,1-3.8c0.1-1.3-0.3-2.7-1.1-4.2
		c-0.8-1.7-1.9-2.8-3.1-3.4c-1.2-0.6-2.5-0.5-3.9,0.2c-1.2,0.6-2,1.5-2.2,2.6c-0.2,1.1-0.1,2.6,0.3,4.4l0.6,2.4
		c0.7,2.9,0.8,5.2,0.2,6.9c-0.6,1.7-1.9,3.1-3.8,4.1c-1.2,0.6-2.4,0.9-3.6,1c-1.2,0.1-2.3-0.1-3.4-0.5c-1.1-0.4-2.1-1.1-3-2
		C917.6,438.1,916.8,436.9,916.1,435.6z M926.5,460.7c-0.6-1.8-0.8-3.5-0.7-5.2c0.1-1.6,0.7-3.2,1.5-4.6c0.9-1.4,2.1-2.7,3.7-3.8
		c1.6-1.1,3.6-2.1,5.9-2.9c2.3-0.8,4.5-1.2,6.4-1.2c2,0,3.7,0.3,5.3,0.9c1.6,0.6,2.9,1.5,4,2.8c1.1,1.2,1.9,2.8,2.5,4.6
		c0.6,1.8,0.8,3.5,0.7,5.2c-0.1,1.7-0.7,3.2-1.5,4.6c-0.9,1.4-2.1,2.7-3.7,3.8c-1.6,1.1-3.6,2.1-5.9,2.9c-2.3,0.8-4.5,1.2-6.5,1.2
		c-2,0-3.7-0.3-5.3-0.9c-1.5-0.6-2.9-1.6-4-2.8C927.9,463.9,927.1,462.4,926.5,460.7z M929.4,459.7c0.4,1.2,1,2.2,1.7,3.1
		c0.8,0.9,1.7,1.5,2.7,2c1,0.5,2.2,0.7,3.4,0.7c1.2,0,2.6-0.2,4-0.6l4.6-1.5c1.4-0.5,2.6-1.1,3.6-1.8c1-0.8,1.8-1.6,2.3-2.6
		c0.6-1,0.9-2.1,1-3.2c0.1-1.1-0.1-2.3-0.4-3.5c-0.4-1.2-1-2.2-1.7-3.1s-1.7-1.5-2.7-2c-1-0.5-2.2-0.7-3.4-0.7c-1.2,0-2.6,0.2-4,0.6
		l-4.6,1.5c-1.4,0.5-2.6,1.1-3.6,1.8c-1,0.8-1.8,1.6-2.3,2.6c-0.6,1-0.9,2.1-1,3.2C928.9,457.3,929,458.5,929.4,459.7z M933.4,489.5
		c-0.3-1.9-0.2-3.6,0.2-5.2c0.4-1.6,1.2-3,2.2-4.3c1.1-1.3,2.5-2.3,4.3-3.2c1.8-0.9,3.9-1.5,6.3-1.9c2.4-0.4,4.6-0.4,6.6-0.1
		c1.9,0.3,3.6,0.9,5.1,1.7c1.4,0.9,2.6,2,3.5,3.4c0.9,1.4,1.5,3,1.8,4.9c0.3,1.8,0.2,3.6-0.2,5.2s-1.2,3.1-2.3,4.3
		c-1.1,1.3-2.5,2.3-4.3,3.2c-1.8,0.9-3.9,1.5-6.3,1.9c-2.4,0.4-4.6,0.4-6.6,0.1c-2-0.3-3.6-0.9-5.1-1.7c-1.4-0.9-2.6-2-3.5-3.4
		C934.3,492.9,933.7,491.3,933.4,489.5z M936.5,489c0.2,1.2,0.6,2.4,1.2,3.3c0.6,1,1.4,1.8,2.3,2.4s2,1.1,3.3,1.3
		c1.2,0.2,2.6,0.2,4,0l4.8-0.8c1.4-0.2,2.7-0.6,3.8-1.2c1.1-0.6,2-1.3,2.7-2.2c0.7-0.9,1.2-1.9,1.5-3c0.3-1.1,0.3-2.3,0.1-3.5
		c-0.2-1.2-0.6-2.4-1.2-3.3c-0.6-1-1.4-1.8-2.3-2.4s-2-1.1-3.3-1.3c-1.2-0.2-2.6-0.2-4,0l-4.8,0.8c-1.4,0.2-2.7,0.6-3.8,1.2
		c-1.1,0.6-2,1.3-2.7,2.2c-0.7,0.9-1.2,1.9-1.5,3C936.3,486.6,936.3,487.7,936.5,489z M954,515.4l6.5-3.4v-0.1l-24.3-0.4l0.1-3.4
		l29.2,0.5l-0.1,4.1l-18,10.4l-6.5,3.4l0,0.1l24.3,0.4l-0.1,3.4l-29.2-0.5l0.1-4.1L954,515.4z M930,566.4l9.1-1l2.5-11.5l-7.8-4.7
		l0.8-3.5l26.4,16.3l-1,4.4l-30.7,3.7L930,566.4z M957.2,563.5l0-0.2l-12.8-7.9l-2.2,9.9L957.2,563.5z M924.9,593.4l0-0.1
		c-1.1-0.8-1.9-2.1-2.2-3.7c-0.3-1.6-0.1-3.5,0.7-5.6c0.6-1.7,1.5-3.1,2.7-4.2c1.2-1.2,2.5-2,4.1-2.5c1.6-0.5,3.3-0.7,5.3-0.6
		c2,0.1,4.1,0.6,6.4,1.5c2.3,0.9,4.2,1.9,5.7,3.1c1.5,1.2,2.7,2.6,3.5,4c0.8,1.5,1.2,3,1.3,4.7s-0.2,3.4-0.9,5.1
		c-0.9,2.4-2.3,4.3-4,5.5c-1.7,1.2-3.6,1.9-5.8,2.1l-0.6-3.3c1.7-0.1,3.2-0.6,4.5-1.5s2.3-2.2,3-4c0.5-1.2,0.7-2.4,0.6-3.5
		s-0.3-2.2-0.8-3.3c-0.5-1-1.2-1.9-2.2-2.7c-0.9-0.8-2.1-1.5-3.5-2l-4.4-1.7c-1.4-0.5-2.7-0.8-3.9-0.8c-1.3,0-2.4,0.2-3.5,0.6
		c-1.1,0.4-2,1.1-2.8,1.9c-0.8,0.9-1.5,2-2,3.3c-0.4,0.9-0.6,1.9-0.7,2.8c-0.1,0.9,0,1.8,0.3,2.7c0.3,0.8,0.7,1.6,1.3,2.2
		c0.6,0.7,1.4,1.2,2.4,1.6l2.7,1l2.3-6l2.9,1.1l-3.5,9.2l-14-5.4l1.2-3.1L924.9,593.4z M916.5,601.3l25.5,14.4l-8.8,15.5l-2.7-1.5
		l7-12.5l-8.5-4.8l-6.6,11.7l-2.7-1.5l6.6-11.7l-8.8-5l-7,12.5l-2.7-1.5L916.5,601.3z M913.8,639.2l7.3,1.2l0.1-0.1L902,625.3
		l2.1-2.7l23.1,18l-2.5,3.2l-20.6-2.5l-7.3-1.2l-0.1,0.1l19.2,14.9l-2.1,2.7l-23.1-18l2.5-3.2L913.8,639.2z M877.3,652.4
		c2.7-2.6,5.7-3.6,8.9-3.2c3.2,0.4,6.5,2.4,9.9,6c3.4,3.6,5.2,7,5.5,10.4c0.3,3.3-0.9,6.3-3.6,8.8c-1.8,1.7-3.7,2.7-5.6,3
		c-2,0.3-4,0.1-6.1-0.8l0.9-3.2c1.5,0.7,2.9,1,4.4,0.8c1.5-0.2,2.9-0.9,4.2-2.1c0.9-0.9,1.6-1.8,2-2.8c0.4-1,0.5-2.1,0.4-3.2
		c-0.1-1.1-0.5-2.2-1-3.4c-0.6-1.1-1.4-2.2-2.4-3.3l-3-3.2c-2.1-2.2-4.2-3.4-6.4-3.7s-4.2,0.5-6,2.2c-1.4,1.3-2.2,2.7-2.4,4.3
		c-0.2,1.6,0,3.1,0.6,4.7l-3.2,0.7c-0.8-2.1-0.9-4.2-0.5-6.3C874.4,656,875.6,654.1,877.3,652.4z M860.4,667.1l6.7,9.4l18.5,8.5
		l-3.3,2.3l-14.5-6.9l-0.1,0.1l1.8,16l-3.3,2.3l-1.9-20.2l-6.8-9.5L860.4,667.1z M835.7,682.5l12,26.6l-10.6,4.8
		c-2.4,1.1-4.5,1.2-6.4,0.5c-1.9-0.8-3.4-2.4-4.5-4.7c-1.1-2.4-1.3-4.5-0.6-6.5c0.7-1.9,2.2-3.5,4.6-4.5l7.4-3.3l-5.1-11.4
		L835.7,682.5z M838.9,698.2l-7.4,3.3c-1.3,0.6-2.1,1.4-2.5,2.3c-0.4,1-0.3,2.1,0.2,3.3l0.9,2c0.6,1.2,1.3,2,2.3,2.4
		c1,0.3,2.1,0.2,3.4-0.3l7.4-3.3L838.9,698.2z M801.5,695.1c1.8-0.5,3.6-0.7,5.2-0.4c1.6,0.2,3.2,0.8,4.5,1.7
		c1.4,0.9,2.6,2.2,3.7,3.9c1.1,1.7,1.9,3.7,2.6,6c0.7,2.4,1,4.5,0.9,6.5s-0.4,3.7-1.1,5.2c-0.7,1.5-1.7,2.8-3,3.9
		c-1.3,1-2.8,1.8-4.7,2.3c-1.8,0.5-3.5,0.6-5.2,0.4c-1.7-0.2-3.2-0.8-4.6-1.7c-1.4-0.9-2.6-2.2-3.7-3.9c-1.1-1.6-1.9-3.6-2.6-6
		c-0.7-2.4-1-4.5-0.9-6.5c0.1-2,0.4-3.7,1.1-5.2c0.7-1.5,1.7-2.8,3-3.8C798.2,696.4,799.7,695.6,801.5,695.1z M802.4,698.1
		c-1.2,0.3-2.3,0.9-3.2,1.6c-0.9,0.7-1.6,1.6-2.1,2.6s-0.8,2.1-0.9,3.4c-0.1,1.2,0.1,2.6,0.5,4l1.3,4.7c0.4,1.4,0.9,2.6,1.7,3.6
		c0.7,1,1.6,1.8,2.5,2.4c1,0.6,2,1,3.2,1.1c1.1,0.1,2.3,0,3.5-0.3c1.2-0.3,2.3-0.9,3.2-1.6c0.9-0.7,1.6-1.6,2.1-2.6
		c0.5-1,0.8-2.1,0.9-3.4c0.1-1.2-0.1-2.6-0.5-4l-1.3-4.7c-0.4-1.4-0.9-2.6-1.7-3.6c-0.7-1-1.6-1.8-2.5-2.4c-1-0.6-2-1-3.2-1.1
		C804.8,697.7,803.6,697.8,802.4,698.1z M779.8,700.4l3.5-0.4l3.4,29l-11.6,1.4c-2.6,0.3-4.6-0.2-6.2-1.4c-1.6-1.2-2.6-3.2-2.9-5.9
		c-0.3-2.1,0-3.9,0.9-5.4c0.8-1.5,2.2-2.6,4-3.2l-8.2-12l4-0.5l7.8,11.7l6.8-0.8L779.8,700.4z M773.5,716.8
		c-1.4,0.2-2.4,0.7-3.1,1.5c-0.7,0.8-0.9,1.9-0.8,3.2l0.3,2.2c0.2,1.3,0.7,2.3,1.5,2.9c0.8,0.6,2,0.9,3.4,0.7l8.1-1l-1.2-10.5
		L773.5,716.8z M747.1,728.5l0.4-26.1l3.5,0.1l-0.4,26.1l9.3,0.2l0,3.1l-22.1-0.4l0.1-3.1L747.1,728.5z M733,701.6l-4.2,28.9
		l-17.2-2.5l0.4-3.1l13.8,2l1.4-9.7l-12.6-1.8l0.4-3.1l12.6,1.8l1.9-13.1L733,701.6z M700,694.5c1.8,0.5,3.4,1.3,4.6,2.4
		c1.3,1.1,2.2,2.3,2.9,3.9c0.7,1.5,1,3.3,1.1,5.2s-0.3,4.1-1,6.5c-0.7,2.4-1.6,4.4-2.7,6c-1.1,1.6-2.3,2.9-3.7,3.8
		c-1.4,0.9-2.9,1.5-4.6,1.7c-1.6,0.2-3.4,0-5.2-0.5c-1.8-0.5-3.3-1.3-4.6-2.4c-1.3-1.1-2.3-2.4-2.9-3.9c-0.7-1.5-1-3.3-1.1-5.2
		c0-2,0.3-4.1,1-6.5c0.7-2.4,1.6-4.4,2.7-6c1.1-1.6,2.3-2.9,3.7-3.8c1.4-0.9,2.9-1.5,4.6-1.7C696.4,693.8,698.2,693.9,700,694.5z
		 M699.1,697.4c-1.2-0.4-2.4-0.5-3.5-0.3s-2.2,0.5-3.2,1.1c-1,0.6-1.8,1.4-2.6,2.4c-0.7,1-1.3,2.2-1.7,3.6l-1.4,4.7
		c-0.4,1.4-0.6,2.7-0.5,4c0.1,1.2,0.4,2.4,0.9,3.4c0.5,1,1.2,1.9,2.1,2.6c0.9,0.7,1.9,1.3,3.1,1.6c1.2,0.4,2.4,0.5,3.5,0.3
		c1.1-0.1,2.2-0.5,3.2-1.1c1-0.6,1.8-1.4,2.6-2.4c0.7-1,1.3-2.2,1.7-3.6l1.4-4.7c0.4-1.4,0.6-2.7,0.5-4c-0.1-1.2-0.4-2.4-0.9-3.4
		c-0.5-1-1.2-1.9-2.1-2.6C701.3,698.3,700.3,697.8,699.1,697.4z M681.8,688.8l-12.1,26.6l-3.2-1.5l10.8-23.8L666,685l1.3-2.8
		L681.8,688.8z M663.7,680.1l-1.5,2.5l-3.5-2.1l-11.8,20.2l3.5,2.1l-1.5,2.5l-10.1-5.9l1.5-2.5l3.5,2.1l11.8-20.1l-3.5-2.1l1.5-2.5
		L663.7,680.1z M639.5,663.5c1.5,1.2,2.7,2.5,3.5,3.9c0.8,1.4,1.2,3,1.3,4.7c0.1,1.7-0.2,3.4-0.9,5.3c-0.7,1.8-1.8,3.7-3.3,5.7
		c-1.5,1.9-3.1,3.5-4.7,4.6c-1.6,1.1-3.2,1.9-4.9,2.2c-1.6,0.4-3.3,0.3-4.9-0.1s-3.2-1.2-4.7-2.4c-1.5-1.1-2.6-2.4-3.4-3.9
		c-0.8-1.5-1.3-3-1.3-4.7c-0.1-1.7,0.2-3.4,0.9-5.3c0.7-1.8,1.8-3.7,3.3-5.7c1.5-1.9,3.1-3.5,4.7-4.6c1.6-1.1,3.2-1.9,4.9-2.2
		c1.6-0.3,3.3-0.3,4.9,0.1C636.4,661.6,638,662.4,639.5,663.5z M637.6,666c-1-0.8-2-1.3-3.2-1.6c-1.1-0.3-2.2-0.3-3.4-0.2
		c-1.1,0.2-2.2,0.6-3.3,1.3c-1.1,0.7-2,1.6-2.9,2.7l-3,3.9c-0.9,1.2-1.5,2.3-1.9,3.5c-0.4,1.2-0.5,2.3-0.4,3.5
		c0.1,1.1,0.4,2.2,1,3.2c0.6,1,1.3,1.9,2.3,2.7s2,1.3,3.2,1.6c1.1,0.3,2.2,0.3,3.4,0.2c1.1-0.2,2.2-0.6,3.3-1.3
		c1.1-0.7,2-1.6,2.9-2.7l3-3.9c0.9-1.2,1.5-2.3,1.9-3.5c0.4-1.2,0.5-2.3,0.4-3.5c-0.1-1.1-0.4-2.2-1-3.2
		C639.3,667.6,638.6,666.8,637.6,666z M598.8,650.2l-2.7,6.9l0.1,0.1l18.7-15.6l2.2,2.6L594.6,663l-2.6-3.1l6.9-19.6l2.7-6.9
		l-0.1-0.1l-18.7,15.6l-2.2-2.6l22.5-18.7l2.6,3.1L598.8,650.2z M598.6,620.8l-25,15.2l-9.3-15.2l2.6-1.6l7.4,12.2l8.4-5.1l-7-11.5
		l2.6-1.6l7,11.5l8.7-5.3l-7.4-12.2l2.6-1.6L598.6,620.8z M584.5,596l-24.5,17.4l-1.4-3.5l11.9-8.1l9.3-6.3l0-0.1l-11.2,1.5
		l-14.4,1.8l-1.5-3.7l11.8-8.5l9.1-6.5l0-0.1l-11,1.7l-14.3,2.1l-1.3-3.3l29.9-3.8l1.4,3.6L566,589l-9,6.4l0,0.1l11-1.4l15-1.8
		L584.5,596z M541.9,558.4l-1.7-11.9c-0.3-2.4,0.1-4.4,1.2-6c1.2-1.6,2.9-2.5,5.1-2.8c1.1-0.2,2-0.1,2.8,0.1c0.8,0.2,1.5,0.5,2,0.9
		c0.6,0.4,1,0.9,1.3,1.4c0.3,0.5,0.5,1,0.7,1.5l0.2,0c0-0.5,0-1.1,0.2-1.8c0.2-0.7,0.5-1.4,0.9-2s1.1-1.2,1.9-1.8
		c0.8-0.5,1.8-0.9,3-1c1.2-0.2,2.3-0.1,3.4,0.1c1.1,0.2,2,0.6,2.9,1.2c0.8,0.6,1.5,1.3,2.1,2.1s0.9,1.8,1.1,2.9l1.9,13.1
		L541.9,558.4z M553.9,553.1l-1.1-8c-0.2-1.4-0.7-2.4-1.5-3.1c-0.8-0.7-1.9-0.9-3.2-0.7l-1.4,0.2c-1.3,0.2-2.2,0.7-2.8,1.6
		c-0.6,0.9-0.8,2-0.6,3.4l1.1,8L553.9,553.1z M567.3,551.2l-1.2-8.6c-0.2-1.5-0.8-2.6-1.6-3.4c-0.9-0.7-2.1-1-3.5-0.8l-1.4,0.2
		c-1.5,0.2-2.5,0.8-3.2,1.8c-0.6,1-0.8,2.2-0.6,3.7l1.2,8.6L567.3,551.2z M567.5,523.4l-0.1,3.5l-29.2-0.5l0.2-11.6
		c0-2.6,0.8-4.6,2.2-6c1.4-1.4,3.5-2.1,6.2-2.1c2.1,0,3.9,0.6,5.3,1.6c1.4,1,2.3,2.5,2.7,4.4l13-6.5l-0.1,4l-12.7,6.1l-0.1,6.8
		L567.5,523.4z M552,515c0-1.4-0.3-2.5-1-3.3c-0.7-0.8-1.7-1.2-3.1-1.2l-2.2,0c-1.3,0-2.4,0.3-3.1,1.1c-0.7,0.8-1.1,1.8-1.1,3.2
		l-0.1,8.1l10.6,0.2L552,515z M571,481.7l-9,1.6l-1.8,11.7l8.1,4.2l-0.5,3.5l-27.4-14.5l0.7-4.4l30.4-5.7L571,481.7z M544,486.5
		l0,0.2l13.3,7l1.5-10L544,486.5z M557.9,461.1l-7.2,1.4l0,0.1l23.2,7.3l-1,3.3l-27.9-8.8l1.2-3.9l20.2-4.8l7.2-1.4l0-0.1l-23.2-7.3
		l1-3.3l27.9,8.8l-1.2,3.9L557.9,461.1z M556.2,431.9l4.4-8.8c0.8-1.6,1.8-3,3-4c1.2-1,2.6-1.8,4.1-2.2c1.6-0.4,3.3-0.4,5.2-0.1
		c1.9,0.3,3.9,1,6.1,2.1c2.2,1.1,4,2.3,5.3,3.6c1.4,1.3,2.4,2.7,3,4.2c0.6,1.5,0.9,3,0.8,4.6c-0.1,1.6-0.6,3.2-1.4,4.8l-4.4,8.8
		L556.2,431.9z M584,434.8c0.5-1.1,0.8-2.2,0.9-3.2c0.1-1.1-0.1-2.1-0.4-3.1c-0.4-1-1-1.9-1.8-2.8c-0.8-0.9-1.9-1.6-3.2-2.3
		l-4.3-2.1c-1.3-0.6-2.5-1-3.7-1.2c-1.2-0.1-2.3-0.1-3.3,0.2c-1,0.3-1.9,0.8-2.8,1.5s-1.5,1.6-2,2.7l-2.8,5.6l20.6,10.3L584,434.8z
		 M601.6,411l-23-18.1l7.2-9.1c1.6-2.1,3.5-3.2,5.5-3.4c2-0.2,4.1,0.5,6.1,2.1c2,1.6,3.2,3.4,3.5,5.5c0.3,2-0.4,4.1-2,6.1l-5,6.4
		l9.8,7.7L601.6,411z M591.6,398.6l5-6.4c0.9-1.1,1.2-2.2,1.2-3.2c-0.1-1.1-0.7-2-1.7-2.8l-1.7-1.3c-1.1-0.8-2.1-1.2-3.1-1
		c-1,0.2-2,0.8-2.9,1.9l-5,6.4L591.6,398.6z M620.4,388.8l-2.5,2.4l-20.2-21.2l8.4-8c1.9-1.8,3.8-2.6,5.8-2.6c2,0,4,1,5.8,3
		c1.5,1.6,2.3,3.2,2.6,4.9c0.2,1.7-0.2,3.4-1.3,5l13.8,4.7l-2.9,2.7l-13.2-4.7l-4.9,4.7L620.4,388.8z M615.6,371.9c1-1,1.5-2,1.6-3
		c0.1-1.1-0.4-2.1-1.3-3l-1.5-1.6c-0.9-1-1.9-1.5-3-1.5c-1.1,0-2.1,0.5-3.1,1.5l-5.9,5.6l7.3,7.6L615.6,371.9z M646.7,367.4
		c-1.6,1.1-3.1,1.8-4.8,2.1c-1.6,0.3-3.2,0.3-4.8-0.1c-1.6-0.4-3.2-1.2-4.8-2.5c-1.6-1.2-3-2.8-4.5-4.8c-1.4-2-2.4-4-3-5.8
		c-0.6-1.9-0.8-3.6-0.7-5.3c0.1-1.7,0.7-3.2,1.5-4.6c0.9-1.4,2.1-2.7,3.6-3.7c1.5-1.1,3.1-1.8,4.8-2.1c1.6-0.3,3.3-0.3,4.9,0.1
		c1.6,0.4,3.2,1.3,4.8,2.5c1.6,1.2,3,2.8,4.4,4.8c1.4,2,2.4,4,3,5.8c0.6,1.9,0.8,3.6,0.7,5.3c-0.2,1.7-0.7,3.2-1.6,4.6
		C649.5,365.1,648.3,366.3,646.7,367.4z M644.9,364.8c1-0.7,1.9-1.6,2.5-2.5c0.6-1,1-2,1.1-3.2c0.1-1.1,0.1-2.3-0.3-3.5
		c-0.3-1.2-0.9-2.4-1.7-3.6l-2.8-4c-0.8-1.2-1.8-2.2-2.8-2.9c-1-0.7-2.1-1.2-3.2-1.5c-1.1-0.2-2.2-0.3-3.4,0
		c-1.1,0.2-2.2,0.7-3.2,1.4c-1,0.7-1.9,1.6-2.5,2.5c-0.6,1-1,2-1.1,3.2c-0.1,1.1-0.1,2.3,0.3,3.5c0.3,1.2,0.9,2.4,1.7,3.6l2.8,4
		c0.8,1.2,1.8,2.2,2.8,2.9c1,0.7,2.1,1.2,3.2,1.5c1.1,0.2,2.2,0.3,3.4,0C642.8,366,643.9,365.6,644.9,364.8z M649.5,330.4l8.8-4.3
		c1.6-0.8,3.2-1.2,4.8-1.3c1.6-0.1,3.1,0.2,4.6,0.8c1.5,0.6,2.9,1.7,4.2,3.1c1.3,1.4,2.5,3.2,3.5,5.4c1.1,2.2,1.7,4.2,2,6.1
		c0.3,1.9,0.2,3.6-0.2,5.2c-0.4,1.5-1.1,2.9-2.2,4.1c-1.1,1.2-2.4,2.2-4,3l-8.8,4.3L649.5,330.4z M669.7,349.7c1.1-0.5,2-1.2,2.7-2
		c0.7-0.8,1.2-1.7,1.6-2.7c0.3-1,0.4-2.1,0.3-3.3c-0.1-1.2-0.5-2.4-1.1-3.7l-2.1-4.3c-0.6-1.3-1.4-2.4-2.2-3.2
		c-0.9-0.8-1.8-1.5-2.8-1.8c-1-0.4-2-0.5-3.1-0.5c-1.1,0.1-2.2,0.4-3.2,0.9l-5.7,2.7l10.1,20.7L669.7,349.7z M682.6,316l5.3,17.3
		c0.8,2.7,1.9,4.5,3.3,5.6c1.4,1.1,3.4,1.2,5.8,0.5c2.5-0.8,4-2,4.6-3.7c0.6-1.7,0.4-3.9-0.4-6.5l-5.3-17.3l3.4-1l5.1,16.5
		c0.6,2,1,3.8,1.1,5.5c0.1,1.6-0.1,3-0.6,4.3c-0.5,1.2-1.3,2.3-2.5,3.2c-1.1,0.9-2.7,1.6-4.5,2.2c-1.9,0.6-3.5,0.8-4.9,0.7
		c-1.4-0.1-2.7-0.5-3.7-1.3c-1.1-0.7-2-1.8-2.8-3.2c-0.8-1.4-1.5-3.1-2.1-5.1l-5.1-16.5L682.6,316z M725.8,336.2
		c-3.7,0.5-6.7-0.3-9.1-2.5c-2.4-2.2-4-5.7-4.7-10.6c-0.7-4.9-0.3-8.7,1.4-11.7c1.7-2.9,4.3-4.6,8-5.2c2.4-0.4,4.5-0.1,6.4,0.7
		c1.8,0.8,3.3,2.2,4.5,4.1l-2.6,2.1c-0.8-1.4-1.9-2.5-3.2-3.2c-1.3-0.7-2.9-0.9-4.7-0.7c-1.2,0.2-2.3,0.6-3.2,1.2
		c-0.9,0.6-1.6,1.4-2.2,2.4s-0.9,2.1-1.1,3.3c-0.2,1.3-0.2,2.6,0.1,4.1l0.6,4.3c0.4,3,1.5,5.2,3.1,6.7c1.6,1.5,3.7,2,6.2,1.7
		c1.9-0.3,3.3-1,4.4-2.1c1.1-1.1,1.8-2.5,2.2-4.2l3,1.3c-0.6,2.2-1.7,4-3.2,5.4C730.2,334.9,728.2,335.8,725.8,336.2z M751.1,307.7
		l0.4,26.1l-3.5,0.1l-0.4-26.1l-9.3,0.2l0-3.1l22.1-0.4l0,3.1L751.1,307.7z"/>
	<path class="st0" d="M770.5,401.9c-2.4-0.4-4.1-1.4-5.1-3.2s-1.4-4.3-0.9-7.4c0.5-3.1,1.5-5.4,3.1-6.9c1.6-1.5,3.5-2,5.9-1.7
		c1.6,0.2,2.8,0.8,3.8,1.6c0.9,0.9,1.6,2,2,3.4l-2,0.8c-0.2-1-0.7-1.9-1.3-2.6c-0.7-0.7-1.6-1.1-2.7-1.3c-0.8-0.1-1.5-0.1-2.2,0.1
		c-0.7,0.2-1.3,0.6-1.8,1c-0.5,0.5-1,1.1-1.3,1.8c-0.3,0.7-0.6,1.6-0.7,2.5l-0.4,2.8c-0.3,1.9-0.1,3.5,0.6,4.7
		c0.7,1.2,1.9,1.9,3.5,2.2c1.2,0.2,2.2,0,3.1-0.5c0.9-0.5,1.6-1.2,2.1-2.2l1.6,1.4c-0.8,1.2-1.8,2.1-3,2.7
		C773.4,402,772,402.1,770.5,401.9z M786.8,405.7c-1.2-0.4-2.1-0.9-3-1.6c-0.8-0.7-1.4-1.5-1.8-2.5c-0.4-1-0.6-2.1-0.6-3.4
		c0-1.3,0.2-2.6,0.7-4.1c0.5-1.5,1.1-2.8,1.8-3.8c0.7-1,1.5-1.8,2.4-2.4c0.9-0.6,1.9-0.9,2.9-1c1.1-0.1,2.2,0,3.3,0.4
		c1.1,0.4,2.1,0.9,2.9,1.6c0.8,0.7,1.4,1.5,1.8,2.5c0.4,1,0.6,2.1,0.6,3.4s-0.2,2.6-0.7,4.1c-0.5,1.5-1.1,2.8-1.8,3.8
		c-0.7,1-1.5,1.8-2.4,2.4c-0.9,0.6-1.9,0.9-2.9,1C789,406.2,787.9,406.1,786.8,405.7z M787.4,403.8c0.8,0.2,1.5,0.3,2.3,0.2
		c0.7-0.1,1.4-0.3,2-0.7c0.6-0.4,1.2-0.9,1.7-1.5c0.5-0.6,0.9-1.4,1.1-2.3l0.9-3c0.3-0.9,0.4-1.7,0.4-2.5c0-0.8-0.2-1.5-0.5-2.2
		c-0.3-0.7-0.7-1.2-1.3-1.7c-0.6-0.5-1.2-0.8-2-1.1c-0.8-0.2-1.5-0.3-2.3-0.2c-0.7,0.1-1.4,0.3-2,0.7c-0.6,0.4-1.2,0.9-1.7,1.5
		c-0.5,0.6-0.9,1.4-1.1,2.3l-0.9,3c-0.3,0.9-0.4,1.7-0.4,2.5c0,0.8,0.2,1.5,0.5,2.2c0.3,0.7,0.7,1.2,1.3,1.7
		S786.6,403.6,787.4,403.8z M818.4,401.9l-0.1-0.1l-2.8,2.1l-7.7,5.2l-0.3-9.3l0-3.5l-0.1-0.1l-7.2,14l-2-1l8.6-16.6l2.7,1.4
		l0.2,11.4l0.1,0.1l9.4-6.5l2.6,1.3l-8.6,16.6l-2-1L818.4,401.9z M816.7,419.5l1.1-1.5l2.1,1.5l8.6-12.2l-2.1-1.5l1.1-1.5l6.1,4.3
		l-1.1,1.5l-2.1-1.5l-8.6,12.2l2.1,1.5l-1.1,1.5L816.7,419.5z M837.4,421l1.1-4.6l-0.1-0.1L828,427.8l-1.6-1.5l12.6-13.8l1.9,1.8
		l-2.7,13l-1.1,4.6l0.1,0.1l10.5-11.5l1.6,1.5l-12.6,13.8l-1.9-1.8L837.4,421z M849.8,447.3L849.8,447.3c-0.9,0.3-1.8,0.3-2.8-0.1
		c-1-0.3-2-1.1-2.9-2.2c-0.7-0.9-1.2-1.9-1.5-2.9c-0.3-1-0.3-2-0.1-3.1c0.2-1,0.7-2.1,1.4-3.1c0.7-1.1,1.7-2.1,2.9-3
		c1.2-1,2.4-1.7,3.6-2.1c1.2-0.5,2.3-0.7,3.4-0.6c1.1,0,2.1,0.3,3,0.8c0.9,0.5,1.8,1.2,2.5,2.2c1,1.3,1.6,2.6,1.7,4
		c0.1,1.3-0.1,2.6-0.7,3.9l-2-0.7c0.5-1,0.7-1.9,0.7-3c-0.1-1-0.5-2-1.2-2.9c-0.5-0.6-1.1-1.1-1.7-1.5c-0.7-0.3-1.3-0.5-2.1-0.6
		c-0.7-0.1-1.5,0.1-2.2,0.3c-0.8,0.3-1.5,0.7-2.2,1.3l-2.4,1.9c-0.7,0.6-1.3,1.2-1.7,1.9c-0.4,0.7-0.7,1.4-0.8,2.1
		c-0.1,0.7-0.1,1.5,0.1,2.2c0.2,0.7,0.6,1.5,1.2,2.2c0.4,0.5,0.8,0.9,1.3,1.3c0.5,0.3,1,0.6,1.6,0.7c0.5,0.1,1.1,0.1,1.6,0
		c0.6-0.1,1.1-0.4,1.7-0.8l1.5-1.2l-2.6-3.2l1.6-1.2l3.9,5l-7.5,6l-1.3-1.6L849.8,447.3z M857,465.3c-0.7-1.4-1-2.6-1-3.9
		s0.3-2.4,0.9-3.5l2,0.9c-0.5,1-0.8,1.9-0.8,2.9c0,0.9,0.2,1.9,0.7,2.8c0.6,1.2,1.4,2,2.2,2.3c0.9,0.3,1.8,0.3,2.8-0.2
		c0.8-0.4,1.3-1,1.5-1.6c0.2-0.7,0.1-1.7-0.2-2.9l-0.4-1.5c-0.4-1.7-0.5-3.1-0.2-4.3c0.3-1.2,1.1-2.1,2.4-2.7
		c0.7-0.4,1.5-0.6,2.2-0.6c0.7,0,1.4,0.1,2,0.4c0.6,0.3,1.2,0.7,1.8,1.3c0.5,0.6,1,1.3,1.4,2.1c0.6,1.3,0.9,2.5,0.9,3.6
		c0,1.1-0.3,2.2-0.9,3.3l-1.9-1c0.4-0.8,0.6-1.6,0.7-2.4c0-0.8-0.2-1.7-0.7-2.7c-0.5-1.1-1.2-1.8-2-2.2c-0.8-0.4-1.6-0.4-2.5,0.1
		c-0.8,0.4-1.3,1-1.4,1.7c-0.1,0.7-0.1,1.7,0.2,2.8l0.4,1.5c0.5,1.8,0.5,3.3,0.1,4.4c-0.4,1.1-1.2,2-2.4,2.6
		c-0.8,0.4-1.5,0.6-2.3,0.7c-0.8,0.1-1.5-0.1-2.2-0.3c-0.7-0.3-1.3-0.7-1.9-1.3C858,466.9,857.5,466.1,857,465.3z M863.7,481.3
		c-0.4-1.2-0.5-2.3-0.4-3.3c0.1-1.1,0.4-2,1-2.9c0.6-0.9,1.4-1.7,2.4-2.5s2.3-1.3,3.8-1.8c1.5-0.5,2.9-0.7,4.1-0.8
		c1.3,0,2.4,0.2,3.4,0.6c1,0.4,1.8,1,2.5,1.8c0.7,0.8,1.2,1.8,1.6,2.9c0.4,1.1,0.5,2.2,0.4,3.3c-0.1,1.1-0.4,2.1-1,3
		c-0.6,0.9-1.4,1.7-2.4,2.5c-1,0.7-2.3,1.3-3.8,1.8c-1.5,0.5-2.9,0.7-4.1,0.8c-1.3,0-2.4-0.2-3.4-0.6c-1-0.4-1.8-1-2.5-1.8
		S864.1,482.5,863.7,481.3z M865.6,480.7c0.3,0.8,0.6,1.4,1.1,2s1.1,1,1.7,1.3c0.7,0.3,1.4,0.5,2.2,0.5c0.8,0,1.6-0.1,2.5-0.4l3-1
		c0.9-0.3,1.6-0.7,2.3-1.2c0.6-0.5,1.1-1.1,1.5-1.7c0.4-0.6,0.6-1.3,0.6-2.1c0.1-0.7,0-1.5-0.3-2.2c-0.3-0.8-0.6-1.4-1.1-2
		s-1.1-1-1.7-1.3c-0.7-0.3-1.4-0.5-2.2-0.5s-1.6,0.1-2.5,0.4l-3,1c-0.9,0.3-1.6,0.7-2.3,1.2c-0.6,0.5-1.1,1.1-1.5,1.7
		c-0.4,0.6-0.6,1.3-0.6,2.1C865.2,479.2,865.3,479.9,865.6,480.7z M868.1,499.8c-0.2-1.2-0.2-2.3,0.1-3.3c0.3-1,0.7-1.9,1.4-2.7
		c0.7-0.8,1.6-1.5,2.7-2c1.1-0.6,2.5-1,4-1.2c1.6-0.2,3-0.3,4.2-0.1c1.2,0.2,2.3,0.6,3.2,1.1c0.9,0.6,1.7,1.3,2.2,2.2
		c0.6,0.9,0.9,1.9,1.1,3.1c0.2,1.2,0.1,2.3-0.1,3.3c-0.3,1-0.7,2-1.5,2.8c-0.7,0.8-1.6,1.5-2.7,2c-1.1,0.6-2.5,1-4,1.2
		s-3,0.3-4.2,0.1c-1.3-0.2-2.3-0.6-3.2-1.1c-0.9-0.6-1.6-1.3-2.2-2.2C868.7,502,868.3,501,868.1,499.8z M870.1,499.5
		c0.1,0.8,0.4,1.5,0.8,2.1c0.4,0.6,0.9,1.1,1.5,1.5c0.6,0.4,1.3,0.7,2.1,0.8c0.8,0.1,1.6,0.2,2.6,0l3.1-0.5c0.9-0.1,1.7-0.4,2.4-0.8
		c0.7-0.4,1.3-0.9,1.7-1.4c0.5-0.6,0.8-1.2,1-1.9c0.2-0.7,0.2-1.5,0.1-2.3c-0.1-0.8-0.4-1.5-0.8-2.1c-0.4-0.6-0.9-1.1-1.5-1.5
		s-1.3-0.7-2.1-0.8c-0.8-0.1-1.6-0.2-2.6,0l-3.1,0.5c-0.9,0.1-1.7,0.4-2.4,0.8c-0.7,0.4-1.3,0.9-1.7,1.4c-0.5,0.6-0.8,1.2-1,1.9
		C870,497.9,870,498.7,870.1,499.5z M881.3,516.4l4.2-2.2v-0.1l-15.6-0.3l0-2.2l18.7,0.3l0,2.6l-11.5,6.7l-4.2,2.2l0,0.1l15.6,0.3
		l0,2.2l-18.7-0.3l0-2.6L881.3,516.4z M865.9,549.1l5.8-0.6l1.6-7.4l-5-3l0.5-2.2l16.9,10.4l-0.6,2.8l-19.7,2.4L865.9,549.1z
		 M883.4,547.1l0-0.1l-8.2-5l-1.4,6.3L883.4,547.1z M862.7,566.3L862.7,566.3c-0.7-0.6-1.2-1.4-1.4-2.4c-0.2-1.1-0.1-2.2,0.4-3.6
		c0.4-1.1,1-2,1.7-2.7c0.7-0.7,1.6-1.3,2.6-1.6c1-0.3,2.1-0.5,3.4-0.4c1.3,0.1,2.6,0.4,4.1,1c1.5,0.6,2.7,1.2,3.7,2
		c1,0.8,1.7,1.6,2.3,2.6s0.8,2,0.8,3c0,1.1-0.1,2.2-0.6,3.3c-0.6,1.6-1.5,2.7-2.5,3.5s-2.3,1.2-3.7,1.4l-0.4-2.1
		c1.1,0,2.1-0.4,2.9-0.9c0.8-0.6,1.5-1.4,1.9-2.5c0.3-0.8,0.4-1.5,0.4-2.3c0-0.7-0.2-1.4-0.5-2.1c-0.3-0.7-0.8-1.2-1.4-1.8
		c-0.6-0.5-1.3-0.9-2.2-1.3l-2.8-1.1c-0.9-0.3-1.7-0.5-2.5-0.5s-1.6,0.1-2.2,0.4c-0.7,0.3-1.3,0.7-1.8,1.2c-0.5,0.6-1,1.3-1.3,2.1
		c-0.2,0.6-0.4,1.2-0.4,1.8c-0.1,0.6,0,1.2,0.2,1.7c0.2,0.5,0.4,1,0.8,1.4c0.4,0.4,0.9,0.8,1.6,1l1.7,0.7l1.5-3.9l1.9,0.7l-2.3,5.9
		l-9-3.5l0.8-2L862.7,566.3z M857.3,571.4l16.3,9.2l-5.6,9.9l-1.7-1l4.5-8l-5.5-3.1l-4.2,7.5l-1.7-1l4.2-7.5l-5.7-3.2l-4.5,8l-1.7-1
		L857.3,571.4z M855.6,595.6l4.7,0.8l0-0.1l-12.3-9.6l1.4-1.7l14.8,11.5l-1.6,2.1l-13.2-1.6l-4.7-0.8l0,0.1l12.3,9.6l-1.4,1.7
		l-14.8-11.5l1.6-2.1L855.6,595.6z M832.2,604.1c1.7-1.6,3.6-2.3,5.7-2.1c2.1,0.3,4.2,1.5,6.4,3.8c2.2,2.3,3.3,4.5,3.5,6.6
		c0.2,2.1-0.6,4-2.3,5.7c-1.1,1.1-2.3,1.7-3.6,2c-1.3,0.2-2.5,0.1-3.9-0.5l0.6-2.1c0.9,0.4,1.9,0.6,2.8,0.5c1-0.1,1.9-0.6,2.7-1.4
		c0.6-0.6,1-1.2,1.3-1.8c0.3-0.7,0.3-1.3,0.3-2.1c-0.1-0.7-0.3-1.4-0.7-2.2c-0.4-0.7-0.9-1.4-1.6-2.1l-1.9-2
		c-1.3-1.4-2.7-2.2-4.1-2.4c-1.4-0.2-2.7,0.3-3.9,1.4c-0.9,0.8-1.4,1.7-1.5,2.7c-0.2,1,0,2,0.4,3l-2.1,0.4c-0.5-1.4-0.6-2.7-0.3-4
		C830.4,606.4,831.1,605.2,832.2,604.1z M821.4,613.5l4.3,6l11.8,5.5l-2.1,1.5l-9.3-4.4l-0.1,0l1.2,10.2l-2.1,1.5l-1.2-12.9
		l-4.4-6.1L821.4,613.5z M805.5,623.4l7.7,17.1l-6.8,3.1c-1.5,0.7-2.9,0.8-4.1,0.3c-1.2-0.5-2.2-1.5-2.9-3c-0.7-1.5-0.8-2.9-0.4-4.1
		c0.4-1.2,1.4-2.2,2.9-2.9l4.7-2.1l-3.3-7.3L805.5,623.4z M807.6,633.4l-4.7,2.1c-0.8,0.4-1.4,0.9-1.6,1.5c-0.3,0.6-0.2,1.3,0.1,2.1
		l0.6,1.3c0.4,0.8,0.9,1.3,1.5,1.5c0.6,0.2,1.4,0.1,2.2-0.2l4.7-2.1L807.6,633.4z M783.7,631.5c1.2-0.3,2.3-0.4,3.3-0.3
		c1.1,0.1,2,0.5,2.9,1.1c0.9,0.6,1.7,1.4,2.4,2.5c0.7,1.1,1.2,2.3,1.7,3.9c0.4,1.5,0.6,2.9,0.6,4.2c0,1.3-0.3,2.4-0.7,3.3
		c-0.4,1-1.1,1.8-1.9,2.5c-0.8,0.7-1.8,1.2-3,1.5c-1.2,0.3-2.3,0.4-3.3,0.3c-1.1-0.1-2-0.5-2.9-1.1c-0.9-0.6-1.7-1.4-2.4-2.5
		c-0.7-1.1-1.2-2.3-1.7-3.9c-0.4-1.5-0.6-2.9-0.6-4.2c0-1.3,0.3-2.4,0.7-3.3c0.4-1,1.1-1.8,1.9-2.5
		C781.5,632.3,782.5,631.8,783.7,631.5z M784.2,633.4c-0.8,0.2-1.5,0.6-2,1c-0.6,0.5-1,1-1.4,1.7c-0.3,0.7-0.5,1.4-0.6,2.2
		c-0.1,0.8,0,1.6,0.3,2.5l0.8,3c0.3,0.9,0.6,1.7,1.1,2.3c0.5,0.7,1,1.2,1.6,1.6c0.6,0.4,1.3,0.6,2,0.7c0.7,0.1,1.5,0,2.3-0.2
		c0.8-0.2,1.5-0.6,2-1c0.6-0.5,1-1,1.4-1.7c0.3-0.7,0.5-1.4,0.6-2.2c0.1-0.8,0-1.6-0.3-2.5l-0.8-3c-0.3-0.9-0.6-1.7-1.1-2.3
		c-0.5-0.7-1-1.2-1.6-1.6c-0.6-0.4-1.3-0.6-2-0.7C785.7,633.1,785,633.1,784.2,633.4z M769.7,634.8l2.2-0.3l2.2,18.6l-7.4,0.9
		c-1.6,0.2-3-0.1-4-0.9c-1-0.8-1.6-2-1.8-3.8c-0.2-1.4,0-2.5,0.5-3.5c0.5-1,1.4-1.6,2.6-2.1l-5.2-7.7l2.5-0.3l5,7.5l4.3-0.5
		L769.7,634.8z M765.7,645.4c-0.9,0.1-1.5,0.4-2,0.9c-0.4,0.5-0.6,1.2-0.5,2.1l0.2,1.4c0.1,0.9,0.4,1.5,1,1.9
		c0.5,0.4,1.3,0.6,2.1,0.4l5.2-0.6l-0.8-6.7L765.7,645.4z M748.8,652.8l0.3-16.7l2.3,0l-0.3,16.7l6,0.1l0,2l-14.2-0.2l0-2
		L748.8,652.8z M739.8,635.6l-2.7,18.5l-11-1.6l0.3-2l8.8,1.3l0.9-6.2l-8-1.2l0.3-2l8,1.2l1.2-8.4L739.8,635.6z M718.6,631
		c1.2,0.3,2.2,0.9,3,1.5c0.8,0.7,1.4,1.5,1.9,2.5c0.4,1,0.7,2.1,0.7,3.4c0,1.3-0.2,2.7-0.6,4.2c-0.4,1.5-1,2.8-1.7,3.8
		c-0.7,1-1.5,1.9-2.4,2.5c-0.9,0.6-1.9,1-2.9,1.1c-1.1,0.1-2.2,0-3.3-0.3c-1.1-0.3-2.1-0.8-3-1.5c-0.8-0.7-1.5-1.5-1.9-2.5
		c-0.4-1-0.7-2.1-0.7-3.4c0-1.3,0.2-2.6,0.6-4.1c0.4-1.5,1-2.8,1.7-3.8c0.7-1.1,1.5-1.9,2.4-2.5c0.9-0.6,1.9-0.9,2.9-1.1
		S717.5,630.7,718.6,631z M718.1,632.9c-0.8-0.2-1.5-0.3-2.3-0.2c-0.7,0.1-1.4,0.3-2,0.7c-0.6,0.4-1.2,0.9-1.6,1.5
		c-0.5,0.6-0.8,1.4-1.1,2.3l-0.9,3c-0.3,0.9-0.4,1.7-0.3,2.5c0,0.8,0.2,1.5,0.5,2.2c0.3,0.7,0.8,1.2,1.3,1.7c0.6,0.5,1.2,0.8,2,1
		c0.8,0.2,1.5,0.3,2.3,0.2c0.7-0.1,1.4-0.3,2-0.7c0.6-0.4,1.2-0.9,1.6-1.5c0.5-0.6,0.8-1.4,1.1-2.3l0.9-3c0.3-0.9,0.4-1.7,0.3-2.5
		c0-0.8-0.2-1.5-0.5-2.2c-0.3-0.7-0.8-1.2-1.3-1.7C719.5,633.5,718.8,633.2,718.1,632.9z M707,627.4l-7.7,17l-2.1-0.9l6.9-15.2
		l-7.3-3.3l0.8-1.8L707,627.4z M695.4,621.8l-1,1.6l-2.3-1.3l-7.6,12.9l2.3,1.3l-1,1.6l-6.5-3.8l1-1.6l2.3,1.3l7.6-12.9l-2.3-1.3
		l1-1.6L695.4,621.8z M679.9,611.2c1,0.7,1.7,1.6,2.2,2.5c0.5,0.9,0.8,1.9,0.8,3c0,1.1-0.2,2.2-0.6,3.4c-0.4,1.2-1.1,2.4-2.1,3.6
		c-1,1.2-2,2.2-3,2.9c-1,0.7-2.1,1.2-3.1,1.4c-1,0.2-2.1,0.2-3.1-0.1c-1-0.3-2-0.8-3-1.5c-0.9-0.7-1.7-1.6-2.2-2.5
		c-0.5-0.9-0.8-1.9-0.8-3c0-1.1,0.2-2.2,0.6-3.4c0.4-1.2,1.1-2.4,2.1-3.6c1-1.2,2-2.2,3-3c1-0.7,2.1-1.2,3.1-1.4
		c1-0.2,2.1-0.2,3.1,0.1C678,610,679,610.5,679.9,611.2z M678.7,612.8c-0.6-0.5-1.3-0.8-2-1c-0.7-0.2-1.4-0.2-2.1-0.1
		c-0.7,0.1-1.4,0.4-2.1,0.8c-0.7,0.4-1.3,1-1.9,1.8l-1.9,2.5c-0.6,0.7-1,1.5-1.2,2.2c-0.2,0.8-0.3,1.5-0.3,2.2
		c0.1,0.7,0.3,1.4,0.6,2.1c0.4,0.6,0.9,1.2,1.5,1.7c0.6,0.5,1.3,0.8,2,1c0.7,0.2,1.4,0.2,2.1,0.1c0.7-0.1,1.4-0.4,2.1-0.8
		c0.7-0.4,1.3-1,1.9-1.8l1.9-2.5c0.6-0.7,1-1.5,1.2-2.2c0.2-0.8,0.3-1.5,0.3-2.2c-0.1-0.7-0.3-1.4-0.6-2.1
		C679.8,613.9,679.3,613.3,678.7,612.8z M653.9,602.7l-1.8,4.4l0.1,0.1l12-10l1.4,1.7l-14.4,12l-1.7-2l4.4-12.6l1.8-4.4l-0.1-0.1
		l-12,10l-1.4-1.7l14.4-12l1.7,2L653.9,602.7z M653.7,583.9l-16,9.7l-5.9-9.8l1.7-1l4.8,7.8l5.4-3.3l-4.5-7.4l1.7-1l4.5,7.4l5.5-3.4
		l-4.8-7.8l1.7-1L653.7,583.9z M644.7,568L629,579.2l-0.9-2.2l7.6-5.2l5.9-4l0-0.1l-7.1,1l-9.2,1.1l-1-2.4l7.5-5.4l5.8-4.2l0-0.1
		l-7.1,1.1l-9.2,1.4l-0.9-2.1l19.2-2.4l0.9,2.3l-7.8,5.7l-5.7,4.1l0,0.1l7-0.9l9.6-1.1L644.7,568z M617.4,543.9l-1.1-7.6
		c-0.2-1.5,0-2.8,0.8-3.8c0.7-1,1.8-1.6,3.3-1.8c0.7-0.1,1.3-0.1,1.8,0c0.5,0.1,0.9,0.3,1.3,0.6c0.4,0.3,0.6,0.6,0.8,0.9
		c0.2,0.3,0.4,0.6,0.4,0.9l0.2,0c0-0.3,0-0.7,0.1-1.2c0.1-0.4,0.3-0.9,0.6-1.3s0.7-0.8,1.2-1.1c0.5-0.3,1.1-0.6,1.9-0.7
		c0.8-0.1,1.5-0.1,2.2,0.1c0.7,0.1,1.3,0.4,1.8,0.8c0.5,0.4,1,0.8,1.3,1.4s0.6,1.2,0.7,1.9l1.2,8.4L617.4,543.9z M625.1,540.5
		l-0.7-5.1c-0.1-0.9-0.4-1.5-1-2c-0.5-0.4-1.2-0.6-2-0.5l-0.9,0.1c-0.8,0.1-1.4,0.5-1.8,1c-0.4,0.6-0.5,1.3-0.4,2.2l0.7,5.1
		L625.1,540.5z M633.7,539.3l-0.8-5.5c-0.1-1-0.5-1.7-1.1-2.2c-0.6-0.5-1.3-0.7-2.3-0.5l-0.9,0.1c-0.9,0.1-1.6,0.5-2,1.1
		c-0.4,0.6-0.5,1.4-0.4,2.4l0.8,5.5L633.7,539.3z M633.8,521.5l0,2.3l-18.7-0.3l0.1-7.5c0-1.6,0.5-2.9,1.4-3.8
		c0.9-0.9,2.2-1.3,4-1.3c1.4,0,2.5,0.4,3.4,1c0.9,0.6,1.4,1.6,1.7,2.8l8.3-4.2l0,2.5l-8.1,3.9l-0.1,4.4L633.8,521.5z M623.9,516.1
		c0-0.9-0.2-1.6-0.7-2.1c-0.5-0.5-1.1-0.8-2-0.8l-1.4,0c-0.9,0-1.5,0.2-2,0.7c-0.5,0.5-0.7,1.2-0.7,2.1l-0.1,5.2l6.8,0.1
		L623.9,516.1z M636,494.8l-5.7,1l-1.1,7.5l5.2,2.7l-0.3,2.3l-17.5-9.3l0.4-2.8l19.5-3.7L636,494.8z M618.8,497.9l0,0.1l8.5,4.5
		l1-6.4L618.8,497.9z M627.7,481.6l-4.6,0.9l0,0.1l14.9,4.7l-0.7,2.1l-17.9-5.6l0.8-2.5l12.9-3.1l4.6-0.9l0-0.1l-14.9-4.7l0.7-2.1
		l17.9,5.6l-0.8,2.5L627.7,481.6z M626.6,462.9l2.8-5.6c0.5-1,1.2-1.9,1.9-2.6c0.8-0.7,1.7-1.1,2.7-1.4s2.1-0.3,3.3-0.1
		c1.2,0.2,2.5,0.7,3.9,1.3c1.4,0.7,2.5,1.5,3.4,2.3c0.9,0.8,1.5,1.7,1.9,2.7c0.4,0.9,0.6,1.9,0.5,3c-0.1,1-0.4,2.1-0.9,3.1l-2.8,5.6
		L626.6,462.9z M644.4,464.8c0.3-0.7,0.5-1.4,0.6-2.1c0.1-0.7,0-1.4-0.3-2c-0.2-0.6-0.6-1.2-1.2-1.8c-0.5-0.6-1.2-1-2-1.5l-2.7-1.4
		c-0.8-0.4-1.6-0.7-2.4-0.8c-0.8-0.1-1.5,0-2.1,0.2c-0.7,0.2-1.2,0.5-1.8,1s-1,1-1.3,1.7l-1.8,3.6l13.2,6.6L644.4,464.8z
		 M655.7,449.6L641,438l4.6-5.9c1-1.3,2.2-2,3.5-2.2c1.3-0.1,2.6,0.3,3.9,1.4c1.3,1,2.1,2.2,2.2,3.5c0.2,1.3-0.2,2.6-1.3,3.9
		l-3.2,4.1l6.3,4.9L655.7,449.6z M649.2,441.6l3.2-4.1c0.6-0.7,0.8-1.4,0.7-2.1c-0.1-0.7-0.4-1.3-1.1-1.8l-1.1-0.9
		c-0.7-0.5-1.3-0.7-2-0.7c-0.7,0.1-1.3,0.5-1.8,1.2l-3.2,4.1L649.2,441.6z M667.7,435.3l-1.6,1.6l-12.9-13.6l5.4-5.1
		c1.2-1.1,2.4-1.7,3.7-1.7c1.3,0,2.5,0.7,3.7,1.9c0.9,1,1.5,2,1.7,3.1s-0.1,2.1-0.8,3.2l8.8,3l-1.8,1.8l-8.5-3l-3.2,3L667.7,435.3z
		 M664.6,424.5c0.6-0.6,1-1.3,1-1.9c0-0.7-0.2-1.3-0.8-1.9l-1-1c-0.6-0.6-1.2-0.9-1.9-0.9c-0.7,0-1.3,0.3-2,0.9l-3.8,3.6l4.7,4.9
		L664.6,424.5z M684.5,421.6c-1,0.7-2,1.2-3.1,1.4c-1,0.2-2.1,0.2-3.1-0.1c-1-0.3-2-0.8-3-1.6c-1-0.8-1.9-1.8-2.8-3.1
		c-0.9-1.3-1.5-2.5-1.9-3.7c-0.4-1.2-0.5-2.3-0.4-3.4c0.1-1.1,0.4-2.1,1-3c0.6-0.9,1.3-1.7,2.3-2.4c1-0.7,2-1.1,3-1.4
		c1-0.2,2.1-0.2,3.1,0.1c1,0.3,2,0.8,3,1.6c1,0.8,1.9,1.8,2.8,3.1c0.9,1.3,1.5,2.5,1.9,3.7c0.4,1.2,0.5,2.3,0.4,3.4
		c-0.1,1.1-0.4,2-1,3C686.3,420.1,685.5,420.9,684.5,421.6z M683.4,420c0.7-0.5,1.2-1,1.6-1.6c0.4-0.6,0.6-1.3,0.7-2s0-1.5-0.2-2.2
		c-0.2-0.8-0.6-1.5-1.1-2.3l-1.8-2.6c-0.5-0.8-1.1-1.4-1.8-1.8c-0.7-0.5-1.3-0.8-2-0.9c-0.7-0.2-1.4-0.2-2.1,0
		c-0.7,0.2-1.4,0.5-2.1,0.9c-0.7,0.5-1.2,1-1.6,1.6c-0.4,0.6-0.6,1.3-0.7,2c-0.1,0.7,0,1.5,0.2,2.2s0.6,1.5,1.1,2.3l1.8,2.6
		c0.5,0.8,1.1,1.4,1.8,1.8c0.7,0.5,1.3,0.8,2,0.9c0.7,0.2,1.4,0.2,2.1,0C682.1,420.7,682.8,420.4,683.4,420z M686.3,397.9l5.6-2.7
		c1-0.5,2.1-0.8,3.1-0.9c1-0.1,2,0.1,3,0.5c0.9,0.4,1.8,1.1,2.7,2c0.8,0.9,1.6,2,2.3,3.4c0.7,1.4,1.1,2.7,1.3,3.9
		c0.2,1.2,0.2,2.3-0.1,3.3c-0.3,1-0.7,1.9-1.4,2.6c-0.7,0.8-1.5,1.4-2.6,1.9l-5.6,2.7L686.3,397.9z M699.3,410.3
		c0.7-0.3,1.3-0.8,1.7-1.3c0.5-0.5,0.8-1.1,1-1.8c0.2-0.7,0.3-1.4,0.2-2.1c-0.1-0.8-0.3-1.6-0.7-2.4l-1.3-2.8
		c-0.4-0.8-0.9-1.5-1.4-2.1c-0.6-0.5-1.1-0.9-1.8-1.2c-0.6-0.2-1.3-0.3-2-0.3c-0.7,0-1.4,0.2-2.1,0.6l-3.6,1.8l6.4,13.3L699.3,410.3
		z M707.5,388.7l3.4,11.1c0.5,1.7,1.2,2.9,2.1,3.6c0.9,0.7,2.1,0.8,3.7,0.3c1.6-0.5,2.6-1.3,2.9-2.3s0.3-2.5-0.2-4.2l-3.4-11.1
		l2.2-0.7l3.2,10.6c0.4,1.3,0.6,2.5,0.7,3.5c0.1,1-0.1,1.9-0.4,2.7c-0.3,0.8-0.8,1.5-1.6,2c-0.7,0.6-1.7,1-2.9,1.4
		c-1.2,0.4-2.2,0.5-3.2,0.5c-0.9-0.1-1.7-0.3-2.4-0.8c-0.7-0.5-1.3-1.2-1.8-2.1c-0.5-0.9-1-2-1.4-3.3l-3.2-10.6L707.5,388.7z
		 M735.2,401.6c-2.4,0.3-4.3-0.2-5.8-1.6c-1.5-1.4-2.6-3.7-3-6.8c-0.5-3.1-0.2-5.6,0.9-7.5c1.1-1.9,2.8-3,5.1-3.3
		c1.6-0.2,2.9-0.1,4.1,0.5c1.2,0.5,2.1,1.4,2.9,2.6l-1.6,1.4c-0.5-0.9-1.2-1.6-2-2c-0.8-0.5-1.8-0.6-3-0.4c-0.8,0.1-1.5,0.4-2.1,0.8
		c-0.6,0.4-1,0.9-1.4,1.5s-0.6,1.3-0.7,2.1c-0.1,0.8-0.1,1.7,0,2.6l0.4,2.8c0.3,1.9,1,3.4,2,4.3c1,1,2.4,1.3,4,1.1
		c1.2-0.2,2.1-0.6,2.8-1.4c0.7-0.7,1.2-1.6,1.4-2.7l1.9,0.9c-0.4,1.4-1.1,2.5-2.1,3.5C738,400.8,736.7,401.4,735.2,401.6z
		 M751.4,383.4l0.3,16.7l-2.3,0l-0.3-16.7l-6,0.1l0-2l14.2-0.2l0,2L751.4,383.4z"/>
</g>
</svg>
