<?xml version="1.0" encoding="utf-8"?>
<!-- Generator: Adobe Illustrator 24.1.2, SVG Export Plug-In . SVG Version: 6.00 Build 0)  -->
<svg version="1.1" id="Layer_1" xmlns="http://www.w3.org/2000/svg" xmlns:xlink="http://www.w3.org/1999/xlink" x="0px" y="0px"
	 width="960px" height="580px" viewBox="0 0 960 580" style="enable-background:new 0 0 960 580;" xml:space="preserve">
<style type="text/css">
	.st0{fill:#D9D9D9;}
</style>
<path class="st0" d="M882.4,550.9l77.6,19v1.2l-77.1-18.9L863.3,580h-1.4L882.4,550.9z M838.4,580h1.3l22.8-42.5l97.5,23.4v-1.2
	l-98.1-23.5L838.4,580z M849.7,580h1.4l21.6-35.1L960,566v-1.2l-87.8-21.3L849.7,580z M851.5,529.3L828,580h1.3l23.1-49.8L960,555.8
	v-1.2l-108.3-25.7L851.5,529.3z M818.2,580h1.3l22.7-57.2L960,550.6v-1.2l-118.6-27.9L818.2,580z M799.9,580h1.2l27-72.1L960,538.8
	v-1.2l-132.6-31.1L799.9,580z M831,514.6L809,580h1.2l21.7-64.5l128,29.8v-1.2l-128.8-30L831,514.6z M905.7,580h1.7l6-5.8l22.8,5.8
	h4.7l-27.8-7.1L905.7,580z M732.3,377.2L615.2,522.7l-114.3,0.8l-11.6,18.8L437.9,580h2l50.4-36.9l0.1-0.1l11.3-18.3l114.2-0.8
	l0.2-0.2l117-145.7l96.7-59.4L960,405v-1.4l-130.1-86.4L732.3,377.2z M416.4,580l62.9-109.1l118.4,43.3l6.7,2l198.3-234.1l157.3,110
	v-1.4L802.5,280.6l-0.3,0.4L603.7,515.2l-125-45.7L415,580H416.4z M604.1,516.5l-6.4-2.3l-114.5-33.9l-11,18.8l-54,80.9l-0.1,0.1
	h1.4l53.7-80.3l10.5-18L602.9,517l-115.2-25.9l-11.1,18.8L421.7,580h1.5l54.3-69.5l10.8-18.1L608,519.3l-115.8-17.4l-11.3,18.8
	l-55,59.3h1.6l54.2-58.7l10.9-18.2l118.5,17.8L728.5,378l90.5-74l141,95.7v-1.4l-141.1-95.7l-91.3,74.7l-117,142.5l-1.8-0.3
	l117.3-141.3l87.5-81.4L960,397.1v-1.4L813.4,295.2l-88.2,82l-116.9,141l-1.7-0.4l0.1-0.1l117-139.6l84.4-88.7L960,394.5v-1.4
	L808,287.9l-85.1,89.4L606,516.7l-1.6-0.5l0,0L604.1,516.5z M824.4,309.9l-0.3,0.2L730,377.2v0.1L613,521.2l-116.5-8.5l-11.4,18.8
	l-54,48.5h1.7l53.1-47.8l11.1-18.3l116.3,8.5l0.2-0.2l117.1-144.1l93.6-66.8l135.6,91v-1.4L824.4,309.9z M875.1,580h1.5l16.4-20.5
	l66.9,16.6v-1.2l-67.4-16.7L875.1,580z M902.6,565.8L889.7,580h1.6l12-13.1l52.2,13.1h4.5v-0.1l-57.1-14.4L902.6,565.8z
	 M823.5,499.3l-33,80.7h1.3l32.6-79.8l135.6,32V531l-136.3-32.1L823.5,499.3z M922.3,443.6L778.4,407l-0.2,0.3L663.7,580h1.4
	l113.8-171.6l143,36.3l38.1,18.9v-1.3L922.3,443.6L922.3,443.6z M789.7,430l-0.2,0.4L697,580h1.4l91.9-148.7L938,468.1l22,9.8v-1.3
	l-21.6-9.6L789.7,430z M819.7,491.6L780.8,580h1.3l38.5-87.4l139.4,33v-1.2l-140.1-33.2L819.7,491.6z M916.9,435.8l-142.3-36.4
	l-0.2,0.3L652.5,580h1.4l121.3-179.3l141.4,36.2l43.4,22.2v-1.3L916.9,435.8L916.9,435.8z M782.2,414.7L782,415L674.9,580h1.4
	l106.4-164l144.6,36.5l32.7,15.7v-1.3l-32.3-15.5L782.2,414.7z M900.9,412.4l-101.7-26.6l95.9,20.4l64.9,36.5v-1.3l-64.5-36.2h-0.1
	l-102.8-21.8l97,15.6l70.3,40.2v-1.3l-69.9-40h-0.1L786.3,381l97.9,10.6l75.8,44.1v-1.3l-75.4-43.8h-0.1l-104.3-11.2l98.7,5.1
	l81.2,48v-1.4l-80.9-47.8h-0.1l-104.8-5.4l99.2-0.7l86.7,52v-1.4L873.9,376h-0.2l-105,0.8l99.4-6.9l92.1,56v-1.4l-91.8-55.9h-0.2
	l-105,7.3l99.5-13.4l97.5,60.2v-1.4l-97.3-60h-0.2l-104.8,14.1l99.3-20.3l103,64.4v-1.4l-102.7-64.3h-0.2l-104.4,21.3l99-27.4
	L960,416.5v-1.4l-108.2-68.6l-104.1,28.8l98.4-34.8l113.8,73v-1.4l-113.7-72.9l-103.3,36.5l97.7-42.5L960,410.6v-1.4l-119.2-77.4
	l-0.3,0.1l-102,44.4l96.7-50.5l124.8,82v-1.4l-124.6-81.9l-0.3,0.2l-100.3,52.4l-0.1,0.1l-117.1,147l-112.2,10.1l-11.7,18.8L447,580
	h2.3l45.1-26l11.6-18.6l112.1-10.1l0.2-0.2L735.5,378l1.4-0.8L619.8,525.7l-110.1,19.4l-11.9,18.8l-37,16.1h2.9l34.9-15.2l11.8-18.7
	l110-19.4l0.1-0.2L737.9,378l1.3-0.6l-117,149.8l-107.9,28.7l-12,18.8l-17.6,5.3h4.1l14.3-4.3l12-18.8L623,528.2L740.2,378l1.2-0.4
	l-117,151.2l-105.8,38l-0.1,0.2l-8.5,13.1h1.4l8-12.3l105.7-38l0.1-0.1L742.6,378l1.1-0.3l-117,152.6L523,577.6l-1.6,2.5h1.4l1-1.5
	l103.6-47.3l0.1-0.1l117.3-153.1l1-0.2L629,531.8L542.5,580h2.4l85-47.3l0.1-0.1L747.4,378l1-0.1l-117,155.4L560.8,580h2.1
	l69.2-45.9l0.1-0.1l117.4-156.1l0.9-0.1l-116.8,157L575.1,580h1.9l57.5-44.4v-0.1L752,377.9h0.9L636,536.3L586.7,580h1.8l48.4-42.9
	l0,0L754.4,378l0,0h0.8l-117,159.9L596.4,580h1.6l41.1-41.4L756.6,378h0.9L640.6,539.3L604.7,580h1.6l35.3-40L759,378.1h0.3l0.5,0.1
	L642.9,540.8l-31,39.2h1.5l30.4-38.5L761,378.3l0.8,0.1L618.3,580h1.4l143.5-201.5l1,0.1l5.1,0.8l5.2,1.1l126.1,32.9l59.4,32.8V445
	L900.9,412.4L900.9,412.4z M906.3,420.2l-139.2-36.1l-0.2,0.3L629.8,580h1.4l136.4-194.6l138.3,35.9l54.1,29.2v-1.3L906.3,420.2
	L906.3,420.2z M911.6,428l-140.7-36.2l-0.2,0.3L641.1,580h1.4l128.8-186.9l139.9,36l48.8,25.6v-1.3L911.6,428L911.6,428z M786,422.3
	L686,580h1.4l99.1-156.3l146.2,36.6L960,473v-1.3l-26.9-12.5L786,422.3z M812.2,476.3L760.8,580h1.3L813,477.2l147,35.3v-1.2
	l-147.6-35.4L812.2,476.3z M815.9,484l-45,96h1.3l44.6-95.1L960,519v-1.2l-143.9-34.3L815.9,484z M793.5,437.6L707.9,580h1.4
	l84.8-141l149.3,36.9L960,483v-1.3l-16.3-7L793.5,437.6z M750.5,580h1.3l57.4-110.4L960,506v-1.2l-151.4-36.5L750.5,580z
	 M797.3,445.3l-0.2,0.4L718.8,580h1.4l77.7-133.4l150.8,37.1l11.3,4.6V487l-10.9-4.5L797.3,445.3z M804.8,460.6l-0.2,0.4l-64.5,119
	h1.3l64-118.1l154,37.4l0.6,0.2v-1.2l-0.3-0.1L804.8,460.6z M801.1,452.9l-0.2,0.4L729.5,580h1.3l70.8-125.7L954,491.5l6,2.3v-1.2
	l-5.6-2.2L801.1,452.9z"/>
</svg>
