<?xml version="1.0" encoding="utf-8"?>
<!-- Generator: Adobe Illustrator 24.1.2, SVG Export Plug-In . SVG Version: 6.00 Build 0)  -->
<svg version="1.1" id="Layer_1" xmlns="http://www.w3.org/2000/svg" xmlns:xlink="http://www.w3.org/1999/xlink" x="0px" y="0px"
	 width="960px" height="1080px" viewBox="0 0 960 1080" style="enable-background:new 0 0 960 1080;" xml:space="preserve">
<style type="text/css">
	.st0{opacity:0.9;clip-path:url(#SVGID_2_);fill:#050211;}
	.st1{opacity:0.9;clip-path:url(#SVGID_4_);fill:#050211;}
	.st2{opacity:0.9;clip-path:url(#SVGID_6_);fill:#050211;}
</style>
<g>
	<g>
		<g>
			<defs>
				<rect id="SVGID_1_" width="960" height="1080"/>
			</defs>
			<clipPath id="SVGID_2_">
				<use xlink:href="#SVGID_1_"  style="overflow:visible;"/>
			</clipPath>
			<path class="st0" d="M766.3,721.3c-4.9-0.7-8.4-3-10.6-6.7c-2.2-3.7-2.8-8.8-1.8-15.3s3.1-11.2,6.3-14.3s7.3-4.2,12.2-3.5
				c3.2,0.5,5.8,1.6,7.8,3.4c2,1.8,3.3,4.1,4.2,7l-4.1,1.7c-0.5-2.1-1.4-3.9-2.8-5.3c-1.4-1.4-3.3-2.3-5.7-2.7
				c-1.7-0.3-3.2-0.2-4.6,0.3c-1.4,0.4-2.6,1.2-3.7,2.2c-1.1,1-2,2.3-2.7,3.8s-1.2,3.3-1.5,5.3l-0.9,5.7c-0.6,4-0.2,7.2,1.3,9.8
				s3.9,4,7.2,4.5c2.5,0.4,4.6,0.1,6.5-1c1.8-1,3.3-2.5,4.4-4.5l3.3,2.9c-1.6,2.5-3.7,4.4-6.2,5.6
				C772.4,721.4,769.5,721.8,766.3,721.3z M800.2,729.2c-2.4-0.7-4.5-1.8-6.1-3.3c-1.7-1.4-2.9-3.2-3.8-5.2c-0.9-2-1.3-4.4-1.3-7
				s0.5-5.5,1.4-8.6c1-3.1,2.2-5.8,3.7-7.9c1.5-2.1,3.2-3.8,5-5c1.9-1.2,3.9-1.9,6.1-2.2c2.2-0.2,4.5,0,6.9,0.8
				c2.4,0.7,4.4,1.8,6.1,3.3c1.7,1.4,3,3.2,3.8,5.2c0.9,2.1,1.3,4.4,1.3,7s-0.5,5.5-1.4,8.6c-1,3.1-2.2,5.8-3.7,7.9
				c-1.5,2.2-3.2,3.8-5,5c-1.9,1.2-3.9,1.9-6.1,2.1C804.9,730.2,802.6,729.9,800.2,729.2z M801.4,725.2c1.6,0.5,3.2,0.7,4.7,0.5
				s2.9-0.6,4.2-1.4c1.3-0.8,2.5-1.8,3.5-3.1s1.8-2.9,2.4-4.8l1.9-6.2c0.6-1.9,0.8-3.6,0.8-5.3c-0.1-1.7-0.4-3.2-1.1-4.5
				c-0.6-1.4-1.6-2.5-2.7-3.5c-1.2-1-2.6-1.7-4.1-2.2c-1.6-0.5-3.2-0.7-4.7-0.5c-1.5,0.1-2.9,0.6-4.2,1.4c-1.3,0.8-2.5,1.8-3.5,3.1
				s-1.8,2.9-2.4,4.8l-1.9,6.2c-0.6,1.8-0.8,3.6-0.8,5.3c0.1,1.7,0.4,3.2,1.1,4.5c0.6,1.4,1.6,2.5,2.7,3.5
				C798.5,724,799.8,724.8,801.4,725.2z M866,721.3l-0.2-0.1l-5.9,4.3l-16,10.8l-0.5-19.3l0.1-7.3l-0.2-0.1l-15,29.1l-4.1-2.1
				L842,702l5.5,2.8l0.3,23.7l0.2,0.1l19.5-13.5l5.3,2.7L855,752.4l-4.1-2.1L866,721.3z M862.4,757.7l2.2-3.2l4.5,3.1l17.9-25.4
				l-4.5-3.1l2.2-3.2l12.7,9l-2.2,3.2l-4.5-3.1l-17.9,25.4l4.5,3.1l-2.2,3.2L862.4,757.7z M905.3,760.9l2.4-9.5l-0.1-0.1l-21.8,23.9
				l-3.4-3.1l26.2-28.7l4,3.6l-5.5,27.1l-2.4,9.5l0.1,0.1l21.8-23.9l3.4,3.1l-26.2,28.7l-4-3.6L905.3,760.9z M931,815.6L931,815.6
				c-1.8,0.6-3.7,0.7-5.8-0.1c-2.1-0.7-4.1-2.3-5.9-4.6c-1.5-1.9-2.5-3.8-3-5.9c-0.6-2.1-0.6-4.2-0.2-6.4c0.4-2.2,1.4-4.3,2.9-6.5
				s3.5-4.3,6-6.3s5-3.5,7.5-4.4c2.4-0.9,4.8-1.4,7-1.3c2.2,0.1,4.3,0.6,6.3,1.7c2,1,3.7,2.5,5.3,4.5c2.2,2.7,3.4,5.5,3.6,8.3
				c0.2,2.8-0.2,5.5-1.5,8.1L949,801c1.1-2,1.5-4,1.4-6.2c-0.2-2.1-1-4.1-2.5-6.1c-1.1-1.3-2.3-2.4-3.6-3.1
				c-1.4-0.7-2.8-1.1-4.3-1.2c-1.5-0.1-3.1,0.1-4.6,0.6c-1.6,0.5-3.1,1.4-4.6,2.6l-4.9,3.9c-1.5,1.2-2.7,2.5-3.6,3.9
				c-0.9,1.4-1.5,2.9-1.7,4.4s-0.1,3,0.3,4.6c0.4,1.5,1.2,3,2.4,4.5c0.8,1,1.8,1.9,2.8,2.7c1,0.7,2.1,1.2,3.2,1.5
				c1.1,0.3,2.3,0.3,3.4,0c1.2-0.3,2.3-0.8,3.4-1.7l3-2.4l-5.3-6.7l3.2-2.6l8.2,10.3l-15.7,12.4l-2.7-3.4L931,815.6z M946.1,852.8
				c-1.4-2.8-2.1-5.5-2-8s0.7-5,1.9-7.3l4.1,1.8c-1,2-1.6,4-1.7,5.9c-0.1,1.9,0.4,3.9,1.4,5.9c1.3,2.5,2.8,4.1,4.7,4.8
				c1.8,0.7,3.8,0.6,5.8-0.4c1.7-0.8,2.7-2,3.1-3.4c0.4-1.4,0.3-3.4-0.3-6l-0.8-3.2c-0.9-3.6-1-6.5-0.4-9c0.6-2.4,2.3-4.3,5-5.7
				c1.5-0.8,3-1.2,4.5-1.2s2.9,0.2,4.2,0.9c1.3,0.6,2.5,1.5,3.6,2.7s2.1,2.6,3,4.3c1.3,2.6,2,5.1,1.9,7.5c0,2.4-0.6,4.7-1.8,6.9
				l-3.9-2c0.8-1.6,1.3-3.3,1.4-5.1c0.1-1.7-0.4-3.6-1.4-5.6c-1.1-2.2-2.5-3.7-4.1-4.5s-3.3-0.7-5.2,0.2c-1.7,0.8-2.6,2-2.9,3.5
				c-0.3,1.5-0.2,3.5,0.5,5.9l0.8,3.2c1,3.8,1,6.9,0.2,9.2s-2.5,4.1-5.1,5.4c-1.6,0.8-3.2,1.3-4.7,1.4c-1.6,0.1-3.1-0.1-4.5-0.7
				c-1.4-0.6-2.7-1.5-4-2.7C948.1,856.2,947,854.7,946.1,852.8z M959.9,886.2c-0.8-2.4-1.1-4.7-0.9-6.9c0.2-2.2,0.9-4.2,2-6.1
				c1.2-1.9,2.8-3.6,4.9-5.1c2.1-1.5,4.8-2.8,7.9-3.8c3.1-1,6-1.5,8.6-1.6c2.6,0,4.9,0.4,7,1.2s3.8,2.1,5.3,3.7
				c1.5,1.6,2.6,3.7,3.4,6.1c0.8,2.4,1.1,4.7,0.9,6.9c-0.2,2.2-0.9,4.3-2.1,6.2c-1.2,1.9-2.8,3.6-4.9,5.1c-2.1,1.5-4.7,2.8-7.8,3.8
				s-6,1.6-8.6,1.6s-5-0.4-7-1.2c-2.1-0.8-3.8-2.1-5.3-3.7C961.8,890.6,960.7,888.6,959.9,886.2z M963.8,884.9
				c0.5,1.6,1.3,3,2.3,4.1s2.2,2,3.6,2.7c1.4,0.6,2.9,1,4.6,1c1.7,0,3.4-0.2,5.3-0.8l6.2-2c1.8-0.6,3.4-1.4,4.7-2.4s2.3-2.2,3.1-3.5
				c0.7-1.3,1.2-2.7,1.3-4.3c0.1-1.5-0.1-3.1-0.6-4.7c-0.5-1.6-1.3-3-2.3-4.1c-1-1.2-2.2-2-3.6-2.7c-1.4-0.6-2.9-1-4.6-1
				c-1.7,0-3.4,0.2-5.3,0.8l-6.2,2c-1.8,0.6-3.4,1.4-4.7,2.4s-2.3,2.2-3.1,3.5c-0.7,1.3-1.2,2.7-1.3,4.3
				C963.1,881.8,963.3,883.3,963.8,884.9z M969.1,924.5c-0.4-2.5-0.3-4.8,0.2-6.9c0.5-2.1,1.5-4,3-5.7c1.4-1.7,3.4-3.1,5.7-4.2
				c2.4-1.2,5.1-2,8.4-2.5c3.2-0.5,6.1-0.6,8.7-0.2c2.6,0.4,4.8,1.2,6.7,2.3s3.4,2.7,4.6,4.5c1.2,1.9,2,4,2.3,6.5
				c0.4,2.5,0.3,4.8-0.2,6.9s-1.6,4.1-3,5.7c-1.5,1.7-3.4,3.1-5.7,4.2c-2.3,1.2-5.1,2-8.3,2.5s-6.1,0.6-8.7,0.2
				c-2.6-0.4-4.8-1.1-6.7-2.3s-3.4-2.7-4.6-4.6C970.3,929.1,969.5,926.9,969.1,924.5z M973.2,923.9c0.3,1.6,0.8,3.1,1.6,4.4
				c0.8,1.3,1.8,2.4,3.1,3.2s2.7,1.4,4.3,1.7s3.4,0.3,5.3,0l6.4-1c1.9-0.3,3.6-0.8,5.1-1.6s2.7-1.8,3.6-3c0.9-1.2,1.6-2.5,2-4
				s0.4-3.1,0.2-4.7c-0.3-1.7-0.8-3.1-1.6-4.4s-1.8-2.4-3.1-3.2s-2.7-1.4-4.3-1.7s-3.4-0.3-5.3,0l-6.4,1c-1.9,0.3-3.6,0.8-5.1,1.6
				s-2.7,1.8-3.6,3c-0.9,1.2-1.6,2.5-2,4C973,920.6,972.9,922.2,973.2,923.9z M996.5,959l8.7-4.5v-0.2l-32.3-0.5l0.1-4.6l38.9,0.6
				l-0.1,5.4l-24,13.8l-8.7,4.5v0.2l32.4,0.5l-0.1,4.6l-38.9-0.6l0.1-5.4L996.5,959z M964.5,1026.8l12-1.3l3.4-15.3l-10.4-6.3l1-4.6
				l35.1,21.6l-1.3,5.8l-40.9,4.9L964.5,1026.8z M1000.7,1022.9l0.1-0.3l-17.1-10.5l-2.9,13.1L1000.7,1022.9z M957.8,1062.7l0.1-0.2
				c-1.5-1.1-2.5-2.7-2.9-4.9c-0.4-2.2-0.1-4.7,0.9-7.4c0.9-2.2,2-4.1,3.6-5.6c1.5-1.5,3.3-2.7,5.4-3.4c2.1-0.7,4.4-1,7.1-0.8
				c2.6,0.2,5.5,0.8,8.5,2s5.6,2.6,7.6,4.2c2.1,1.6,3.6,3.4,4.7,5.4c1.1,2,1.6,4,1.7,6.3s-0.3,4.5-1.2,6.8c-1.3,3.3-3,5.7-5.3,7.3
				s-4.8,2.6-7.7,2.8l-0.8-4.4c2.3-0.1,4.3-0.7,6-2c1.7-1.2,3.1-3,3.9-5.3c0.6-1.6,0.9-3.2,0.8-4.7c-0.1-1.5-0.4-3-1.1-4.3
				c-0.7-1.4-1.6-2.6-2.9-3.7c-1.3-1.1-2.8-2-4.6-2.7l-5.9-2.3c-1.8-0.7-3.6-1.1-5.2-1.1c-1.7,0-3.2,0.2-4.6,0.8
				c-1.4,0.6-2.7,1.4-3.8,2.6s-2,2.6-2.7,4.3c-0.5,1.2-0.8,2.5-0.9,3.8c-0.1,1.3,0,2.4,0.3,3.5s0.9,2.1,1.7,3s1.9,1.6,3.2,2.1
				l3.6,1.4l3.1-8l3.8,1.5l-4.7,12.3l-18.7-7.2l1.6-4.1L957.8,1062.7z M946.7,1073.2l33.8,19.1l-11.7,20.7l-3.6-2l9.4-16.6
				l-11.3-6.4l-8.8,15.6l-3.6-2l8.8-15.6l-11.7-6.6l-9.4,16.6l-3.6-2L946.7,1073.2z M943,1123.5l9.7,1.6l0.1-0.1l-25.5-19.9l2.8-3.6
				l30.7,23.9l-3.3,4.3l-27.4-3.4l-9.7-1.6l-0.1,0.1l25.5,19.9l-2.8,3.6l-30.7-23.9l3.3-4.3L943,1123.5z M894.6,1141.1
				c3.6-3.4,7.5-4.8,11.8-4.3s8.7,3.2,13.2,7.9s6.9,9.3,7.4,13.8c0.4,4.4-1.2,8.4-4.8,11.7c-2.4,2.2-4.9,3.6-7.5,4.1s-5.3,0.1-8-1
				l1.2-4.3c1.9,0.9,3.9,1.3,5.9,1s3.9-1.2,5.6-2.8c1.2-1.1,2.1-2.4,2.6-3.8s0.7-2.8,0.6-4.3c-0.1-1.5-0.6-3-1.4-4.5
				c-0.8-1.5-1.8-3-3.2-4.5l-4-4.2c-2.8-2.9-5.6-4.6-8.5-4.9c-2.9-0.4-5.6,0.6-8,2.9c-1.8,1.7-2.9,3.6-3.2,5.7s-0.1,4.2,0.8,6.2
				l-4.3,0.9c-1-2.8-1.2-5.6-0.6-8.3C890.7,1145.9,892.2,1143.4,894.6,1141.1z M872,1160.7l8.9,12.5l24.5,11.3l-4.3,3.1l-19.3-9.2
				l-0.1,0.1l2.5,21.2l-4.3,3.1l-2.6-26.9l-9-12.6L872,1160.7z M839.2,1181.2l16,35.4l-14.1,6.4c-3.2,1.4-6,1.6-8.6,0.6
				c-2.5-1-4.5-3.1-5.9-6.3c-1.4-3.1-1.7-6-0.8-8.6s2.9-4.6,6.1-6l9.8-4.4l-6.8-15.1L839.2,1181.2z M843.4,1202l-9.8,4.4
				c-1.7,0.8-2.8,1.8-3.3,3.1c-0.5,1.3-0.4,2.8,0.3,4.4l1.2,2.6c0.7,1.6,1.8,2.7,3.1,3.1c1.3,0.5,2.8,0.3,4.5-0.5l9.8-4.4
				L843.4,1202z M793.8,1197.9c2.4-0.7,4.7-0.9,6.9-0.6s4.2,1.1,6,2.3c1.8,1.2,3.5,3,4.9,5.2s2.6,4.9,3.5,8s1.3,6,1.2,8.6
				s-0.6,4.9-1.5,7c-0.9,2-2.2,3.7-3.9,5.1s-3.8,2.4-6.2,3.1s-4.7,0.9-6.9,0.6s-4.2-1.1-6.1-2.3c-1.8-1.3-3.5-3-4.9-5.2
				s-2.6-4.8-3.5-8c-0.9-3.1-1.3-6-1.2-8.7c0.1-2.6,0.6-4.9,1.5-7c0.9-2,2.2-3.7,4-5.1C789.3,1199.6,791.4,1198.6,793.8,1197.9z
				 M794.9,1201.9c-1.6,0.5-3,1.2-4.2,2.1c-1.2,1-2.1,2.1-2.8,3.5s-1.1,2.9-1.2,4.5c-0.1,1.7,0.1,3.4,0.6,5.3l1.7,6.2
				c0.5,1.9,1.3,3.5,2.2,4.8c1,1.4,2.1,2.4,3.4,3.2c1.3,0.8,2.7,1.3,4.2,1.5s3.1,0.1,4.7-0.4c1.6-0.4,3-1.2,4.2-2.1
				c1.2-1,2.1-2.1,2.8-3.5s1.1-2.9,1.2-4.5c0.1-1.7-0.1-3.4-0.6-5.3l-1.7-6.2c-0.5-1.9-1.3-3.5-2.2-4.8c-1-1.4-2.1-2.4-3.4-3.2
				c-1.3-0.8-2.7-1.3-4.2-1.5C798,1201.3,796.5,1201.4,794.9,1201.9z M764.8,1205l4.6-0.6l4.6,38.6l-15.4,1.8
				c-3.4,0.4-6.1-0.2-8.3-1.9c-2.1-1.7-3.4-4.3-3.8-7.8c-0.3-2.8,0-5.2,1.1-7.2s2.9-3.4,5.3-4.3l-10.9-16l5.3-0.6l10.3,15.6l9-1.1
				L764.8,1205z M756.5,1226.8c-1.8,0.2-3.2,0.9-4.1,1.9c-0.9,1.1-1.2,2.5-1,4.3l0.3,2.9c0.2,1.8,0.9,3.1,2,3.9s2.6,1.1,4.5,0.9
				l10.7-1.3l-1.7-13.9L756.5,1226.8z M721.4,1242.3l0.6-34.7l4.7,0.1l-0.6,34.7l12.4,0.2l-0.1,4.1l-29.4-0.5l0.1-4.1L721.4,1242.3z
				 M702.6,1206.6l-5.6,38.5l-22.9-3.3l0.6-4.1l18.3,2.6l1.9-12.9l-16.7-2.4l0.6-4.1l16.7,2.4l2.5-17.4L702.6,1206.6z M658.7,1197.1
				c2.4,0.7,4.5,1.8,6.2,3.2c1.7,1.4,3,3.1,3.9,5.1s1.4,4.3,1.4,7s-0.4,5.5-1.3,8.6s-2.1,5.8-3.6,8c-1.4,2.2-3.1,3.9-5,5.1
				s-3.9,2-6.1,2.3c-2.2,0.3-4.5,0-6.9-0.7s-4.4-1.8-6.1-3.2c-1.7-1.4-3-3.1-3.9-5.2c-0.9-2-1.4-4.4-1.4-7s0.4-5.5,1.3-8.6
				c0.9-3.1,2.1-5.8,3.6-8s3.1-3.9,5-5.1c1.8-1.2,3.9-2,6.1-2.2C654,1196.1,656.3,1196.4,658.7,1197.1z M657.5,1201
				c-1.6-0.5-3.2-0.6-4.7-0.4s-2.9,0.7-4.2,1.4c-1.3,0.8-2.4,1.8-3.4,3.2c-1,1.3-1.7,2.9-2.3,4.8l-1.8,6.2c-0.5,1.9-0.8,3.6-0.7,5.3
				c0.1,1.7,0.5,3.2,1.1,4.5c0.7,1.4,1.6,2.5,2.8,3.5s2.6,1.7,4.2,2.2c1.6,0.5,3.2,0.6,4.7,0.4s2.9-0.7,4.2-1.4
				c1.3-0.8,2.4-1.8,3.4-3.2c1-1.3,1.7-2.9,2.3-4.8l1.8-6.2c0.5-1.9,0.8-3.6,0.7-5.3c-0.1-1.7-0.5-3.2-1.1-4.5
				c-0.7-1.4-1.6-2.5-2.8-3.5S659.1,1201.5,657.5,1201z M634.6,1189.5l-16.1,35.4l-4.3-1.9l14.4-31.6l-15.1-6.8l1.7-3.8
				L634.6,1189.5z M610.5,1178l-2,3.4l-4.7-2.8l-15.7,26.8l4.7,2.8l-2,3.4l-13.4-7.9l2-3.4l4.7,2.8l15.7-26.8l-4.7-2.8l2-3.4
				L610.5,1178z M578.3,1155.9c2,1.5,3.5,3.3,4.6,5.2c1.1,1.9,1.6,4,1.7,6.2c0.1,2.2-0.3,4.5-1.2,7s-2.4,5-4.4,7.6s-4.1,4.6-6.2,6.1
				c-2.1,1.5-4.3,2.5-6.5,2.9c-2.2,0.5-4.3,0.4-6.5-0.1c-2.1-0.5-4.2-1.6-6.2-3.1s-3.5-3.3-4.6-5.2c-1.1-1.9-1.7-4-1.7-6.2
				c-0.1-2.2,0.3-4.6,1.2-7s2.4-5,4.4-7.5c2-2.6,4.1-4.6,6.2-6.1c2.2-1.5,4.3-2.5,6.5-2.9c2.2-0.5,4.3-0.4,6.5,0.2
				C574.3,1153.4,576.3,1154.4,578.3,1155.9z M575.8,1159.2c-1.3-1-2.7-1.7-4.2-2.1s-3-0.5-4.5-0.2s-2.9,0.8-4.3,1.7
				c-1.4,0.9-2.7,2.1-3.9,3.6l-4,5.1c-1.2,1.5-2,3.1-2.6,4.7c-0.5,1.6-0.7,3.1-0.6,4.6c0.1,1.5,0.6,2.9,1.3,4.3
				c0.8,1.3,1.8,2.5,3.1,3.5s2.7,1.7,4.2,2.1s3,0.5,4.5,0.2s2.9-0.8,4.3-1.7c1.4-0.9,2.7-2.1,3.9-3.6l4-5.1c1.2-1.5,2-3.1,2.6-4.7
				c0.5-1.6,0.7-3.1,0.6-4.6c-0.1-1.5-0.6-2.9-1.3-4.3S577.1,1160.2,575.8,1159.2z M524.3,1138.3l-3.6,9.1l0.1,0.1l24.9-20.7
				l2.9,3.5l-29.9,24.9l-3.5-4.2l9.2-26.1l3.6-9.1l-0.1-0.1l-24.9,20.7l-2.9-3.5L530,1108l3.5,4.2L524.3,1138.3z M524,1099.2
				l-33.2,20.2l-12.3-20.3l3.5-2.1l9.9,16.3l11.1-6.8l-9.3-15.3l3.5-2.1l9.3,15.3l11.5-7l-9.9-16.3l3.5-2.1L524,1099.2z
				 M505.2,1066.2l-32.6,23.1l-1.8-4.6l15.8-10.8l12.3-8.4v-0.1l-14.8,2l-19.2,2.3l-2-5l15.6-11.3l12.1-8.7l-0.1-0.2l-14.7,2.2
				l-19,2.8l-1.8-4.5l39.8-5.1l1.9,4.8l-16.1,11.9l-11.9,8.6v0.1l14.6-1.8l19.9-2.3L505.2,1066.2z M448.6,1016.1l-2.3-15.8
				c-0.5-3.2,0.1-5.8,1.6-7.9c1.5-2.1,3.8-3.3,6.8-3.8c1.4-0.2,2.7-0.2,3.7,0.1s1.9,0.7,2.7,1.2c0.7,0.5,1.3,1.1,1.7,1.8
				c0.4,0.7,0.7,1.3,0.9,1.9h0.3c-0.1-0.7,0-1.5,0.2-2.4s0.6-1.8,1.2-2.7s1.4-1.7,2.5-2.4c1-0.7,2.4-1.2,3.9-1.4
				c1.6-0.2,3.1-0.2,4.5,0.1s2.7,0.8,3.8,1.6c1.1,0.7,2,1.7,2.8,2.8c0.7,1.1,1.2,2.4,1.4,3.8l2.5,17.5L448.6,1016.1z M464.6,1009.1
				l-1.5-10.6c-0.3-1.8-0.9-3.2-2-4.1c-1.1-0.9-2.5-1.2-4.2-1l-1.9,0.3c-1.7,0.2-3,1-3.7,2.1s-1,2.7-0.8,4.5l1.5,10.6L464.6,1009.1z
				 M482.3,1006.6l-1.6-11.4c-0.3-2-1-3.5-2.2-4.5s-2.7-1.4-4.7-1.1l-1.9,0.3c-1.9,0.3-3.3,1.1-4.2,2.3c-0.8,1.3-1.1,2.9-0.8,4.9
				l1.6,11.4L482.3,1006.6z M482.6,969.6l-0.1,4.7l-38.9-0.6l0.3-15.5c0.1-3.4,1-6.1,3-7.9c1.9-1.9,4.7-2.8,8.2-2.7
				c2.9,0,5.2,0.7,7,2.1c1.8,1.3,3,3.3,3.6,5.9L483,947l-0.1,5.3l-16.8,8.1l-0.1,9.1L482.6,969.6z M462,958.4c0-1.9-0.4-3.3-1.4-4.3
				c-0.9-1-2.3-1.6-4.1-1.6h-2.9c-1.8,0-3.2,0.5-4.1,1.5c-1,1-1.5,2.4-1.5,4.3l-0.2,10.8l14,0.2L462,958.4z M487.2,914.2l-11.9,2.1
				l-2.3,15.5l10.8,5.6l-0.7,4.7l-36.4-19.2l0.9-5.9l40.5-7.6L487.2,914.2z M451.3,920.6v0.3l17.7,9.3l2-13.3L451.3,920.6z
				 M469.8,886.8l-9.6,1.9l-0.1,0.2l30.9,9.7l-1.4,4.4l-37.1-11.7l1.6-5.2l26.9-6.4l9.6-1.9v-0.2l-30.9-9.7l1.4-4.4l37.1,11.7
				l-1.6,5.2L469.8,886.8z M467.6,848l5.8-11.7c1.1-2.2,2.4-3.9,4-5.3c1.6-1.4,3.4-2.4,5.5-2.9s4.4-0.6,6.9-0.2
				c2.5,0.4,5.2,1.4,8.1,2.8s5.3,3,7.1,4.8c1.8,1.7,3.2,3.6,4,5.6s1.2,4,1,6.1c-0.1,2.1-0.8,4.3-1.8,6.4l-5.8,11.7L467.6,848z
				 M504.5,851.9c0.7-1.4,1.1-2.9,1.2-4.3c0.1-1.4-0.1-2.8-0.6-4.1s-1.3-2.6-2.4-3.7c-1.1-1.2-2.5-2.2-4.2-3l-5.7-2.8
				c-1.7-0.9-3.4-1.4-5-1.6c-1.6-0.2-3.1-0.1-4.4,0.3c-1.4,0.4-2.6,1.1-3.7,2c-1.1,1-2,2.1-2.7,3.6l-3.7,7.5l27.4,13.7L504.5,851.9z
				 M528,820.2l-30.5-24.1L507,784c2.2-2.7,4.6-4.2,7.3-4.5c2.7-0.2,5.4,0.7,8.1,2.8c2.7,2.1,4.3,4.6,4.7,7.3s-0.5,5.4-2.6,8.2
				l-6.7,8.5l13,10.3L528,820.2z M514.6,803.7l6.7-8.5c1.1-1.5,1.7-2.9,1.5-4.3s-0.9-2.6-2.3-3.8l-2.3-1.8c-1.4-1.1-2.8-1.6-4.2-1.3
				c-1.4,0.2-2.7,1-3.8,2.5l-6.7,8.5L514.6,803.7z M553,790.7l-3.4,3.2l-26.8-28.1l11.2-10.7c2.5-2.4,5.1-3.5,7.7-3.5
				c2.7,0.1,5.3,1.4,7.7,3.9c2,2.1,3.1,4.2,3.4,6.5c0.3,2.2-0.3,4.5-1.7,6.7l18.3,6.3l-3.8,3.6l-17.6-6.3l-6.6,6.3L553,790.7z
				 M546.5,768.2c1.3-1.3,2.1-2.6,2.1-4c0.1-1.4-0.5-2.7-1.7-4l-2-2.1c-1.2-1.3-2.5-1.9-4-1.9c-1.4,0-2.8,0.7-4.1,1.9l-7.8,7.5
				l9.7,10.2L546.5,768.2z M587.9,762.2c-2.1,1.4-4.2,2.4-6.3,2.8c-2.2,0.4-4.3,0.4-6.4-0.2c-2.1-0.6-4.2-1.7-6.3-3.3
				s-4-3.7-5.9-6.4s-3.2-5.3-4-7.7c-0.8-2.5-1.1-4.8-0.9-7.1c0.2-2.2,0.9-4.3,2-6.1c1.2-1.9,2.8-3.5,4.8-5c2-1.4,4.1-2.4,6.3-2.8
				c2.2-0.5,4.3-0.4,6.5,0.2c2.1,0.6,4.3,1.7,6.3,3.3c2.1,1.6,4,3.7,5.9,6.4s3.2,5.3,4,7.8s1.1,4.9,0.9,7.1
				c-0.2,2.2-0.9,4.2-2.1,6.1C591.6,759.1,590,760.7,587.9,762.2z M585.6,758.8c1.4-1,2.5-2.1,3.3-3.4c0.8-1.3,1.3-2.7,1.5-4.2
				s0.1-3.1-0.4-4.7c-0.4-1.6-1.2-3.2-2.3-4.8l-3.7-5.3c-1.1-1.6-2.3-2.9-3.7-3.8c-1.4-1-2.8-1.6-4.2-1.9c-1.5-0.3-3-0.3-4.5,0
				s-2.9,1-4.3,1.9c-1.4,1-2.5,2.1-3.3,3.4c-0.8,1.3-1.3,2.7-1.5,4.2s-0.1,3.1,0.4,4.7c0.4,1.6,1.2,3.2,2.3,4.8l3.7,5.3
				c1.1,1.6,2.3,2.9,3.7,3.8c1.4,1,2.8,1.6,4.2,1.9c1.5,0.3,3,0.3,4.5,0S584.2,759.7,585.6,758.8z M591.6,713.1l11.7-5.7
				c2.2-1.1,4.3-1.6,6.4-1.8c2.1-0.1,4.2,0.2,6.1,1.1c2,0.8,3.8,2.2,5.5,4.1c1.7,1.9,3.3,4.2,4.7,7.1c1.4,2.9,2.3,5.6,2.7,8.1
				s0.3,4.8-0.2,6.9c-0.5,2.1-1.5,3.9-2.9,5.5s-3.2,2.9-5.4,4l-11.7,5.7L591.6,713.1z M618.5,738.6c1.4-0.7,2.6-1.6,3.6-2.6
				c1-1.1,1.7-2.3,2.1-3.6c0.4-1.4,0.5-2.8,0.4-4.4c-0.2-1.6-0.7-3.2-1.5-5l-2.8-5.7c-0.8-1.7-1.8-3.2-3-4.3
				c-1.1-1.1-2.4-1.9-3.7-2.4s-2.7-0.7-4.1-0.6c-1.4,0.1-2.9,0.5-4.3,1.2l-7.5,3.7l13.4,27.5L618.5,738.6z M635.6,693.9l7.1,23
				c1.1,3.6,2.6,6,4.4,7.5c1.9,1.4,4.5,1.6,7.8,0.6s5.3-2.6,6.1-4.9c0.8-2.2,0.6-5.1-0.5-8.7l-7.1-23l4.5-1.4l6.7,21.9
				c0.8,2.7,1.3,5.1,1.4,7.2c0.1,2.1-0.1,4-0.8,5.7c-0.7,1.6-1.8,3-3.3,4.2s-3.5,2.1-6,2.9c-2.5,0.8-4.7,1.1-6.5,1
				c-1.9-0.1-3.5-0.7-5-1.7c-1.4-1-2.7-2.4-3.7-4.3c-1.1-1.8-2-4.1-2.8-6.8l-6.7-21.9L635.6,693.9z M693,720.7
				c-4.9,0.7-8.9-0.4-12.1-3.3c-3.2-2.9-5.3-7.6-6.3-14.1s-0.3-11.6,1.9-15.5s5.7-6.2,10.6-6.9c3.2-0.5,6-0.2,8.4,1
				c2.4,1.1,4.4,2.9,6,5.4l-3.4,2.8c-1.1-1.9-2.5-3.3-4.2-4.2c-1.8-1-3.8-1.3-6.2-0.9c-1.7,0.2-3.1,0.8-4.3,1.6s-2.2,1.9-2.9,3.2
				s-1.2,2.8-1.4,4.5s-0.2,3.5,0.1,5.5l0.9,5.7c0.6,4,2,7,4.1,8.9c2.2,2,4.9,2.7,8.3,2.2c2.5-0.4,4.4-1.3,5.9-2.8s2.4-3.4,2.9-5.6
				l4,1.8c-0.8,2.9-2.2,5.3-4.3,7.2C698.9,719,696.3,720.2,693,720.7z M726.7,682.8l0.6,34.7l-4.7,0.1l-0.6-34.7l-12.4,0.2l-0.1-4.1
				l29.4-0.5l0.1,4.1L726.7,682.8z"/>
		</g>
		<g>
			<defs>
				<rect id="SVGID_3_" width="960" height="1080"/>
			</defs>
			<clipPath id="SVGID_4_">
				<use xlink:href="#SVGID_3_"  style="overflow:visible;"/>
			</clipPath>
			<path class="st1" d="M132.9,879c-3.6-0.5-6.1-2.2-7.7-4.9s-2.1-6.4-1.3-11.1c0.7-4.7,2.3-8.2,4.6-10.4c2.4-2.2,5.3-3.1,8.9-2.5
				c2.3,0.4,4.2,1.2,5.7,2.5c1.4,1.3,2.4,3,3,5.1l-3,1.2c-0.3-1.5-1-2.8-2-3.9c-1-1-2.4-1.7-4.1-2c-1.2-0.2-2.3-0.1-3.3,0.2
				s-1.9,0.8-2.7,1.6c-0.8,0.7-1.4,1.7-2,2.8c-0.5,1.1-0.9,2.4-1.1,3.8l-0.6,4.2c-0.4,2.9-0.1,5.3,1,7.1c1.1,1.8,2.8,2.9,5.3,3.3
				c1.8,0.3,3.4,0,4.7-0.7s2.4-1.8,3.2-3.3l2.4,2.1c-1.2,1.8-2.7,3.2-4.5,4.1C137.3,879.1,135.2,879.3,132.9,879z M157.5,884.7
				c-1.8-0.5-3.2-1.3-4.5-2.4c-1.2-1-2.1-2.3-2.8-3.8c-0.6-1.5-0.9-3.2-0.9-5.1c0-1.9,0.3-4,1.1-6.3c0.7-2.3,1.6-4.2,2.7-5.7
				c1.1-1.6,2.3-2.8,3.7-3.7s2.8-1.4,4.4-1.6c1.6-0.2,3.3,0,5,0.6c1.7,0.5,3.2,1.3,4.4,2.4c1.2,1,2.2,2.3,2.8,3.8s0.9,3.2,0.9,5.1
				s-0.3,4-1,6.3s-1.6,4.2-2.7,5.8c-1.1,1.6-2.3,2.8-3.7,3.7s-2.8,1.4-4.4,1.5S159.3,885.3,157.5,884.7z M158.4,881.9
				c1.2,0.4,2.3,0.5,3.4,0.4c1.1-0.1,2.1-0.4,3.1-1s1.8-1.3,2.5-2.3s1.3-2.1,1.7-3.5l1.4-4.5c0.4-1.3,0.6-2.6,0.6-3.8
				s-0.3-2.3-0.8-3.3s-1.1-1.9-2-2.6c-0.9-0.7-1.9-1.3-3-1.6c-1.2-0.4-2.3-0.5-3.4-0.4c-1.1,0.1-2.1,0.4-3.1,1s-1.8,1.3-2.5,2.3
				s-1.3,2.1-1.7,3.5l-1.4,4.5c-0.4,1.3-0.6,2.6-0.6,3.8s0.3,2.3,0.8,3.3s1.1,1.9,2,2.6C156.3,881,157.3,881.5,158.4,881.9z
				 M205.4,879l-0.2-0.1l-4.3,3.1l-11.7,7.9l-0.4-14.1v-5.3l-0.2-0.1l-10.9,21.2l-3-1.5l12.9-25.2l4,2.1l0.2,17.3l0.2,0.1l14.2-9.8
				l3.9,2l-12.9,25.2l-3-1.5L205.4,879z M202.8,905.5l1.6-2.3l3.2,2.3l13-18.5l-3.2-2.3l1.6-2.3l9.3,6.5l-1.6,2.3l-3.2-2.3l-13,18.5
				l3.2,2.3l-1.6,2.3L202.8,905.5z M234.1,907.8l1.7-6.9l-0.1-0.1l-15.9,17.4l-2.5-2.2l19.1-20.9l2.9,2.7l-4,19.7l-1.7,6.9l0.1,0.1
				l15.9-17.4l2.5,2.2L233,930.2l-2.9-2.7L234.1,907.8z M252.8,947.6L252.8,947.6c-1.3,0.4-2.7,0.5-4.2-0.1c-1.5-0.5-3-1.6-4.3-3.3
				c-1.1-1.4-1.8-2.8-2.2-4.3s-0.4-3.1-0.1-4.6c0.3-1.6,1-3.1,2.1-4.7c1.1-1.6,2.5-3.1,4.4-4.6c1.8-1.5,3.7-2.5,5.4-3.2
				c1.8-0.7,3.5-1,5.1-0.9s3.1,0.5,4.6,1.2c1.4,0.8,2.7,1.9,3.8,3.3c1.6,2,2.5,4,2.6,6c0.2,2-0.2,4-1.1,5.9l-3.1-1.1
				c0.8-1.4,1.1-2.9,1-4.5c-0.1-1.5-0.7-3-1.8-4.4c-0.8-1-1.7-1.7-2.6-2.3c-1-0.5-2-0.8-3.1-0.9c-1.1-0.1-2.2,0.1-3.4,0.5
				c-1.1,0.4-2.3,1-3.4,1.9l-3.6,2.9c-1.1,0.9-2,1.8-2.6,2.9c-0.7,1-1.1,2.1-1.2,3.2c-0.2,1.1-0.1,2.2,0.2,3.3s0.9,2.2,1.7,3.3
				c0.6,0.8,1.3,1.4,2,1.9s1.5,0.9,2.3,1.1c0.8,0.2,1.6,0.2,2.5,0c0.8-0.2,1.7-0.6,2.5-1.3l2.2-1.7l-3.9-4.9l2.4-1.9l5.9,7.5
				l-11.4,9l-2-2.5L252.8,947.6z M263.7,974.7c-1-2.1-1.5-4-1.5-5.8s0.5-3.6,1.4-5.3l3,1.3c-0.7,1.5-1.1,2.9-1.2,4.3
				c-0.1,1.4,0.3,2.8,1,4.3c0.9,1.8,2,3,3.4,3.5c1.3,0.5,2.7,0.4,4.2-0.3c1.2-0.6,2-1.4,2.2-2.5c0.3-1.1,0.2-2.5-0.2-4.4l-0.6-2.3
				c-0.6-2.6-0.7-4.8-0.3-6.5c0.5-1.8,1.7-3.1,3.6-4.1c1.1-0.6,2.2-0.9,3.3-0.9c1.1,0,2.1,0.2,3,0.6c1,0.4,1.8,1.1,2.7,2
				c0.8,0.9,1.5,1.9,2.2,3.2c1,1.9,1.4,3.7,1.4,5.4s-0.5,3.4-1.3,5l-2.8-1.4c0.6-1.2,0.9-2.4,1-3.7s-0.3-2.6-1-4.1
				c-0.8-1.6-1.8-2.7-3-3.3s-2.4-0.5-3.8,0.2c-1.2,0.6-1.9,1.5-2.1,2.6s-0.1,2.5,0.3,4.3l0.6,2.3c0.7,2.8,0.8,5,0.2,6.7
				c-0.6,1.7-1.8,3-3.7,3.9c-1.2,0.6-2.3,0.9-3.5,1c-1.1,0.1-2.2-0.1-3.3-0.5c-1-0.4-2-1.1-2.9-2
				C265.2,977.2,264.4,976.1,263.7,974.7z M273.8,999c-0.6-1.7-0.8-3.4-0.6-5c0.1-1.6,0.6-3.1,1.5-4.5c0.8-1.4,2-2.6,3.6-3.7
				c1.6-1.1,3.5-2,5.7-2.8c2.3-0.7,4.3-1.1,6.2-1.2c1.9,0,3.6,0.3,5.1,0.9c1.5,0.6,2.8,1.5,3.9,2.7s1.9,2.7,2.5,4.4s0.8,3.4,0.6,5
				c-0.1,1.6-0.6,3.1-1.5,4.5s-2.1,2.6-3.6,3.7c-1.5,1.1-3.4,2-5.7,2.8c-2.3,0.7-4.3,1.1-6.3,1.2c-1.9,0-3.6-0.3-5.1-0.9
				c-1.5-0.6-2.8-1.5-3.8-2.7S274.4,1000.7,273.8,999z M276.6,998.1c0.4,1.2,0.9,2.2,1.7,3c0.7,0.8,1.6,1.5,2.6,1.9
				c1,0.5,2.1,0.7,3.3,0.7c1.2,0,2.5-0.2,3.8-0.6l4.5-1.5c1.3-0.4,2.5-1,3.4-1.8c1-0.7,1.7-1.6,2.2-2.6s0.9-2,0.9-3.1
				c0.1-1.1-0.1-2.2-0.4-3.4c-0.4-1.2-0.9-2.2-1.7-3c-0.7-0.8-1.6-1.5-2.6-1.9c-1-0.5-2.1-0.7-3.3-0.7c-1.2,0-2.5,0.2-3.8,0.6
				l-4.5,1.5c-1.3,0.4-2.5,1-3.4,1.8c-1,0.7-1.7,1.6-2.2,2.6s-0.9,2-0.9,3.1C276.1,995.8,276.3,996.9,276.6,998.1z M280.5,1026.9
				c-0.3-1.8-0.2-3.5,0.2-5.1c0.4-1.6,1.1-2.9,2.2-4.2c1.1-1.2,2.4-2.2,4.2-3.1c1.7-0.8,3.7-1.4,6.1-1.8c2.3-0.4,4.5-0.4,6.3-0.1
				c1.9,0.3,3.5,0.8,4.9,1.7c1.4,0.8,2.5,1.9,3.4,3.3c0.9,1.4,1.4,2.9,1.7,4.8c0.3,1.8,0.2,3.5-0.2,5s-1.1,3-2.2,4.2
				s-2.5,2.3-4.2,3.1c-1.7,0.8-3.7,1.4-6.1,1.8c-2.3,0.4-4.5,0.4-6.4,0.1s-3.5-0.8-4.9-1.7c-1.4-0.8-2.5-1.9-3.3-3.3
				C281.4,1030.3,280.8,1028.7,280.5,1026.9z M283.5,1026.4c0.2,1.2,0.6,2.3,1.2,3.2c0.6,0.9,1.3,1.7,2.3,2.3c0.9,0.6,2,1,3.2,1.3
				c1.2,0.2,2.5,0.2,3.9,0l4.7-0.7c1.4-0.2,2.6-0.6,3.7-1.2s1.9-1.3,2.6-2.2c0.7-0.9,1.2-1.8,1.4-2.9c0.3-1.1,0.3-2.2,0.1-3.4
				c-0.2-1.2-0.6-2.3-1.2-3.2s-1.3-1.7-2.3-2.3s-2-1-3.2-1.2s-2.5-0.2-3.9,0l-4.7,0.7c-1.4,0.2-2.6,0.6-3.7,1.2
				c-1.1,0.6-1.9,1.3-2.6,2.2s-1.2,1.8-1.4,2.9C283.3,1024.1,283.3,1025.2,283.5,1026.4z M300.5,1052l6.3-3.3v-0.1l-23.5-0.4
				l0.1-3.3l28.3,0.5l-0.1,3.9l-17.4,10.1l-6.3,3.3v0.1l23.5,0.4l-0.1,3.3L283,1066l0.1-3.9L300.5,1052z M277.2,1101.4l8.8-1
				l2.5-11.2l-7.5-4.6l0.7-3.4l25.5,15.7l-0.9,4.2l-29.8,3.6L277.2,1101.4z M303.5,1098.5v-0.2l-12.4-7.6l-2.1,9.5L303.5,1098.5z
				 M272.3,1127.5L272.3,1127.5c-1.1-0.9-1.8-2.1-2.1-3.7c-0.3-1.6-0.1-3.4,0.7-5.4c0.6-1.6,1.5-3,2.6-4.1s2.4-1.9,3.9-2.5
				c1.5-0.5,3.2-0.7,5.1-0.6s4,0.6,6.2,1.4s4,1.9,5.5,3c1.5,1.2,2.6,2.5,3.4,3.9s1.2,2.9,1.3,4.6c0.1,1.6-0.2,3.3-0.9,5
				c-0.9,2.4-2.2,4.2-3.9,5.3s-3.5,1.9-5.6,2.1l-0.6-3.2c1.6-0.1,3.1-0.5,4.4-1.4s2.2-2.2,2.9-3.8c0.4-1.2,0.6-2.3,0.6-3.4
				s-0.3-2.2-0.8-3.2s-1.2-1.9-2.1-2.7c-0.9-0.8-2-1.4-3.4-1.9l-4.3-1.6c-1.3-0.5-2.6-0.8-3.8-0.8s-2.3,0.1-3.4,0.6
				c-1,0.4-1.9,1-2.7,1.9c-0.8,0.8-1.5,1.9-1.9,3.2c-0.3,0.9-0.6,1.8-0.6,2.7c-0.1,0.9,0,1.8,0.3,2.6c0.2,0.8,0.7,1.5,1.2,2.1
				c0.6,0.6,1.4,1.1,2.4,1.5l2.6,1l2.2-5.8l2.8,1.1l-3.4,8.9l-13.6-5.2l1.1-3L272.3,1127.5z M264.2,1135.2l24.6,13.9l-8.5,15
				l-2.6-1.5l6.8-12.1l-8.3-4.7l-6.4,11.4l-2.6-1.5l6.4-11.4l-8.5-4.8l-6.8,12.1l-2.6-1.5L264.2,1135.2z M261.5,1171.8l7.1,1.2
				l0.1-0.1l-18.6-14.5l2-2.6l22.3,17.4l-2.4,3.1l-20-2.4l-7.1-1.2l-0.1,0.1l18.6,14.5l-2,2.6l-22.3-17.4l2.4-3.1L261.5,1171.8z
				 M226.2,1184.6c2.6-2.5,5.5-3.5,8.6-3.1s6.3,2.3,9.6,5.8s5.1,6.8,5.4,10c0.3,3.2-0.8,6.1-3.5,8.6c-1.7,1.6-3.5,2.6-5.4,2.9
				s-3.9,0.1-5.9-0.7l0.9-3.1c1.4,0.7,2.8,0.9,4.3,0.8c1.4-0.2,2.8-0.8,4.1-2.1c0.9-0.8,1.5-1.8,1.9-2.7c0.4-1,0.5-2,0.4-3.1
				s-0.4-2.2-1-3.3c-0.6-1.1-1.3-2.2-2.3-3.2l-2.9-3.1c-2-2.1-4.1-3.3-6.2-3.6s-4.1,0.4-5.9,2.1c-1.3,1.2-2.1,2.6-2.3,4.1
				s0,3,0.6,4.5l-3.1,0.6c-0.7-2.1-0.9-4.1-0.4-6.1C223.4,1188,224.5,1186.2,226.2,1184.6z M209.8,1198.8l6.5,9.1l17.9,8.3l-3.2,2.3
				l-14.1-6.7l-0.1,0.1l1.8,15.5l-3.2,2.3l-1.9-19.5l-6.6-9.2L209.8,1198.8z M185.9,1213.7l11.7,25.8l-10.3,4.6
				c-2.3,1-4.4,1.2-6.2,0.4c-1.8-0.8-3.3-2.3-4.3-4.6c-1-2.3-1.2-4.4-0.6-6.3c0.6-1.9,2.1-3.3,4.4-4.4l7.2-3.2l-5-11L185.9,1213.7z
				 M189,1228.9l-7.2,3.2c-1.2,0.6-2,1.3-2.4,2.3c-0.4,0.9-0.3,2,0.2,3.2l0.9,1.9c0.5,1.2,1.3,1.9,2.3,2.3c1,0.3,2.1,0.2,3.3-0.3
				l7.2-3.2L189,1228.9z M152.9,1225.9c1.8-0.5,3.4-0.6,5-0.4s3,0.8,4.4,1.7s2.5,2.2,3.6,3.8c1,1.6,1.9,3.5,2.5,5.8s0.9,4.4,0.9,6.3
				c-0.1,1.9-0.4,3.6-1.1,5.1c-0.7,1.5-1.6,2.7-2.9,3.7c-1.2,1-2.8,1.8-4.5,2.3s-3.4,0.6-5,0.4s-3.1-0.8-4.4-1.7
				c-1.3-0.9-2.5-2.2-3.6-3.8c-1-1.6-1.9-3.5-2.5-5.8s-0.9-4.4-0.9-6.3c0.1-1.9,0.4-3.6,1.1-5.1c0.7-1.5,1.6-2.7,2.9-3.7
				C149.6,1227.2,151.1,1226.4,152.9,1225.9z M153.7,1228.8c-1.2,0.3-2.2,0.8-3.1,1.5c-0.9,0.7-1.6,1.5-2.1,2.5s-0.8,2.1-0.9,3.3
				c-0.1,1.2,0.1,2.5,0.4,3.8l1.3,4.5c0.4,1.4,0.9,2.5,1.6,3.5c0.7,1,1.5,1.8,2.4,2.4s2,0.9,3.1,1.1c1.1,0.1,2.2,0,3.4-0.3
				s2.2-0.8,3.1-1.5c0.9-0.7,1.6-1.5,2.1-2.5s0.8-2.1,0.9-3.3c0.1-1.2-0.1-2.5-0.4-3.8l-1.3-4.5c-0.4-1.4-0.9-2.5-1.6-3.5
				c-0.7-1-1.5-1.8-2.4-2.4s-2-0.9-3.1-1.1C156,1228.4,154.8,1228.5,153.7,1228.8z M131.8,1231.1l3.4-0.4l3.3,28.1l-11.2,1.3
				c-2.5,0.3-4.5-0.2-6-1.4c-1.5-1.2-2.5-3.1-2.8-5.7c-0.2-2.1,0-3.8,0.8-5.3c0.8-1.4,2.1-2.5,3.9-3.1l-7.9-11.6l3.8-0.5l7.5,11.4
				l6.6-0.8L131.8,1231.1z M125.8,1247c-1.3,0.2-2.3,0.6-3,1.4s-0.9,1.8-0.8,3.1l0.3,2.1c0.2,1.3,0.6,2.2,1.5,2.8
				c0.8,0.6,1.9,0.8,3.2,0.7l7.8-0.9l-1.2-10.1L125.8,1247z M100.2,1258.2l0.4-25.3l3.4,0.1l-0.4,25.3l9,0.1v3l-21.4-0.3v-3
				L100.2,1258.2z M86.5,1232.2l-4,28l-16.7-2.4l0.4-3l13.3,1.9l1.4-9.4l-12.2-1.8l0.4-3l12.2,1.8l1.8-12.7L86.5,1232.2z
				 M54.5,1225.3c1.8,0.5,3.3,1.3,4.5,2.3s2.2,2.3,2.8,3.7c0.7,1.5,1,3.2,1,5.1s-0.3,4-1,6.3s-1.5,4.2-2.6,5.8
				c-1.1,1.6-2.3,2.8-3.6,3.7c-1.3,0.9-2.8,1.4-4.4,1.6c-1.6,0.2-3.3,0-5-0.5s-3.2-1.3-4.5-2.3c-1.2-1-2.2-2.3-2.8-3.8s-1-3.2-1-5.1
				s0.3-4,1-6.3s1.5-4.2,2.6-5.8c1.1-1.6,2.3-2.8,3.6-3.7c1.3-0.9,2.8-1.4,4.4-1.6S52.8,1224.8,54.5,1225.3z M53.7,1228.2
				c-1.2-0.3-2.3-0.5-3.4-0.3s-2.1,0.5-3.1,1c-0.9,0.6-1.8,1.3-2.5,2.3s-1.3,2.1-1.7,3.5l-1.3,4.5c-0.4,1.4-0.6,2.6-0.5,3.8
				c0.1,1.2,0.3,2.3,0.8,3.3s1.2,1.8,2,2.5c0.9,0.7,1.9,1.2,3,1.6c1.2,0.3,2.3,0.5,3.4,0.3s2.1-0.5,3.1-1c0.9-0.6,1.8-1.3,2.5-2.3
				s1.3-2.1,1.7-3.5l1.3-4.5c0.4-1.4,0.6-2.6,0.5-3.8c-0.1-1.2-0.3-2.3-0.8-3.3s-1.2-1.8-2-2.5S54.9,1228.5,53.7,1228.2z M37,1219.8
				l-11.7,25.8l-3.1-1.4l10.4-23l-11-5l1.2-2.7L37,1219.8z M19.5,1211.4l-1.4,2.4l-3.4-2l-11.5,19.5l3.4,2l-1.4,2.4l-9.8-5.7
				l1.4-2.4l3.4,2l11.5-19.5l-3.4-2l1.4-2.4L19.5,1211.4z M-4,1195.4c1.5,1.1,2.6,2.4,3.3,3.8c0.8,1.4,1.2,2.9,1.3,4.5
				c0.1,1.6-0.2,3.3-0.9,5.1c-0.7,1.8-1.7,3.6-3.2,5.5s-3,3.4-4.5,4.4c-1.6,1.1-3.1,1.8-4.7,2.1c-1.6,0.3-3.2,0.3-4.7-0.1
				c-1.6-0.4-3.1-1.2-4.5-2.3c-1.4-1.1-2.5-2.4-3.3-3.8s-1.2-2.9-1.3-4.5c-0.1-1.6,0.2-3.3,0.9-5.1c0.7-1.8,1.7-3.6,3.2-5.5
				s3-3.4,4.5-4.5c1.6-1.1,3.1-1.8,4.7-2.1c1.6-0.3,3.1-0.3,4.7,0.1C-6.9,1193.5-5.4,1194.3-4,1195.4z M-5.8,1197.7
				c-1-0.7-2-1.3-3.1-1.5c-1.1-0.3-2.2-0.3-3.2-0.1c-1.1,0.2-2.1,0.6-3.2,1.3c-1,0.7-2,1.5-2.8,2.7l-2.9,3.7
				c-0.9,1.1-1.5,2.2-1.9,3.4c-0.4,1.1-0.5,2.3-0.4,3.4s0.4,2.1,1,3.1c0.5,1,1.3,1.8,2.3,2.6s2,1.3,3.1,1.5c1.1,0.3,2.2,0.3,3.2,0.1
				c1.1-0.2,2.1-0.6,3.2-1.3c1-0.7,2-1.5,2.8-2.7l2.9-3.7c0.9-1.1,1.5-2.2,1.9-3.4c0.4-1.1,0.5-2.3,0.4-3.4s-0.4-2.1-1-3.1
				C-4.1,1199.3-4.9,1198.5-5.8,1197.7z M-43.3,1182.5l-2.7,6.6l0.1,0.1l18.1-15.1l2.1,2.6l-21.8,18.1l-2.5-3l6.7-19l2.7-6.6
				l-0.1-0.1l-18.1,15.1l-2.1-2.6l21.8-18.1l2.5,3L-43.3,1182.5z M-43.5,1154.1l-24.2,14.7l-9-14.8l2.6-1.6l7.2,11.8l8.1-4.9
				l-6.8-11.2l2.6-1.6l6.8,11.2l8.4-5.1l-7.2-11.8l2.6-1.6L-43.5,1154.1z M-57.2,1130l-23.8,16.8l-1.3-3.4l11.5-7.9l9-6.1v-0.1
				l-10.8,1.5l-14,1.7l-1.4-3.6l11.4-8.2l8.8-6.3v-0.1l-10.7,1.6l-13.8,2l-1.3-3.2l29-3.7l1.4,3.5l-11.8,8.6l-8.7,6.2v0.1l10.6-1.3
				l14.5-1.7L-57.2,1130z M-98.4,1093.6l-1.7-11.5c-0.3-2.3,0.1-4.2,1.2-5.8c1.1-1.5,2.8-2.4,5-2.7c1-0.1,1.9-0.1,2.7,0.1
				c0.8,0.2,1.4,0.5,1.9,0.9s1,0.8,1.3,1.3s0.5,1,0.7,1.4h0.2c0-0.5,0-1.1,0.2-1.8c0.2-0.7,0.4-1.3,0.9-1.9c0.4-0.6,1-1.2,1.8-1.7
				s1.7-0.8,2.9-1c1.2-0.2,2.2-0.1,3.3,0.1c1,0.2,2,0.6,2.8,1.1s1.5,1.2,2,2s0.9,1.8,1,2.8l1.8,12.7L-98.4,1093.6z M-86.8,1088.5
				l-1.1-7.7c-0.2-1.3-0.7-2.3-1.5-3s-1.8-0.9-3.1-0.7l-1.4,0.2c-1.3,0.2-2.2,0.7-2.7,1.5c-0.6,0.8-0.7,1.9-0.6,3.3l1.1,7.7
				L-86.8,1088.5z M-73.9,1086.6l-1.2-8.3c-0.2-1.4-0.7-2.5-1.6-3.3c-0.9-0.7-2-1-3.4-0.8l-1.4,0.2c-1.4,0.2-2.4,0.8-3.1,1.7
				c-0.6,0.9-0.8,2.1-0.6,3.6l1.2,8.3L-73.9,1086.6z M-73.7,1059.7l-0.1,3.4l-28.3-0.5l0.2-11.3c0-2.5,0.8-4.4,2.2-5.8
				c1.4-1.4,3.4-2,6-2c2.1,0,3.8,0.5,5.1,1.5c1.3,1,2.2,2.4,2.6,4.3l12.6-6.3l-0.1,3.8l-12.3,5.9l-0.1,6.6L-73.7,1059.7z
				 M-88.6,1051.6c0-1.4-0.3-2.4-1-3.2c-0.7-0.8-1.7-1.1-3-1.2h-2.1c-1.3,0-2.3,0.3-3,1.1c-0.7,0.7-1.1,1.8-1.1,3.1l-0.1,7.9
				l10.2,0.2L-88.6,1051.6z M-70.3,1019.4l-8.7,1.6l-1.7,11.3l7.8,4l-0.5,3.4l-26.5-14l0.6-4.3l29.5-5.6L-70.3,1019.4z
				 M-96.4,1024.1v0.2l12.9,6.8l1.5-9.7L-96.4,1024.1z M-83,999.4l-7,1.4v0.1l22.5,7.1l-1,3.2l-27-8.5l1.2-3.8l19.6-4.7l7-1.4v-0.1
				l-22.5-7.1l1-3.2l27,8.5l-1.2,3.8L-83,999.4z M-84.6,971.2l4.2-8.5c0.8-1.6,1.8-2.9,2.9-3.9c1.2-1,2.5-1.7,4-2.1
				c1.5-0.4,3.2-0.4,5-0.1c1.8,0.3,3.8,1,5.9,2s3.8,2.2,5.2,3.5c1.3,1.3,2.3,2.6,2.9,4.1c0.6,1.4,0.8,2.9,0.7,4.5
				c-0.1,1.5-0.6,3.1-1.3,4.7l-4.2,8.5L-84.6,971.2z M-57.7,974c0.5-1,0.8-2.1,0.9-3.1c0.1-1-0.1-2-0.4-3c-0.4-1-0.9-1.9-1.8-2.7
				c-0.8-0.8-1.8-1.6-3.1-2.2l-4.1-2.1c-1.3-0.6-2.5-1-3.6-1.1c-1.2-0.1-2.2-0.1-3.2,0.2s-1.9,0.8-2.7,1.5c-0.8,0.7-1.4,1.6-2,2.6
				l-2.7,5.4l19.9,10L-57.7,974z M-40.6,951l-22.2-17.5l7-8.8c1.6-2,3.3-3.1,5.3-3.3s4,0.5,5.9,2.1c2,1.6,3.1,3.3,3.4,5.3
				c0.3,2-0.4,3.9-1.9,5.9l-4.9,6.2l9.5,7.5L-40.6,951z M-50.4,939l4.9-6.2c0.8-1.1,1.2-2.1,1.1-3.1s-0.6-1.9-1.7-2.7l-1.7-1.3
				c-1-0.8-2-1.1-3-1s-1.9,0.8-2.8,1.8l-4.9,6.2L-50.4,939z M-22.4,929.5l-2.5,2.3l-19.5-20.5l8.2-7.8c1.8-1.7,3.7-2.6,5.6-2.5
				c2,0,3.8,1,5.6,2.9c1.4,1.5,2.3,3.1,2.5,4.7c0.2,1.6-0.2,3.2-1.2,4.8l13.3,4.6l-2.8,2.7l-12.8-4.6l-4.8,4.6L-22.4,929.5z
				 M-27.1,913.1c1-0.9,1.5-1.9,1.5-2.9c0.1-1-0.4-2-1.3-2.9l-1.5-1.5c-0.9-0.9-1.9-1.4-2.9-1.4s-2,0.5-3,1.4l-5.7,5.4l7,7.4
				L-27.1,913.1z M3,908.7c-1.5,1.1-3,1.7-4.6,2.1c-1.6,0.3-3.1,0.3-4.7-0.1c-1.6-0.4-3.1-1.2-4.6-2.4s-2.9-2.7-4.3-4.7
				s-2.3-3.8-2.9-5.6s-0.8-3.5-0.6-5.1c0.1-1.6,0.6-3.1,1.5-4.5c0.8-1.4,2-2.6,3.5-3.6s3-1.7,4.6-2.1c1.6-0.3,3.2-0.3,4.7,0.1
				c1.6,0.4,3.1,1.2,4.6,2.4s2.9,2.7,4.3,4.7c1.4,1.9,2.3,3.8,2.9,5.7c0.6,1.8,0.8,3.5,0.6,5.1c-0.1,1.6-0.7,3.1-1.5,4.5
				C5.7,906.5,4.5,907.7,3,908.7z M1.3,906.3c1-0.7,1.8-1.5,2.4-2.5c0.6-0.9,1-2,1.1-3.1s0.1-2.2-0.3-3.4c-0.3-1.2-0.9-2.3-1.7-3.5
				L0.1,890c-0.8-1.2-1.7-2.1-2.7-2.8s-2-1.2-3.1-1.4s-2.2-0.2-3.2,0c-1.1,0.2-2.1,0.7-3.1,1.4s-1.8,1.5-2.4,2.5
				c-0.6,0.9-1,2-1.1,3.1s-0.1,2.2,0.3,3.4c0.3,1.2,0.9,2.3,1.7,3.5l2.7,3.9c0.8,1.2,1.7,2.1,2.7,2.8s2,1.2,3.1,1.4s2.2,0.2,3.2,0
				C-0.7,907.4,0.3,907,1.3,906.3z M5.7,873l8.5-4.1c1.6-0.8,3.1-1.2,4.7-1.3c1.5-0.1,3,0.2,4.5,0.8s2.8,1.6,4,3
				c1.3,1.4,2.4,3.1,3.4,5.2c1,2.1,1.7,4.1,2,5.9c0.3,1.8,0.2,3.5-0.2,5s-1.1,2.8-2.1,4s-2.3,2.1-3.9,2.9l-8.5,4.1L5.7,873z
				 M25.3,891.6c1-0.5,1.9-1.2,2.6-1.9c0.7-0.8,1.2-1.7,1.5-2.6c0.3-1,0.4-2.1,0.3-3.2c-0.1-1.2-0.5-2.4-1.1-3.6l-2-4.2
				c-0.6-1.3-1.3-2.3-2.2-3.1c-0.8-0.8-1.7-1.4-2.7-1.8c-1-0.4-2-0.5-3-0.5c-1,0.1-2.1,0.4-3.1,0.9l-5.5,2.7l9.7,20.1L25.3,891.6z
				 M37.7,859l5.1,16.8c0.8,2.6,1.9,4.4,3.2,5.4c1.4,1,3.2,1.2,5.7,0.5c2.4-0.7,3.9-1.9,4.4-3.5s0.4-3.7-0.4-6.3l-5-16.9l3.3-1
				l4.9,16c0.6,2,0.9,3.7,1,5.3s-0.1,2.9-0.6,4.1c-0.5,1.2-1.3,2.2-2.4,3.1c-1.1,0.8-2.6,1.6-4.4,2.1c-1.8,0.6-3.4,0.8-4.8,0.7
				c-1.4-0.1-2.6-0.5-3.6-1.2s-1.9-1.8-2.7-3.1s-1.5-3-2.1-5l-4.9-16L37.7,859z M79.5,878.5c-3.6,0.5-6.5-0.3-8.8-2.4
				c-2.3-2.1-3.9-5.5-4.6-10.2s-0.2-8.5,1.4-11.3s4.2-4.5,7.7-5c2.4-0.4,4.4-0.1,6.1,0.7s3.2,2.1,4.4,4l-2.5,2
				c-0.8-1.4-1.8-2.4-3.1-3.1c-1.3-0.7-2.8-0.9-4.5-0.7c-1.2,0.2-2.2,0.6-3.1,1.2c-0.9,0.6-1.6,1.4-2.1,2.3c-0.5,0.9-0.9,2-1.1,3.2
				s-0.2,2.6,0.1,4l0.6,4.2c0.4,2.9,1.4,5.1,3,6.5s3.6,2,6,1.6c1.8-0.3,3.2-1,4.3-2.1c1.1-1.1,1.8-2.5,2.1-4.1l2.9,1.3
				c-0.6,2.1-1.6,3.8-3.1,5.2C83.8,877.3,81.9,878.2,79.5,878.5z M104,851l0.4,25.3l-3.4,0.1l-0.4-25.3l-9,0.1v-3l21.4-0.3v3
				L104,851z"/>
		</g>
		<g>
			<defs>
				<rect id="SVGID_5_" width="960" height="1080"/>
			</defs>
			<clipPath id="SVGID_6_">
				<use xlink:href="#SVGID_5_"  style="overflow:visible;"/>
			</clipPath>
			<path class="st2" d="M752.4,808.1c-3.1-0.5-5.4-1.9-6.8-4.3c-1.4-2.4-1.8-5.7-1.2-9.8s2-7.2,4.1-9.1c2.1-2,4.7-2.7,7.8-2.2
				c2.1,0.3,3.7,1,5,2.2c1.3,1.1,2.1,2.6,2.7,4.5l-2.6,1.1c-0.3-1.3-0.9-2.5-1.8-3.4c-0.9-0.9-2.1-1.5-3.6-1.7
				c-1.1-0.2-2-0.1-2.9,0.2s-1.7,0.7-2.4,1.4s-1.3,1.5-1.7,2.5c-0.5,1-0.8,2.1-1,3.4l-0.6,3.7c-0.4,2.5-0.1,4.6,0.9,6.2
				s2.5,2.6,4.6,2.9c1.6,0.2,3,0,4.1-0.6c1.2-0.6,2.1-1.6,2.8-2.9l2.1,1.8c-1,1.6-2.4,2.8-4,3.6
				C756.3,808.2,754.5,808.4,752.4,808.1z M774.1,813.1c-1.5-0.5-2.9-1.2-3.9-2.1c-1.1-0.9-1.9-2-2.4-3.3c-0.6-1.3-0.8-2.8-0.8-4.5
				s0.3-3.5,0.9-5.5c0.6-2,1.4-3.7,2.4-5.1c0.9-1.4,2-2.4,3.2-3.2s2.5-1.2,3.9-1.4c1.4-0.1,2.9,0,4.4,0.5s2.8,1.2,3.9,2.1
				c1.1,0.9,1.9,2,2.4,3.4c0.5,1.3,0.8,2.8,0.8,4.5s-0.3,3.5-0.9,5.5c-0.6,2-1.4,3.7-2.4,5.1c-1,1.4-2,2.5-3.2,3.2
				c-1.2,0.8-2.5,1.2-3.9,1.4C777.1,813.8,775.7,813.6,774.1,813.1z M774.9,810.6c1,0.3,2,0.4,3,0.3c1-0.1,1.9-0.4,2.7-0.9
				s1.6-1.2,2.2-2c0.6-0.9,1.1-1.9,1.5-3.1l1.2-4c0.4-1.2,0.5-2.3,0.5-3.4c0-1.1-0.3-2-0.7-2.9s-1-1.6-1.7-2.3s-1.6-1.1-2.7-1.4
				c-1-0.3-2-0.4-3-0.3c-1,0.1-1.9,0.4-2.7,0.9s-1.6,1.2-2.2,2c-0.6,0.9-1.1,1.9-1.5,3.1l-1.2,4c-0.4,1.2-0.5,2.3-0.5,3.4
				c0,1.1,0.3,2,0.7,2.9s1,1.6,1.7,2.3S773.9,810.3,774.9,810.6z M816.2,808.1L816,808l-3.8,2.7l-10.2,6.9l-0.3-12.4v-4.7l-0.2-0.1
				l-9.6,18.6l-2.6-1.3l11.4-22.1l3.6,1.8l0.2,15.2l0.2,0.1l12.5-8.6l3.4,1.8L809.2,828l-2.6-1.3L816.2,808.1z M813.9,831.4l1.4-2
				l2.9,2l11.5-16.3l-2.9-2l1.4-2l8.2,5.8l-1.4,2l-2.9-2l-11.5,16.3l2.9,2l-1.4,2L813.9,831.4z M841.5,833.4l1.5-6.1l-0.1-0.1
				l-14,15.3l-2.2-2l16.8-18.4l2.6,2.3l-3.5,17.3L841,848l0.1,0.1l14-15.3l2.2,2l-16.8,18.4l-2.6-2.3L841.5,833.4z M857.9,868.5
				L857.9,868.5c-1.2,0.4-2.4,0.4-3.7-0.1s-2.6-1.4-3.8-2.9c-0.9-1.2-1.6-2.5-1.9-3.8c-0.4-1.3-0.4-2.7-0.1-4.1
				c0.3-1.4,0.9-2.8,1.8-4.2c0.9-1.4,2.2-2.7,3.9-4c1.6-1.3,3.2-2.2,4.8-2.8s3.1-0.9,4.5-0.8c1.4,0.1,2.8,0.4,4,1.1
				c1.3,0.7,2.4,1.6,3.4,2.9c1.4,1.8,2.2,3.5,2.3,5.3c0.2,1.8-0.2,3.5-0.9,5.2l-2.7-1c0.7-1.3,1-2.6,0.9-3.9
				c-0.1-1.4-0.6-2.6-1.6-3.9c-0.7-0.9-1.5-1.5-2.3-2c-0.9-0.5-1.8-0.7-2.8-0.8s-2,0.1-3,0.4c-1,0.3-2,0.9-3,1.7l-3.2,2.5
				c-1,0.8-1.7,1.6-2.3,2.5s-0.9,1.8-1.1,2.8s-0.1,1.9,0.2,2.9s0.8,1.9,1.5,2.9c0.5,0.7,1.1,1.2,1.8,1.7s1.3,0.8,2.1,1
				c0.7,0.2,1.4,0.2,2.2,0c0.7-0.2,1.5-0.5,2.2-1.1l1.9-1.5l-3.4-4.3l2.1-1.6l5.2,6.6l-10,8l-1.7-2.2L857.9,868.5z M867.5,892.3
				c-0.9-1.8-1.3-3.5-1.3-5.1s0.5-3.2,1.2-4.7l2.6,1.1c-0.6,1.3-1,2.6-1.1,3.8s0.2,2.5,0.9,3.8c0.8,1.6,1.8,2.6,3,3.1
				s2.4,0.4,3.7-0.3c1.1-0.5,1.7-1.3,2-2.2s0.2-2.2-0.2-3.8l-0.5-2c-0.6-2.3-0.6-4.2-0.2-5.7c0.4-1.5,1.5-2.8,3.2-3.6
				c1-0.5,1.9-0.7,2.9-0.8c0.9,0,1.8,0.2,2.7,0.6c0.8,0.4,1.6,1,2.3,1.7c0.7,0.8,1.4,1.7,1.9,2.8c0.8,1.7,1.3,3.3,1.2,4.8
				c0,1.5-0.4,3-1.2,4.4l-2.5-1.3c0.5-1,0.8-2.1,0.9-3.2c0-1.1-0.3-2.3-0.9-3.6c-0.7-1.4-1.6-2.4-2.6-2.9s-2.1-0.5-3.3,0.1
				c-1.1,0.5-1.7,1.3-1.9,2.2c-0.2,1-0.1,2.2,0.3,3.8l0.5,2c0.6,2.4,0.7,4.4,0.2,5.9s-1.6,2.6-3.2,3.5c-1,0.5-2,0.8-3,0.9
				s-2-0.1-2.9-0.5s-1.8-0.9-2.5-1.7C868.8,894.5,868.1,893.5,867.5,892.3z M876.4,913.7c-0.5-1.5-0.7-3-0.6-4.4
				c0.1-1.4,0.6-2.7,1.3-3.9s1.8-2.3,3.2-3.3s3-1.8,5-2.4c2-0.7,3.8-1,5.5-1s3.2,0.2,4.5,0.8c1.3,0.5,2.5,1.3,3.4,2.4
				c0.9,1.1,1.7,2.4,2.2,3.9s0.7,3,0.6,4.4c-0.1,1.4-0.6,2.7-1.3,3.9c-0.8,1.2-1.8,2.3-3.2,3.3s-3,1.8-5,2.4c-2,0.7-3.8,1-5.5,1
				s-3.2-0.2-4.5-0.8c-1.3-0.5-2.4-1.3-3.4-2.4C877.6,916.5,876.9,915.2,876.4,913.7z M878.9,912.9c0.3,1,0.8,1.9,1.5,2.6
				c0.6,0.7,1.4,1.3,2.3,1.7c0.9,0.4,1.9,0.6,2.9,0.6c1.1,0,2.2-0.2,3.4-0.5l3.9-1.3c1.2-0.4,2.2-0.9,3-1.6c0.8-0.7,1.5-1.4,2-2.2
				s0.8-1.8,0.8-2.7s0-2-0.4-3c-0.3-1-0.8-1.9-1.5-2.6c-0.6-0.7-1.4-1.3-2.3-1.7c-0.9-0.4-1.9-0.6-2.9-0.6c-1.1,0-2.2,0.2-3.4,0.5
				l-3.9,1.3c-1.2,0.4-2.2,0.9-3,1.6c-0.8,0.7-1.5,1.4-2,2.2s-0.8,1.8-0.8,2.7C878.4,910.8,878.6,911.8,878.9,912.9z M882.3,938.2
				c-0.3-1.6-0.2-3.1,0.2-4.4c0.4-1.4,1-2.6,1.9-3.7c0.9-1.1,2.1-2,3.7-2.7c1.5-0.7,3.3-1.3,5.4-1.6c2.1-0.3,3.9-0.4,5.6-0.1
				c1.6,0.2,3.1,0.7,4.3,1.5c1.2,0.7,2.2,1.7,3,2.9s1.3,2.6,1.5,4.2c0.2,1.6,0.2,3-0.2,4.4s-1,2.6-1.9,3.7c-0.9,1.1-2.2,2-3.7,2.7
				s-3.3,1.3-5.3,1.6c-2.1,0.3-3.9,0.4-5.6,0.1c-1.7-0.2-3.1-0.7-4.3-1.5c-1.2-0.7-2.2-1.7-2.9-2.9
				C883,941.2,882.5,939.8,882.3,938.2z M884.9,937.8c0.2,1.1,0.5,2,1,2.8s1.2,1.5,2,2.1s1.7,0.9,2.8,1.1c1,0.2,2.2,0.2,3.4,0
				l4.1-0.6c1.2-0.2,2.3-0.5,3.2-1s1.7-1.1,2.3-1.9c0.6-0.8,1-1.6,1.3-2.6c0.2-1,0.3-2,0.1-3c-0.2-1.1-0.5-2-1-2.8s-1.2-1.5-2-2.1
				c-0.8-0.5-1.7-0.9-2.8-1.1c-1-0.2-2.2-0.2-3.4,0l-4.1,0.6c-1.2,0.2-2.3,0.5-3.2,1s-1.7,1.1-2.3,1.9s-1,1.6-1.3,2.6
				C884.8,935.7,884.7,936.7,884.9,937.8z M899.9,960.3l5.6-2.9v-0.1l-20.7-0.3v-2.9l24.9,0.4l-0.1,3.5l-15.3,8.8l-5.6,2.9v0.1
				l20.7,0.3v2.9l-24.9-0.4l0.1-3.5L899.9,960.3z M879.4,1003.7l7.7-0.9l2.2-9.8l-6.6-4l0.6-3l22.4,13.8l-0.8,3.7l-26.2,3.2
				L879.4,1003.7z M902.5,1001.2v-0.2l-10.9-6.7l-1.8,8.4L902.5,1001.2z M875.1,1026.7L875.1,1026.7c-0.9-0.8-1.6-1.9-1.8-3.2
				c-0.3-1.4-0.1-3,0.6-4.8c0.5-1.4,1.3-2.6,2.3-3.6s2.1-1.7,3.5-2.2c1.3-0.5,2.8-0.6,4.5-0.5s3.5,0.5,5.5,1.3
				c1.9,0.7,3.6,1.6,4.9,2.7c1.3,1,2.3,2.2,3,3.4s1,2.6,1.1,4c0.1,1.4-0.2,2.9-0.8,4.4c-0.8,2.1-1.9,3.7-3.4,4.7s-3.1,1.6-4.9,1.8
				l-0.5-2.8c1.4-0.1,2.7-0.5,3.8-1.3s2-1.9,2.5-3.4c0.4-1,0.6-2,0.5-3c0-1-0.3-1.9-0.7-2.8c-0.4-0.9-1.1-1.6-1.9-2.3
				c-0.8-0.7-1.8-1.3-2.9-1.7l-3.8-1.5c-1.2-0.4-2.3-0.7-3.3-0.7c-1.1,0-2.1,0.1-3,0.5s-1.7,0.9-2.4,1.7c-0.7,0.7-1.3,1.7-1.7,2.8
				c-0.3,0.8-0.5,1.6-0.6,2.4c-0.1,0.8,0,1.6,0.2,2.3c0.2,0.7,0.6,1.3,1.1,1.9s1.2,1,2.1,1.3l2.3,0.9l2-5.1l2.5,0.9l-3,7.9l-12-4.6
				l1-2.6L875.1,1026.7z M867.9,1033.4l21.7,12.2l-7.5,13.2l-2.3-1.3l6-10.6l-7.3-4.1l-5.6,10l-2.3-1.3l5.6-10l-7.5-4.2l-6,10.6
				l-2.3-1.3L867.9,1033.4z M865.6,1065.6l6.2,1l0.1-0.1l-16.3-12.7l1.8-2.3l19.6,15.3l-2.1,2.7l-17.6-2.2l-6.2-1l-0.1,0.1
				l16.3,12.7l-1.8,2.3l-19.6-15.3l2.1-2.7L865.6,1065.6z M834.6,1076.9c2.3-2.2,4.8-3.1,7.6-2.7s5.6,2,8.4,5.1c2.9,3,4.4,6,4.7,8.8
				s-0.7,5.3-3,7.5c-1.5,1.4-3.1,2.3-4.8,2.6c-1.7,0.3-3.4,0.1-5.2-0.6l0.8-2.7c1.2,0.6,2.5,0.8,3.8,0.7c1.3-0.1,2.5-0.7,3.6-1.8
				c0.8-0.7,1.3-1.5,1.7-2.4c0.3-0.9,0.5-1.8,0.4-2.7c-0.1-0.9-0.4-1.9-0.9-2.9s-1.2-1.9-2.1-2.9l-2.6-2.7c-1.8-1.9-3.6-2.9-5.5-3.2
				c-1.9-0.2-3.6,0.4-5.2,1.9c-1.2,1.1-1.8,2.3-2.1,3.6c-0.2,1.3,0,2.7,0.5,4l-2.8,0.6c-0.6-1.8-0.8-3.6-0.4-5.3
				C832.1,1079.9,833,1078.4,834.6,1076.9z M820.1,1089.4l5.7,8l15.7,7.3l-2.8,2l-12.4-5.9l-0.1,0.1l1.6,13.6l-2.8,2l-1.6-17.2
				l-5.8-8.1L820.1,1089.4z M799.1,1102.6l10.2,22.7l-9,4.1c-2,0.9-3.9,1-5.5,0.4c-1.6-0.7-2.9-2-3.8-4c-0.9-2-1.1-3.8-0.5-5.5
				s1.9-2.9,3.9-3.9l6.3-2.8l-4.4-9.7L799.1,1102.6z M801.8,1115.9l-6.3,2.8c-1.1,0.5-1.8,1.2-2.1,2s-0.3,1.8,0.2,2.8l0.8,1.7
				c0.5,1,1.1,1.7,2,2c0.8,0.3,1.8,0.2,2.9-0.3l6.3-2.8L801.8,1115.9z M770,1113.3c1.6-0.4,3-0.6,4.4-0.4s2.7,0.7,3.9,1.5
				s2.2,1.9,3.1,3.3c0.9,1.4,1.7,3.1,2.2,5.1c0.6,2,0.8,3.9,0.8,5.5s-0.4,3.2-1,4.5s-1.4,2.4-2.5,3.3s-2.4,1.5-4,2
				c-1.5,0.4-3,0.6-4.4,0.4s-2.7-0.7-3.9-1.5s-2.2-1.9-3.1-3.3c-0.9-1.4-1.6-3.1-2.2-5.1c-0.6-2-0.8-3.9-0.8-5.5
				c0-1.7,0.4-3.2,1-4.5s1.4-2.4,2.5-3.3C767.2,1114.4,768.5,1113.7,770,1113.3z M770.7,1115.8c-1,0.3-1.9,0.7-2.7,1.3
				c-0.8,0.6-1.4,1.3-1.8,2.2c-0.4,0.9-0.7,1.8-0.8,2.9s0.1,2.2,0.4,3.4l1.1,4c0.3,1.2,0.8,2.2,1.4,3.1c0.6,0.9,1.3,1.6,2.2,2.1
				c0.8,0.5,1.7,0.8,2.7,1c1,0.1,2,0,3-0.2c1-0.3,1.9-0.7,2.7-1.3c0.8-0.6,1.4-1.4,1.8-2.2c0.4-0.9,0.7-1.8,0.8-2.9
				s-0.1-2.2-0.4-3.4l-1.1-4c-0.3-1.2-0.8-2.2-1.4-3.1c-0.6-0.9-1.3-1.6-2.2-2.1c-0.8-0.5-1.7-0.8-2.7-1
				C772.8,1115.5,771.8,1115.5,770.7,1115.8z M751.5,1117.8l3-0.4l2.9,24.7l-9.8,1.2c-2.2,0.3-3.9-0.1-5.3-1.2
				c-1.4-1.1-2.2-2.7-2.4-5c-0.2-1.8,0-3.4,0.7-4.6c0.7-1.3,1.8-2.2,3.4-2.8l-7-10.2l3.4-0.4l6.6,10l5.8-0.7L751.5,1117.8z
				 M746.2,1131.8c-1.2,0.1-2.1,0.6-2.6,1.2c-0.6,0.7-0.8,1.6-0.7,2.7l0.2,1.8c0.1,1.1,0.6,2,1.3,2.5s1.7,0.7,2.9,0.6l6.9-0.8
				l-1.1-8.9L746.2,1131.8z M723.7,1141.7l0.4-22.2h3l-0.4,22.2l7.9,0.1v2.6l-18.8-0.3v-2.6L723.7,1141.7z M711.7,1118.8l-3.6,24.6
				l-14.7-2.1l0.4-2.6l11.7,1.7l1.2-8.3l-10.7-1.5l0.4-2.6l10.7,1.5l1.6-11.2L711.7,1118.8z M683.5,1112.7c1.6,0.5,2.9,1.1,4,2
				s1.9,2,2.5,3.3s0.9,2.8,0.9,4.5s-0.3,3.5-0.8,5.5c-0.6,2-1.3,3.7-2.3,5.1c-0.9,1.4-2,2.5-3.2,3.3s-2.5,1.3-3.9,1.4
				c-1.4,0.2-2.9,0-4.4-0.4s-2.8-1.1-3.9-2c-1.1-0.9-1.9-2-2.5-3.3s-0.9-2.8-0.9-4.5s0.2-3.5,0.8-5.5s1.4-3.7,2.3-5.1
				c0.9-1.4,2-2.5,3.2-3.3s2.5-1.3,3.9-1.4S682,1112.3,683.5,1112.7z M682.8,1115.3c-1-0.3-2-0.4-3-0.3s-1.9,0.4-2.7,0.9
				s-1.6,1.2-2.2,2c-0.6,0.9-1.1,1.9-1.5,3.1l-1.2,4c-0.4,1.2-0.5,2.3-0.4,3.4s0.3,2,0.7,2.9s1,1.6,1.8,2.2s1.7,1.1,2.7,1.4
				s2,0.4,3,0.3s1.9-0.4,2.7-0.9s1.6-1.2,2.2-2c0.6-0.9,1.1-1.9,1.5-3.1l1.2-4c0.3-1.2,0.5-2.3,0.4-3.4s-0.3-2-0.7-2.9
				s-1-1.6-1.8-2.2C684.7,1116,683.8,1115.6,682.8,1115.3z M668.1,1107.9l-10.3,22.7l-2.7-1.2l9.2-20.3l-9.6-4.4l1.1-2.4
				L668.1,1107.9z M652.7,1100.5l-1.3,2.2l-3-1.8l-10.1,17.2l3,1.8l-1.3,2.2l-8.6-5.1l1.3-2.2l3,1.8l10.1-17.2l-3-1.8l1.3-2.2
				L652.7,1100.5z M632,1086.4c1.3,1,2.3,2.1,2.9,3.3s1.1,2.6,1.1,4c0.1,1.4-0.2,2.9-0.8,4.5s-1.5,3.2-2.8,4.8c-1.3,1.7-2.6,3-4,3.9
				c-1.4,1-2.8,1.6-4.1,1.9c-1.4,0.3-2.8,0.3-4.1-0.1c-1.4-0.4-2.7-1-4-2s-2.2-2.1-2.9-3.3c-0.7-1.2-1.1-2.6-1.1-4
				c-0.1-1.4,0.2-2.9,0.8-4.5s1.5-3.2,2.8-4.8c1.3-1.7,2.6-3,4-3.9c1.4-1,2.8-1.6,4.1-1.9c1.4-0.3,2.8-0.3,4.1,0.1
				C629.5,1084.8,630.8,1085.4,632,1086.4z M630.4,1088.5c-0.8-0.7-1.7-1.1-2.7-1.4c-0.9-0.3-1.9-0.3-2.9-0.1
				c-1,0.2-1.9,0.5-2.8,1.1c-0.9,0.6-1.7,1.4-2.5,2.3l-2.5,3.3c-0.8,1-1.3,2-1.6,3s-0.5,2-0.4,3s0.4,1.9,0.8,2.7
				c0.5,0.9,1.1,1.6,2,2.3s1.7,1.1,2.7,1.4c0.9,0.3,1.9,0.3,2.9,0.1c1-0.2,1.9-0.5,2.8-1.1c0.9-0.6,1.7-1.4,2.5-2.3l2.5-3.3
				c0.8-1,1.3-2,1.6-3s0.5-2,0.4-3s-0.4-1.9-0.8-2.7S631.3,1089.1,630.4,1088.5z M597.5,1075.1l-2.3,5.8l0.1,0.1l15.9-13.2l1.9,2.2
				l-19.1,15.9l-2.2-2.7l5.9-16.7l2.3-5.8l-0.1-0.1l-15.9,13.2l-1.9-2.2l19.1-15.9l2.2,2.7L597.5,1075.1z M597.3,1050.1L576,1063
				l-7.9-13l2.3-1.4l6.3,10.4l7.1-4.3l-6-9.8l2.3-1.4l6,9.8l7.4-4.5l-6.3-10.4l2.3-1.4L597.3,1050.1z M585.2,1028.9l-20.9,14.8
				l-1.2-2.9l10.1-6.9l7.9-5.4v-0.1l-9.5,1.3l-12.3,1.5l-1.3-3.2l10-7.2l7.8-5.6v-0.1l-9.4,1.4l-12.2,1.8l-1.1-2.9l25.5-3.3l1.2,3.1
				l-10.3,7.6l-7.6,5.5v0.1l9.4-1.2l12.8-1.5L585.2,1028.9z M549,996.9l-1.5-10.1c-0.3-2,0.1-3.7,1-5.1c1-1.3,2.4-2.1,4.4-2.4
				c0.9-0.1,1.7-0.1,2.4,0.1c0.7,0.2,1.2,0.4,1.7,0.8c0.5,0.3,0.8,0.7,1.1,1.2c0.3,0.4,0.5,0.9,0.6,1.2h0.2c0-0.5,0-1,0.1-1.6
				s0.4-1.2,0.8-1.7c0.4-0.6,0.9-1.1,1.6-1.5c0.7-0.4,1.5-0.7,2.5-0.9c1-0.1,2-0.1,2.9,0.1c0.9,0.2,1.7,0.5,2.4,1s1.3,1.1,1.8,1.8
				s0.8,1.5,0.9,2.5l1.6,11.2L549,996.9z M559.2,992.4l-1-6.8c-0.2-1.2-0.6-2.1-1.3-2.6c-0.7-0.6-1.6-0.8-2.7-0.6l-1.2,0.2
				c-1.1,0.2-1.9,0.6-2.4,1.4c-0.5,0.7-0.7,1.7-0.5,2.9l1,6.8L559.2,992.4z M570.6,990.7l-1-7.3c-0.2-1.3-0.6-2.2-1.4-2.9
				s-1.8-0.9-3-0.7L564,980c-1.2,0.2-2.1,0.7-2.7,1.5c-0.5,0.8-0.7,1.9-0.5,3.1l1,7.3L570.6,990.7z M570.8,967.1v3l-24.9-0.4
				l0.2-9.9c0-2.2,0.7-3.9,1.9-5.1c1.2-1.2,3-1.8,5.3-1.8c1.8,0,3.3,0.5,4.5,1.3c1.2,0.9,1.9,2.1,2.3,3.8l11.1-5.5l-0.1,3.4
				l-10.8,5.2l-0.1,5.8L570.8,967.1z M557.6,959.9c0-1.2-0.3-2.1-0.9-2.8c-0.6-0.7-1.5-1-2.6-1h-1.9c-1.1,0-2,0.3-2.7,0.9
				c-0.6,0.6-1,1.6-1,2.7l-0.1,6.9l9,0.1L557.6,959.9z M573.7,931.6l-7.6,1.4l-1.5,9.9l6.9,3.6l-0.5,3l-23.3-12.3l0.6-3.8l25.9-4.9
				L573.7,931.6z M550.7,935.7v0.2l11.4,6l1.3-8.5L550.7,935.7z M562.6,914l-6.2,1.2v0.1l19.8,6.2l-0.9,2.8l-23.7-7.5l1-3.3
				l17.2-4.1l6.2-1.2v-0.1l-19.8-6.2l0.9-2.8l23.7,7.5l-1,3.3L562.6,914z M561.2,889.2l3.7-7.5c0.7-1.4,1.6-2.5,2.6-3.4
				s2.2-1.5,3.5-1.8s2.8-0.4,4.4-0.1c1.6,0.3,3.3,0.9,5.2,1.8c1.9,0.9,3.4,1.9,4.5,3.1c1.2,1.1,2,2.3,2.6,3.6
				c0.5,1.3,0.7,2.6,0.6,3.9c-0.1,1.4-0.5,2.7-1.2,4.1l-3.7,7.5L561.2,889.2z M584.8,891.7c0.5-0.9,0.7-1.8,0.8-2.8
				c0.1-0.9,0-1.8-0.4-2.7c-0.3-0.8-0.8-1.6-1.5-2.4c-0.7-0.7-1.6-1.4-2.7-1.9l-3.6-1.8c-1.1-0.6-2.2-0.9-3.2-1s-2-0.1-2.8,0.2
				c-0.9,0.3-1.7,0.7-2.3,1.3c-0.7,0.6-1.3,1.4-1.7,2.3l-2.4,4.8l17.5,8.8L584.8,891.7z M599.8,871.4L580.3,856l6.1-7.8
				c1.4-1.8,2.9-2.7,4.7-2.9c1.7-0.2,3.5,0.5,5.2,1.8c1.7,1.4,2.7,2.9,3,4.6c0.3,1.7-0.3,3.5-1.7,5.2l-4.3,5.4l8.3,6.6L599.8,871.4z
				 M591.3,860.9l4.3-5.4c0.7-0.9,1.1-1.8,1-2.7s-0.6-1.7-1.5-2.4l-1.5-1.1c-0.9-0.7-1.8-1-2.7-0.9s-1.7,0.7-2.4,1.6l-4.3,5.4
				L591.3,860.9z M615.8,852.5l-2.2,2.1l-17.2-18l7.2-6.8c1.6-1.5,3.2-2.2,5-2.2c1.7,0,3.4,0.9,4.9,2.5c1.3,1.3,2,2.7,2.2,4.1
				s-0.2,2.9-1.1,4.3l11.7,4l-2.5,2.3l-11.3-4l-4.2,4L615.8,852.5z M611.7,838.1c0.9-0.8,1.3-1.7,1.4-2.6c0-0.9-0.3-1.8-1.1-2.6
				l-1.3-1.3c-0.8-0.8-1.6-1.2-2.5-1.2s-1.8,0.4-2.6,1.2l-5,4.8l6.2,6.5L611.7,838.1z M638.2,834.3c-1.3,0.9-2.7,1.5-4.1,1.8
				c-1.4,0.3-2.8,0.2-4.1-0.1c-1.4-0.4-2.7-1.1-4-2.1s-2.6-2.4-3.8-4.1c-1.2-1.7-2-3.4-2.6-5c-0.5-1.6-0.7-3.1-0.6-4.5
				c0.1-1.4,0.6-2.7,1.3-3.9s1.8-2.3,3.1-3.2s2.7-1.5,4-1.8c1.4-0.3,2.8-0.2,4.2,0.1c1.4,0.4,2.7,1.1,4,2.1s2.6,2.4,3.8,4.1
				c1.2,1.7,2.1,3.4,2.6,5s0.7,3.1,0.6,4.5c-0.1,1.4-0.6,2.7-1.3,3.9C640.6,832.3,639.5,833.4,638.2,834.3z M636.7,832.1
				c0.9-0.6,1.6-1.3,2.1-2.2c0.5-0.8,0.8-1.7,1-2.7c0.1-1,0-2-0.2-3c-0.3-1-0.8-2-1.5-3.1l-2.4-3.4c-0.7-1-1.5-1.8-2.4-2.5
				c-0.9-0.6-1.8-1-2.7-1.2s-1.9-0.2-2.9,0s-1.9,0.6-2.8,1.2c-0.9,0.6-1.6,1.3-2.1,2.2c-0.5,0.8-0.8,1.7-1,2.7c-0.1,1,0,2,0.2,3
				c0.3,1,0.8,2,1.5,3.1l2.4,3.4c0.7,1,1.5,1.8,2.4,2.5c0.9,0.6,1.8,1,2.7,1.2s1.9,0.2,2.9,0S635.8,832.7,636.7,832.1z M640.6,802.8
				l7.5-3.6c1.4-0.7,2.8-1.1,4.1-1.1c1.4-0.1,2.7,0.1,3.9,0.7c1.3,0.5,2.4,1.4,3.5,2.6c1.1,1.2,2.1,2.7,3,4.6
				c0.9,1.9,1.5,3.6,1.7,5.2c0.3,1.6,0.2,3.1-0.1,4.4c-0.4,1.3-1,2.5-1.9,3.5s-2.1,1.9-3.4,2.5l-7.5,3.6L640.6,802.8z M657.8,819.2
				c0.9-0.4,1.7-1,2.3-1.7s1.1-1.5,1.3-2.3c0.3-0.9,0.3-1.8,0.2-2.8s-0.4-2.1-1-3.2l-1.8-3.7c-0.5-1.1-1.2-2-1.9-2.7
				s-1.5-1.2-2.4-1.6c-0.8-0.3-1.7-0.5-2.7-0.4c-0.9,0.1-1.8,0.3-2.8,0.8l-4.8,2.3l8.6,17.6L657.8,819.2z M668.7,790.5l4.5,14.8
				c0.7,2.3,1.6,3.9,2.8,4.8c1.2,0.9,2.9,1,5,0.4s3.4-1.7,3.9-3.1s0.4-3.3-0.3-5.6l-4.5-14.8l2.9-0.9l4.3,14
				c0.5,1.7,0.8,3.3,0.9,4.6c0.1,1.4-0.1,2.6-0.5,3.6s-1.1,1.9-2.1,2.7s-2.3,1.4-3.9,1.9c-1.6,0.5-3,0.7-4.2,0.6
				c-1.2-0.1-2.3-0.4-3.2-1.1c-0.9-0.6-1.7-1.6-2.4-2.7c-0.7-1.2-1.3-2.6-1.8-4.4l-4.3-14L668.7,790.5z M705.5,807.7
				c-3.1,0.5-5.7-0.2-7.8-2.1c-2.1-1.9-3.4-4.9-4-9s-0.2-7.4,1.2-9.9s3.7-4,6.8-4.4c2.1-0.3,3.9-0.1,5.4,0.6
				c1.5,0.7,2.8,1.9,3.9,3.5l-2.2,1.8c-0.7-1.2-1.6-2.1-2.7-2.7c-1.1-0.6-2.5-0.8-4-0.6c-1.1,0.2-2,0.5-2.7,1
				c-0.8,0.5-1.4,1.2-1.9,2s-0.8,1.8-0.9,2.9c-0.2,1.1-0.1,2.2,0.1,3.5l0.5,3.7c0.4,2.5,1.3,4.5,2.7,5.7c1.4,1.3,3.2,1.7,5.3,1.4
				c1.6-0.2,2.8-0.8,3.8-1.8c0.9-1,1.6-2.2,1.8-3.6l2.6,1.1c-0.5,1.9-1.4,3.4-2.7,4.6C709.3,806.6,707.6,807.4,705.5,807.7z
				 M727.1,783.5l0.4,22.2h-3l-0.4-22.2l-7.9,0.1V781l18.8-0.3v2.6L727.1,783.5z"/>
		</g>
	</g>
</g>
</svg>
