<svg width="144" height="144" viewBox="0 0 144 144" fill="none" xmlns="http://www.w3.org/2000/svg">
<g clip-path="url(#clip0_14_406)">
<path id="uniquePathId" d="M64.3335 24.8344L61.1724 25.4848L58.8272 14.0873L62.2331 13.3864C63.3016 13.1666 64.2627 13.2047 65.1165 13.5008C65.9702 13.797 66.6863 14.3264 67.2647 15.0891C67.8461 15.8473 68.2564 16.8167 68.4954 17.9973C68.7398 19.2039 68.7406 20.2788 68.4977 21.2221C68.254 22.1617 67.7822 22.9414 67.0821 23.5611C66.3813 24.1771 65.4651 24.6016 64.3335 24.8344ZM61.7352 24.6961L64.1728 24.1946C65.1894 23.9854 66.0048 23.6068 66.6191 23.0589C67.2326 22.5073 67.6392 21.8145 67.8389 20.9806C68.0423 20.146 68.033 19.1985 67.8109 18.1382C67.5956 17.0919 67.2387 16.2314 66.7403 15.5567C66.241 14.8782 65.6199 14.4066 64.8771 14.1418C64.1379 13.8762 63.2916 13.8415 62.3381 14.0377L59.6557 14.5897L61.7352 24.6961Z M52.8242 28.2464L48.6789 17.3734L52.0289 16.0963C52.7156 15.8345 53.3579 15.7436 53.956 15.8237C54.5541 15.9038 55.0769 16.1321 55.5245 16.5087C55.9708 16.8818 56.314 17.3834 56.5542 18.0134C56.7917 18.6363 56.8681 19.2355 56.7835 19.811C56.6975 20.3829 56.4573 20.8961 56.063 21.3504C55.6723 21.8035 55.1336 22.1609 54.4469 22.4226L51.4473 23.5662L51.2105 22.9451L54.1942 21.8076C54.7534 21.5943 55.1914 21.3078 55.5082 20.9478C55.825 20.5879 56.0181 20.1798 56.0874 19.7237C56.1554 19.264 56.0915 18.7776 55.8959 18.2644C55.6989 17.7476 55.4213 17.3386 55.0632 17.0373C54.7038 16.7325 54.2836 16.5501 53.8027 16.4902C53.3253 16.429 52.807 16.505 52.2478 16.7182L49.5773 17.7363L53.4878 27.9934L52.8242 28.2464ZM55.4108 21.6174L59.9649 25.5241L59.2004 25.8155L54.6622 21.9028L55.4108 21.6174Z M44.4571 32.5578L38.666 22.4649L44.2841 19.2413L44.6121 19.813L39.61 22.6831L42.0107 26.8671L46.7122 24.1695L47.0402 24.7412L42.3387 27.4388L44.7451 31.6327L49.8655 28.6947L50.1935 29.2664L44.4571 32.5578Z M37.7817 27.281C37.4563 27.0425 37.0941 26.8539 36.6951 26.7153C36.2937 26.5738 35.8731 26.4995 35.4333 26.4924C34.994 26.48 34.5531 26.552 34.1108 26.7084C33.6714 26.8624 33.2495 27.1168 32.8453 27.4717C32.2277 28.0141 31.8222 28.6574 31.6289 29.4018C31.436 30.1408 31.4667 30.9279 31.7211 31.763C31.9759 32.5928 32.4607 33.4148 33.1754 34.2289C33.8827 35.0344 34.6326 35.6186 35.4249 35.9814C36.2173 36.3442 36.9978 36.4781 37.7662 36.3831C38.535 36.2827 39.2396 35.9514 39.8801 35.3891C40.4522 34.8867 40.8426 34.3095 41.0514 33.6574C41.263 33.0028 41.2765 32.3206 41.0917 31.6107C40.907 30.9009 40.5107 30.2055 39.9027 29.5245L40.1693 29.4492L37.1976 32.0583L36.7627 31.5631L40.0674 28.6615L40.5023 29.1568C41.1796 29.9282 41.6151 30.7227 41.8089 31.5406C42.0031 32.353 41.9709 33.1374 41.7125 33.8936C41.4568 34.6473 40.996 35.3166 40.3299 35.9014C39.5785 36.5612 38.7587 36.9508 37.8705 37.0703C36.9824 37.1897 36.0883 37.0498 35.1882 36.6505C34.2885 36.2458 33.4425 35.5923 32.6503 34.69C32.0555 34.0125 31.6039 33.3202 31.2955 32.6131C30.9872 31.9059 30.8242 31.2122 30.8066 30.532C30.7866 29.849 30.9104 29.2034 31.178 28.5954C31.4432 27.9846 31.849 27.4392 32.3955 26.9594C32.8908 26.5245 33.4087 26.2159 33.9493 26.0336C34.4874 25.8485 35.0214 25.7678 35.5513 25.7915C36.0816 25.8098 36.5851 25.9096 37.0618 26.0909C37.536 26.2693 37.9582 26.5061 38.3282 26.8012L37.7817 27.281Z M31.9678 45.0423L22.7088 37.9942L26.632 32.8402L27.1565 33.2394L23.6634 37.8282L27.5017 40.75L30.7849 36.437L31.3093 36.8362L28.0262 41.1492L31.8735 44.0779L35.4492 39.3806L35.9736 39.7798L31.9678 45.0423Z M27.6616 53.0091L27.1381 52.7475L20.8168 42.1502L17.8474 48.0915L17.2578 47.7969L20.6057 41.0982L21.1292 41.3599L27.453 51.9521L30.4503 45.9549L31.0399 46.2495L27.6616 53.0091Z M15.8405 51.5479L26.8251 55.3878L26.5907 56.0582L15.6062 52.2184L15.8405 51.5479Z M12.2301 67.7111L12.3479 66.9474L23.521 64.1349L23.5331 64.0563L13.727 58.0077L13.8448 57.244L25.3451 59.018L25.2412 59.6918L15.4086 58.1751L15.3982 58.2425L24.5889 63.9202L24.4867 64.5828L14.0122 67.2271L14.0019 67.2945L23.8344 68.8112L23.7305 69.4851L12.2301 67.7111Z M24.6787 80.4827L25.4336 83.6204L14.1201 86.3423L13.3067 82.9615C13.0515 81.9008 13.0578 80.939 13.3254 80.0759C13.5931 79.2128 14.0985 78.4796 14.8416 77.8762C15.5801 77.2699 16.5354 76.8278 17.7074 76.5497C18.9052 76.2654 19.9795 76.229 20.9304 76.4405C21.8775 76.6529 22.6724 77.0986 23.315 77.7777C23.9539 78.4578 24.4085 79.3594 24.6787 80.4827ZM24.6267 83.084L24.0446 80.6645C23.8018 79.6554 23.3964 78.8529 22.8284 78.2571C22.2567 77.6622 21.5509 77.2788 20.7108 77.1069C19.8699 76.9313 18.9233 76.9721 17.8709 77.2292C16.8323 77.479 15.9841 77.8642 15.3263 78.3848C14.6648 78.9063 14.214 79.5427 13.974 80.2939C13.7331 81.0414 13.7265 81.8885 13.9542 82.8349L14.5948 85.4976L24.6267 83.084Z M28.5083 91.8595L17.7787 96.3631L16.3912 93.0572C16.1068 92.3796 15.9947 91.7407 16.0549 91.1403C16.1151 90.5399 16.326 90.0097 16.6875 89.5499C17.0456 89.0915 17.5355 88.7318 18.1572 88.4709C18.7719 88.2129 19.3682 88.1166 19.9462 88.1821C20.5207 88.2491 21.0415 88.4721 21.5087 88.8511C21.9744 89.2266 22.3495 89.7532 22.6339 90.4308L23.8763 93.3908L23.2634 93.6481L22.0275 90.7038C21.7959 90.1519 21.495 89.7237 21.1247 89.419C20.7544 89.1143 20.3402 88.9349 19.882 88.8807C19.4203 88.828 18.9363 88.9079 18.4298 89.1205C17.9199 89.3345 17.5203 89.6255 17.2311 89.9934C16.9383 90.3628 16.77 90.7887 16.7261 91.2714C16.6807 91.7505 16.7739 92.266 17.0055 92.8179L18.1116 95.4531L28.2334 91.2046L28.5083 91.8595ZM21.7971 89.4942L25.5506 84.813L25.8673 85.5674L22.1072 90.2329L21.7971 89.4942Z M33.0945 100.08L23.1991 106.202L19.791 100.694L20.3515 100.347L23.3859 105.252L27.488 102.713L24.6359 98.1039L25.1964 97.7571L28.0485 102.367L32.1603 99.8224L29.0541 94.8023L29.6146 94.4555L33.0945 100.08Z M28.0424 106.925C27.8148 107.259 27.6383 107.627 27.5129 108.03C27.3848 108.436 27.3245 108.859 27.332 109.299C27.3342 109.738 27.4208 110.176 27.5918 110.613C27.7603 111.047 28.0286 111.461 28.3967 111.853C28.9592 112.452 29.6156 112.836 30.366 113.004C31.111 113.173 31.8966 113.116 32.7229 112.834C33.5438 112.552 34.3492 112.04 35.1391 111.299C35.9208 110.565 36.4798 109.796 36.8161 108.992C37.1525 108.188 37.2604 107.404 37.1399 106.639C37.0141 105.874 36.6596 105.181 36.0764 104.559C35.5553 104.004 34.9655 103.633 34.3068 103.446C33.6456 103.256 32.9633 103.265 32.2599 103.474C31.5566 103.682 30.8747 104.101 30.2142 104.731L30.1302 104.467L32.8364 107.351L32.3558 107.802L29.3463 104.595L29.8269 104.144C30.5754 103.442 31.3551 102.98 32.166 102.759C32.9716 102.538 33.7566 102.544 34.521 102.778C35.2828 103.008 35.9669 103.446 36.5735 104.093C37.2579 104.822 37.6745 105.628 37.8233 106.512C37.9721 107.396 37.8619 108.294 37.4927 109.207C37.118 110.119 36.4929 110.987 35.6174 111.808C34.9601 112.425 34.2831 112.9 33.5866 113.231C32.89 113.563 32.2021 113.749 31.5229 113.789C30.8409 113.832 30.1916 113.729 29.575 113.482C28.9557 113.237 28.3972 112.85 27.8995 112.319C27.4485 111.839 27.1229 111.331 26.9228 110.797C26.7199 110.265 26.6215 109.734 26.6276 109.204C26.6283 108.673 26.7114 108.167 26.8767 107.684C27.0393 107.204 27.262 106.775 27.5447 106.395L28.0424 106.925Z M46.9736 113.161L40.2364 122.648L34.9552 118.898L35.3368 118.361L40.0389 121.7L42.8318 117.766L38.4123 114.628L38.7939 114.091L43.2134 117.229L46.0129 113.287L41.1996 109.869L41.5812 109.331L46.9736 113.161Z M55.0796 117.2L54.8355 117.732L44.4536 124.401L50.4902 127.172L50.2152 127.771L43.4093 124.647L43.6534 124.115L54.0301 117.444L47.9368 114.647L48.2117 114.048L55.0796 117.2Z M54.0111 129.064L57.4846 117.958L58.1624 118.17L54.689 129.276L54.0111 129.064Z M70.2853 132.136L69.5181 132.043L66.3367 120.97L66.2577 120.96L60.5376 130.961L59.7704 130.869L61.1621 119.316L61.839 119.398L60.6491 129.275L60.7168 129.283L66.0867 119.909L66.7524 119.99L69.7425 130.371L69.8102 130.379L71.0001 120.501L71.677 120.583L70.2853 132.136Z M80.9495 120.136L84.0964 119.42L86.6782 130.767L83.2876 131.538C82.2239 131.78 81.2622 131.762 80.4025 131.484C79.5428 131.206 78.8159 130.691 78.2217 129.941C77.6246 129.195 77.1943 128.234 76.9307 127.059C76.6613 125.857 76.6381 124.783 76.8614 123.835C77.0854 122.89 77.541 122.101 78.228 121.467C78.9159 120.836 79.823 120.393 80.9495 120.136ZM83.5501 120.221L81.1235 120.773C80.1115 121.003 79.3041 121.399 78.7013 121.959C78.0994 122.523 77.7073 123.225 77.525 124.062C77.3391 124.901 77.3681 125.848 77.6122 126.904C77.8492 127.945 78.2239 128.798 78.7363 129.462C79.2496 130.13 79.8803 130.589 80.6285 130.838C81.373 131.088 82.2199 131.105 83.1691 130.889L85.8395 130.282L83.5501 120.221Z M92.3611 116.411L96.7317 127.196L93.4089 128.542C92.7279 128.818 92.0876 128.922 91.488 128.855C90.8884 128.787 90.3609 128.57 89.9055 128.203C89.4516 127.839 89.098 127.345 88.8447 126.72C88.5944 126.102 88.5055 125.504 88.5781 124.927C88.6522 124.354 88.8816 123.836 89.2664 123.373C89.6476 122.912 90.1788 122.544 90.8598 122.268L93.835 121.062L94.0847 121.678L91.1253 122.877C90.5707 123.102 90.1387 123.398 89.8295 123.764C89.5202 124.131 89.3357 124.543 89.2759 125C89.2175 125.461 89.2914 125.946 89.4977 126.455C89.7054 126.968 89.9914 127.371 90.3557 127.665C90.7214 127.962 91.1453 128.135 91.6274 128.185C92.1059 128.237 92.6225 128.15 93.1772 127.925L95.8259 126.852L91.7028 116.678L92.3611 116.411ZM89.9129 123.093L85.2785 119.282L86.0368 118.974L90.6554 122.792L89.9129 123.093Z M99.6363 111.927L105.636 121.897L100.086 125.237L99.7465 124.672L104.688 121.699L102.201 117.565L97.5562 120.36L97.2163 119.795L101.861 117.001L99.3676 112.858L94.3094 115.902L93.9696 115.337L99.6363 111.927Z M106.419 117.063C106.75 117.295 107.116 117.476 107.517 117.607C107.922 117.74 108.344 117.805 108.784 117.803C109.223 117.806 109.662 117.725 110.101 117.56C110.537 117.397 110.954 117.133 111.351 116.77C111.957 116.215 112.349 115.563 112.527 114.815C112.704 114.072 112.657 113.286 112.385 112.456C112.113 111.632 111.612 110.82 110.88 110.021C110.156 109.231 109.394 108.662 108.595 108.316C107.795 107.97 107.012 107.852 106.245 107.963C105.479 108.079 104.781 108.425 104.153 109.001C103.591 109.515 103.213 110.1 103.018 110.757C102.82 111.415 102.82 112.098 103.02 112.804C103.219 113.509 103.63 114.196 104.252 114.865L103.987 114.946L106.904 112.275L107.349 112.761L104.105 115.731L103.66 115.245C102.967 114.488 102.515 113.702 102.304 112.889C102.093 112.08 102.109 111.296 102.352 110.534C102.592 109.775 103.039 109.097 103.692 108.498C104.43 107.823 105.241 107.416 106.127 107.278C107.012 107.14 107.909 107.262 108.817 107.642C109.725 108.028 110.585 108.664 111.395 109.549C112.004 110.214 112.47 110.897 112.793 111.598C113.116 112.298 113.294 112.988 113.325 113.668C113.359 114.351 113.249 114.999 112.994 115.612C112.742 116.228 112.347 116.782 111.811 117.273C111.325 117.718 110.814 118.037 110.277 118.231C109.743 118.427 109.21 118.519 108.68 118.506C108.15 118.499 107.644 118.41 107.164 118.238C106.686 118.07 106.259 117.842 105.883 117.555L106.419 117.063Z M112.888 98.2102L122.292 105.064L118.477 110.299L117.944 109.91L121.341 105.25L117.443 102.409L114.25 106.789L113.718 106.401L116.91 102.02L113.003 99.1723L109.526 103.943L108.993 103.555L112.888 98.2102Z M117.028 90.1554L117.557 90.4061L124.097 100.87L126.942 94.8678L127.538 95.1501L124.33 101.917L123.801 101.666L117.258 91.2079L114.387 97.2662L113.791 96.9839L117.028 90.1554Z M128.878 91.3704L117.815 87.7599L118.036 87.0847L129.098 90.6952L128.878 91.3704Z M132.15 75.1356L132.048 75.9016L120.936 78.9459L120.926 79.0247L130.855 84.8681L130.754 85.634L119.219 84.0997L119.309 83.4238L129.171 84.7357L129.18 84.6681L119.873 79.1828L119.961 78.5182L130.378 75.6566L130.387 75.589L120.525 74.2771L120.615 73.6012L132.15 75.1356Z M120.308 65.3114L119.631 62.1559L131.008 59.7145L131.738 63.1144C131.967 64.181 131.937 65.1424 131.648 65.9986C131.359 66.8548 130.836 67.5753 130.078 68.1602C129.325 68.748 128.359 69.1664 127.18 69.4154C125.976 69.67 124.901 69.6799 123.956 69.4449C123.014 69.2092 122.23 68.744 121.605 68.0492C120.983 67.3535 120.551 66.441 120.308 65.3114ZM120.425 62.7121L120.947 65.1453C121.164 66.1601 121.55 66.9723 122.103 67.5819C122.66 68.1908 123.356 68.5915 124.191 68.7841C125.028 68.9805 125.975 68.9631 127.034 68.7321C128.078 68.508 128.935 68.1439 129.606 67.6397C130.28 67.1347 130.746 66.5097 131.005 65.7646C131.264 65.0233 131.292 64.1767 131.088 63.2249L130.513 60.5472L120.425 62.7121Z M116.687 53.8672L127.525 49.6302L128.83 52.9693C129.098 53.6537 129.194 54.2953 129.119 54.894C129.044 55.4927 128.82 56.0175 128.447 56.4682C128.078 56.9176 127.579 57.2651 126.951 57.5106C126.33 57.7533 125.732 57.8348 125.156 57.7551C124.583 57.6739 124.068 57.4381 123.61 57.0476C123.154 56.6607 122.792 56.125 122.524 55.4406L121.355 52.4508L121.975 52.2087L123.137 55.1827C123.355 55.7401 123.645 56.1757 124.008 56.4894C124.371 56.8032 124.78 56.9928 125.237 57.0583C125.697 57.1224 126.183 57.0544 126.695 56.8544C127.21 56.6531 127.616 56.3721 127.915 56.0114C128.216 55.6494 128.395 55.2277 128.451 54.7463C128.508 54.2684 128.428 53.7508 128.21 53.1934L127.169 50.5316L116.946 54.5286L116.687 53.8672ZM123.338 56.3977L119.47 60.9846L119.172 60.2226L123.046 55.6515L123.338 56.3977Z M112.306 45.5362L122.349 39.66L125.62 45.2507L125.051 45.5836L122.139 40.6059L117.976 43.0419L120.713 47.7204L120.144 48.0532L117.407 43.3747L113.233 45.8164L116.214 50.9118L115.646 51.2446L112.306 45.5362Z M117.526 38.8174C117.762 38.49 117.947 38.1262 118.082 37.7261C118.22 37.3234 118.291 36.9022 118.295 36.4625C118.303 36.023 118.228 35.5828 118.067 35.1418C117.91 34.7037 117.652 34.284 117.293 33.8828C116.746 33.2698 116.099 32.8697 115.353 32.6827C114.613 32.4961 113.826 32.5334 112.993 32.7949C112.165 33.0567 111.347 33.5484 110.539 34.27C109.74 34.9841 109.162 35.7388 108.806 36.5342C108.45 37.3297 108.322 38.1112 108.424 38.8788C108.531 39.6467 108.868 40.3485 109.436 40.9842C109.943 41.5521 110.523 41.9376 111.177 42.1409C111.834 42.3469 112.516 42.3546 113.224 42.1639C113.932 41.9732 114.624 41.571 115.3 40.9572L115.378 41.2232L112.744 38.2737L113.235 37.8347L116.165 41.1147L115.673 41.5537C114.907 42.2375 114.117 42.6798 113.3 42.8805C112.49 43.0815 111.705 43.056 110.947 42.8039C110.191 42.5546 109.518 42.0995 108.927 41.4384C108.261 40.6925 107.865 39.876 107.738 38.9889C107.611 38.1018 107.743 37.2066 108.135 36.3032C108.532 35.4001 109.178 34.5486 110.074 33.7488C110.746 33.1482 111.435 32.6908 112.139 32.3765C112.844 32.0622 113.536 31.8933 114.216 31.8701C114.899 31.8442 115.545 31.9626 116.156 32.2251C116.769 32.485 117.317 32.8862 117.802 33.4287C118.241 33.9202 118.554 34.4356 118.741 34.9746C118.93 35.5111 119.016 36.0444 118.996 36.5745C118.983 37.1049 118.887 37.6092 118.71 38.0875C118.535 38.5632 118.302 38.9873 118.01 39.3598L117.526 38.8174Z M98.7531 32.1162L105.723 22.798L110.91 26.6776L110.515 27.2054L105.897 23.7512L103.007 27.6141L107.348 30.8607L106.953 31.3885L102.613 28.1419L99.7166 32.0138L104.444 35.5497L104.049 36.0775L98.7531 32.1162Z M90.751 27.8777L91.0082 27.352L101.552 20.9414L95.5855 18.0223L95.8752 17.4303L102.602 20.7214L102.345 21.2471L91.8062 27.6602L97.8286 30.6067L97.5389 31.1988L90.751 27.8777Z M92.1122 16.044L88.3653 27.0606L87.6929 26.8319L91.4398 15.8153L92.1122 16.044Z M75.9188 12.5709L76.6835 12.6822L79.5902 23.8311L79.6689 23.8426L85.6345 13.9857L86.3992 14.097L84.7224 25.612L84.0477 25.5137L85.4813 15.6687L85.4139 15.6588L79.8139 24.8972L79.1505 24.8006L76.4178 14.3488L76.3504 14.339L74.9167 24.184L74.242 24.0858L75.9188 12.5709Z" fill="#F5EFE3"/>
<path d="M108.4 71.9C100.1 62.4 88.7004 51.4 73.5004 51.4C67.4004 51.4 61.7004 53.1 55.8004 56.8C50.8004 59.9 45.7004 64.4 38.6004 71.6L38.4004 71.8L39.6004 73.1C49.7004 83.4 58.4004 92.3 73.4004 92.3C80.1004 92.3 86.5004 90.1 93.2004 85.7C98.8004 81.9 103.6 77 107.5 73.1L108.5 72.1L108.4 71.9ZM73.5004 54.3C79.5004 54.3 85.3004 56 91.2004 59.9C95.6004 62.7 99.9004 66.6 104.7 72C97.7004 79.1 87.2004 89.4 73.5004 89.4C67.3004 89.4 61.8004 87.9 56.3004 84.2C51.3004 80.9 46.8004 76.3 42.4004 71.8C53.2004 61 62.2004 54.3 73.5004 54.3ZM73.5004 86.5C81.6004 86.5 88.1004 79.9 88.1004 71.9C88.1004 63.9 81.5004 57.3 73.5004 57.3C65.5004 57.3 58.9004 63.9 58.9004 71.9C58.9004 79.9 65.4004 86.5 73.5004 86.5ZM73.5004 60.2C79.9004 60.2 85.2004 65.4 85.2004 71.8C85.2004 78.2 79.9004 83.4 73.5004 83.4C67.1004 83.4 61.8004 78.2 61.8004 71.8C61.8004 65.4 67.1004 60.2 73.5004 60.2ZM79.3004 71.9C79.3004 75.1 76.7004 77.7 73.5004 77.7C70.3004 77.7 67.6004 74.9 67.6004 71.7C67.6004 68.5 70.5004 66 73.4004 66V63.1C68.6004 63.1 64.7004 67 64.7004 71.9C64.7004 76.8 68.6004 80.7 73.4004 80.7C78.2004 80.7 82.2004 76.8 82.2004 71.9H79.3004Z" fill="#F5EFE3"/>
</g>
<defs>
<clipPath id="clip0_14_406">
<rect width="144" height="144" fill="white"/>
</clipPath>
</defs>
</svg>
