<svg width="144" height="144" viewBox="0 0 144 144" fill="none" xmlns="http://www.w3.org/2000/svg">
<g clip-path="url(#clip0_14_406)">
<path d="M83.5 11C82.7 10.9 82.1 10.6 81.6 10.2C81.1 9.8 80.7 9.3 80.4 8.7L81.4 8.1C81.7 8.6 82 9 82.3 9.3C82.6 9.6 83.1 9.8 83.7 9.9C84.4 10 85 10 85.4 9.7C85.8 9.4 86.1 9 86.2 8.5C86.3 8 86.2 7.7 86 7.4C85.8 7.1 85.3 6.8 84.7 6.5L84 6.2C83.2 5.8 82.5 5.4 82.1 4.9C81.7 4.4 81.6 3.8 81.7 3C81.8 2.6 81.9 2.2 82.1 1.9C82.3 1.6 82.6 1.4 82.9 1.2C83.2 1 83.6 0.9 84 0.9C84.4 0.9 84.9 0.9 85.3 1C86 1.1 86.6 1.4 87.1 1.8C87.6 2.2 87.9 2.6 88.2 3.2L87.2 3.7C87 3.3 86.7 2.9 86.4 2.6C86.1 2.3 85.6 2.1 85 2C84.4 1.9 83.9 1.9 83.5 2.1C83.1 2.3 82.8 2.7 82.7 3.2C82.6 3.7 82.7 4 83 4.3C83.3 4.6 83.7 4.9 84.3 5.1L85.1 5.4C86 5.8 86.6 6.2 87 6.8C87.3 7.3 87.4 7.9 87.3 8.7C87.2 9.1 87.1 9.5 86.8 9.9C86.6 10.2 86.3 10.5 86 10.7C85.7 10.9 85.4 11 84.9 11C84.5 11.1 84 11.1 83.5 11ZM96.2 9.8L91.5 8.2L90 12.4L88.9 12L92.1 2.7L93.2 3.1L91.8 7.2L96.5 8.8L98 4.7L99.1 5.1L95.9 14.4L94.8 14L96.2 9.8ZM101.5 17.4C100.9 17.1 100.5 16.7 100.1 16.3C99.8 15.9 99.5 15.4 99.4 14.8C99.3 14.3 99.3 13.6 99.4 13C99.5 12.4 99.8 11.7 100.2 10.9C100.6 10.2 101 9.6 101.5 9.1C102 8.6 102.5 8.3 103 8.1C103.5 7.9 104.1 7.8 104.6 7.9C105.2 7.9 105.7 8.1 106.3 8.4C106.9 8.7 107.3 9.1 107.7 9.5C108 9.9 108.3 10.4 108.4 11C108.5 11.6 108.5 12.2 108.4 12.8C108.3 13.4 108 14.1 107.6 14.9C107.2 15.6 106.8 16.2 106.3 16.7C105.8 17.2 105.3 17.5 104.8 17.7C104.3 17.9 103.7 18 103.2 17.9C102.6 17.8 102 17.7 101.5 17.4ZM102 16.4C102.4 16.6 102.8 16.7 103.1 16.8C103.5 16.8 103.9 16.8 104.2 16.7C104.6 16.6 104.9 16.4 105.2 16.1C105.5 15.8 105.8 15.5 106 15L106.8 13.6C107 13.2 107.2 12.7 107.2 12.3C107.3 11.9 107.3 11.5 107.2 11.1C107.1 10.7 106.9 10.4 106.7 10.1C106.5 9.8 106.2 9.5 105.8 9.3C105.4 9.1 105 9 104.7 8.9C104.3 8.9 103.9 8.9 103.6 9C103.2 9.1 102.9 9.3 102.6 9.6C102.3 9.9 102 10.2 101.8 10.7L101 12.1C100.8 12.5 100.6 13 100.6 13.4C100.5 13.8 100.5 14.2 100.6 14.6C100.7 15 100.9 15.3 101.1 15.6C101.3 16 101.6 16.2 102 16.4ZM108.1 21.2L112.4 12L113.4 12.8L111.2 17.2L109.5 20.6L112.5 18.3L116.4 15.4L117.5 16.3L115.5 20.7L113.9 24.1L116.9 21.8L120.7 18.8L121.6 19.6L113.5 25.7L112.5 24.9L114.6 20.3L116.2 16.9L113.2 19.1L109.1 22.1L108.1 21.2ZM117.4 29.4L116.6 28.5L124 22L126.6 25C127.2 25.7 127.4 26.3 127.4 27C127.4 27.7 127 28.3 126.3 28.9C125.8 29.4 125.2 29.6 124.6 29.7C124 29.8 123.5 29.6 122.9 29.2L121.1 33.8L120.2 32.8L122 28.4L120.5 26.7L117.4 29.4ZM123.1 28C123.4 28.4 123.7 28.5 124.1 28.6C124.5 28.6 124.8 28.5 125.1 28.2L125.7 27.7C126 27.4 126.2 27.1 126.2 26.7C126.2 26.3 126.1 26 125.8 25.6L124 23.5L121.3 25.8L123.1 28ZM122.5 35.5L130.7 30.1L134 35.1L133.1 35.7L130.5 31.7L127.7 33.5L130.2 37.3L129.3 37.9L126.8 34.1L124 36L126.6 40L125.7 40.6L122.5 35.5ZM126.9 42.6L135.8 38.4L138.4 43.8L137.5 44.2L135.4 39.8L132.4 41.2L134.4 45.3L133.5 45.8L131.5 41.7L128.4 43.2L130.5 47.6L129.6 48.1L126.9 42.6ZM130.3 50.2L139.7 47.1L140.1 48.2L131.7 51L133 55L132 55.3L130.3 50.2ZM133.4 63.4C133.3 62.6 133.4 61.9 133.6 61.3C133.8 60.7 134.2 60.2 134.7 59.7L135.5 60.5C135.1 60.9 134.8 61.3 134.6 61.8C134.4 62.3 134.4 62.8 134.4 63.3C134.5 64 134.7 64.5 135.1 64.8C135.5 65.1 136 65.2 136.5 65.2C137 65.1 137.3 64.9 137.5 64.6C137.7 64.3 137.9 63.8 137.9 63.1L138 62.3C138.1 61.4 138.3 60.7 138.7 60.1C139.1 59.6 139.6 59.3 140.4 59.2C140.8 59.1 141.2 59.2 141.6 59.3C142 59.4 142.3 59.6 142.5 59.8C142.8 60.1 143 60.4 143.1 60.8C143.3 61.2 143.4 61.6 143.5 62.1C143.6 62.8 143.6 63.5 143.4 64.1C143.2 64.7 142.9 65.2 142.4 65.6L141.6 64.8C141.9 64.5 142.2 64.1 142.3 63.7C142.5 63.3 142.5 62.8 142.4 62.2C142.3 61.6 142.1 61.1 141.8 60.8C141.5 60.5 141.1 60.4 140.5 60.4C140 60.5 139.7 60.7 139.5 61C139.3 61.3 139.2 61.8 139.1 62.5L139 63.3C138.9 64.3 138.7 65 138.3 65.5C137.9 66 137.4 66.3 136.6 66.4C136.2 66.5 135.7 66.4 135.4 66.3C135 66.2 134.7 66 134.4 65.8C134.1 65.5 133.9 65.2 133.7 64.8C133.5 64.4 133.4 63.9 133.4 63.4ZM138.5 75.1L138.6 70.1L134.1 70V68.8L144 69V70.2L139.7 70.1L139.6 75.1L143.9 75.2V76.4L134 76.2V75L138.5 75.1ZM133 82.5C133.1 81.9 133.3 81.3 133.6 80.9C133.9 80.4 134.3 80.1 134.8 79.8C135.3 79.5 135.9 79.3 136.5 79.2C137.2 79.1 137.9 79.1 138.7 79.3C139.5 79.4 140.2 79.7 140.8 80C141.4 80.3 141.9 80.7 142.2 81.1C142.6 81.5 142.8 82 142.9 82.6C143 83.1 143 83.7 142.9 84.4C142.8 85 142.6 85.6 142.3 86C142 86.5 141.6 86.9 141.1 87.1C140.6 87.4 140 87.6 139.4 87.7C138.7 87.8 138 87.8 137.2 87.6C136.4 87.5 135.7 87.2 135.1 86.9C134.5 86.6 134 86.2 133.7 85.8C133.3 85.4 133.1 84.9 133 84.3C132.9 83.7 132.9 83.1 133 82.5ZM134 82.7C133.9 83.1 133.9 83.5 134 83.9C134.1 84.3 134.2 84.6 134.5 84.9C134.7 85.2 135 85.5 135.4 85.7C135.8 85.9 136.2 86.1 136.7 86.1L138.3 86.4C138.8 86.5 139.2 86.5 139.6 86.4C140 86.3 140.4 86.2 140.7 86C141 85.8 141.3 85.5 141.5 85.2C141.7 84.9 141.9 84.5 141.9 84.1C142 83.7 142 83.3 141.9 82.9C141.8 82.5 141.7 82.2 141.4 81.9C141.2 81.6 140.9 81.3 140.5 81.1C140.1 80.9 139.7 80.7 139.2 80.7L137.6 80.4C137.1 80.3 136.7 80.3 136.3 80.4C135.9 80.5 135.5 80.6 135.2 80.8C134.9 81 134.6 81.3 134.4 81.6C134.3 81.9 134.1 82.3 134 82.7ZM131.5 90L141.6 91.2L141.2 92.4L136.4 91.7L132.7 91.2L135.8 93.3L139.8 96.1L139.3 97.4L134.4 96.9L130.6 96.5L133.7 98.6L137.8 101.3L137.4 102.4L129 96.6L129.5 95.4L134.6 95.9L138.3 96.3L135.2 94.2L131 91.3L131.5 90ZM126.7 101.4L127.3 100.4L135.8 105.4L133.8 108.8C133.4 109.5 132.8 110 132.2 110.2C131.5 110.4 130.8 110.2 130 109.8C129.4 109.4 128.9 109 128.7 108.5C128.5 108 128.4 107.4 128.6 106.8L123.7 106.6L124.4 105.4L129.1 105.7L130.3 103.7L126.7 101.4ZM129.8 106.4C129.6 106.8 129.5 107.2 129.6 107.5C129.7 107.8 129.9 108.1 130.3 108.4L130.9 108.8C131.3 109 131.7 109.1 132 109C132.3 108.9 132.6 108.6 132.9 108.2L134.3 105.8L131.2 104L129.8 106.4ZM122.5 108.2L130.2 114.3L126.5 119L125.7 118.4L128.7 114.6L126.1 112.6L123.3 116.2L122.5 115.6L125.3 112L122.6 109.9L119.6 113.7L118.8 113.1L122.5 108.2ZM117.2 114.6L124 121.7L119.7 125.9L119 125.1L122.5 121.7L120.2 119.3L116.9 122.5L116.2 121.7L119.5 118.5L117.1 116L113.6 119.4L112.9 118.6L117.2 114.6ZM111 120.3L116.9 128.2L116 128.9L110.7 121.9L107.3 124.4L106.7 123.6L111 120.3ZM99.5 127.4C100.2 127 100.9 126.9 101.5 126.9C102.1 126.9 102.8 127.1 103.4 127.4L102.9 128.4C102.4 128.1 101.9 128 101.4 128C100.9 128 100.4 128.1 99.9 128.3C99.3 128.6 98.9 129 98.7 129.5C98.5 130 98.6 130.5 98.8 131C99 131.4 99.3 131.7 99.7 131.8C100.1 131.9 100.6 131.9 101.2 131.7L102 131.5C102.9 131.3 103.7 131.3 104.3 131.4C104.9 131.6 105.4 132 105.7 132.7C105.9 133.1 106 133.5 106 133.8C106 134.2 105.9 134.5 105.8 134.9C105.6 135.2 105.4 135.5 105.1 135.8C104.8 136.1 104.4 136.3 104 136.5C103.3 136.8 102.7 137 102.1 137C101.5 137 100.9 136.8 100.4 136.5L100.9 135.5C101.3 135.7 101.7 135.8 102.2 135.9C102.6 135.9 103.1 135.8 103.6 135.5C104.2 135.2 104.5 134.9 104.8 134.5C105 134.1 105 133.7 104.8 133.2C104.6 132.8 104.3 132.5 103.9 132.4C103.5 132.3 103 132.4 102.4 132.5L101.6 132.7C100.6 132.9 99.9 133 99.3 132.7C98.7 132.5 98.3 132.1 97.9 131.4C97.7 131 97.6 130.6 97.6 130.2C97.6 129.8 97.6 129.4 97.8 129.1C97.9 128.7 98.2 128.4 98.5 128.1C98.7 127.9 99 127.6 99.5 127.4ZM90.1 136L94.8 134.5L93.4 130.3L94.5 129.9L97.5 139.3L96.4 139.7L95.1 135.6L90.4 137.1L91.7 141.2L90.6 141.6L87.6 132.2L88.7 131.8L90.1 136ZM81.3 133.1C81.9 133 82.5 133 83.1 133.2C83.6 133.3 84.1 133.6 84.5 134C84.9 134.4 85.3 134.9 85.6 135.5C85.9 136.1 86.1 136.8 86.2 137.6C86.3 138.4 86.3 139.2 86.2 139.8C86.1 140.5 85.9 141 85.6 141.5C85.3 142 84.9 142.4 84.4 142.7C83.9 143 83.4 143.2 82.7 143.3C82.1 143.4 81.5 143.4 80.9 143.2C80.4 143.1 79.9 142.8 79.4 142.4C79 142 78.6 141.5 78.3 140.9C78 140.3 77.8 139.6 77.7 138.8C77.6 138 77.6 137.2 77.7 136.6C77.8 135.9 78 135.4 78.3 134.9C78.6 134.4 79 134 79.5 133.7C80.2 133.4 80.7 133.2 81.3 133.1ZM81.5 134.2C81.1 134.3 80.7 134.4 80.4 134.6C80.1 134.8 79.8 135.1 79.6 135.4C79.4 135.7 79.2 136.1 79.2 136.5C79.1 136.9 79.1 137.4 79.2 137.8L79.4 139.4C79.5 139.9 79.6 140.3 79.8 140.7C80 141.1 80.2 141.4 80.5 141.6C80.8 141.8 81.1 142 81.5 142.1C81.9 142.2 82.3 142.2 82.7 142.1C83.1 142 83.5 141.9 83.8 141.7C84.1 141.5 84.4 141.2 84.6 140.9C84.8 140.6 85 140.2 85 139.8C85.1 139.4 85.1 138.9 85 138.5L84.8 136.9C84.7 136.4 84.6 136 84.4 135.6C84.2 135.2 84 134.9 83.7 134.7C83.4 134.5 83.1 134.3 82.7 134.2C82.3 134.1 81.9 134.1 81.5 134.2ZM73.7 134.1L75.8 144H74.5L73.6 139.2L72.9 135.5L71.9 139.2L70.5 143.9H69.1L68 139.1L67.2 135.4L66.2 139L64.9 143.7H63.7L66.5 133.9H67.8L68.9 138.8L69.7 142.4L70.7 138.8L72.2 133.9L73.7 134.1ZM61.4 133.1L62.6 133.3L60.6 143L56.8 142.2C56 142 55.3 141.7 55 141.1C54.6 140.5 54.5 139.8 54.7 138.9C54.8 138.2 55.1 137.6 55.6 137.3C56 136.9 56.6 136.7 57.2 136.7L55.9 132L57.2 132.3L58.4 136.9L60.7 137.4L61.4 133.1ZM57.6 137.7C57.1 137.6 56.8 137.7 56.5 137.8C56.2 138 56 138.3 55.9 138.7L55.8 139.4C55.7 139.8 55.8 140.2 56 140.5C56.2 140.8 56.5 141 57 141.1L59.7 141.7L60.4 138.2L57.6 137.7ZM53.7 131.3L50.4 140.6L44.7 138.6L45.1 137.6L49.6 139.2L50.7 136.1L46.4 134.6L46.8 133.6L51.1 135.1L52.3 131.9L47.8 130.3L48.2 129.3L53.7 131.3ZM45.9 128.3L41.4 137L36.1 134.2L36.6 133.3L40.9 135.5L42.4 132.6L38.4 130.5L38.9 129.6L42.9 131.7L44.5 128.7L40.2 126.5L40.7 125.6L45.9 128.3ZM38.6 124.3L33 132.4L32 131.7L37 124.5L33.6 122.1L34.2 121.2L38.6 124.3ZM28.2 115.6C28.8 116.2 29.1 116.8 29.3 117.4C29.5 118 29.5 118.7 29.4 119.3L28.3 119.2C28.4 118.6 28.4 118.1 28.2 117.6C28 117.1 27.8 116.7 27.4 116.3C26.9 115.8 26.4 115.5 25.9 115.5C25.4 115.5 24.9 115.7 24.5 116.1C24.2 116.4 24 116.8 24 117.2C24 117.6 24.2 118.1 24.6 118.6L25 119.3C25.5 120.1 25.8 120.8 25.8 121.4C25.8 122 25.6 122.6 25 123.2C24.7 123.5 24.4 123.7 24 123.8C23.6 123.9 23.3 124 22.9 123.9C22.5 123.9 22.2 123.7 21.8 123.5C21.4 123.3 21.1 123 20.7 122.7C20.2 122.2 19.8 121.6 19.6 121.1C19.4 120.5 19.4 119.9 19.5 119.3L20.6 119.5C20.5 120 20.5 120.4 20.7 120.8C20.8 121.2 21.1 121.6 21.5 122C21.9 122.4 22.4 122.7 22.8 122.8C23.2 122.9 23.7 122.7 24 122.3C24.3 122 24.5 121.6 24.4 121.2C24.4 120.8 24.2 120.4 23.8 119.8L23.4 119.1C22.9 118.3 22.6 117.5 22.6 116.9C22.6 116.3 22.9 115.7 23.4 115.2C23.7 114.9 24.1 114.6 24.4 114.5C24.8 114.4 25.1 114.3 25.5 114.3C25.9 114.3 26.3 114.4 26.7 114.6C27.4 115 27.8 115.3 28.2 115.6ZM17 109.5L20 113.5L23.6 110.8L24.3 111.8L16.4 117.7L15.7 116.7L19.2 114.1L16.2 110.1L12.7 112.7L12 111.7L19.9 105.8L20.6 106.8L17 109.5ZM16.9 100.2C17.2 100.8 17.4 101.3 17.4 101.9C17.4 102.5 17.4 103 17.1 103.5C16.9 104 16.5 104.5 16.1 105C15.6 105.5 15 105.9 14.3 106.3C13.6 106.7 12.9 106.9 12.2 107C11.5 107.1 10.9 107.1 10.4 107C9.8 106.9 9.4 106.6 8.9 106.3C8.5 105.9 8.1 105.5 7.8 104.9C7.5 104.3 7.3 103.8 7.3 103.2C7.3 102.6 7.3 102.1 7.6 101.6C7.8 101.1 8.2 100.6 8.6 100.1C9.1 99.6 9.7 99.2 10.4 98.8C11.1 98.4 11.8 98.2 12.5 98.1C13.2 98 13.8 98 14.3 98.1C14.8 98.2 15.3 98.5 15.8 98.8C16.3 99.2 16.6 99.7 16.9 100.2ZM16 100.7C15.8 100.3 15.6 100 15.3 99.8C15 99.6 14.7 99.4 14.3 99.3C13.9 99.2 13.5 99.2 13.1 99.2C12.7 99.3 12.3 99.4 11.8 99.6L10.3 100.4C9.9 100.6 9.5 100.9 9.2 101.2C8.9 101.5 8.7 101.8 8.6 102.2C8.5 102.6 8.4 102.9 8.4 103.3C8.4 103.7 8.5 104.1 8.7 104.4C8.9 104.8 9.1 105.1 9.4 105.3C9.7 105.5 10 105.7 10.4 105.8C10.8 105.9 11.2 105.9 11.6 105.9C12 105.8 12.4 105.7 12.9 105.5L14.4 104.7C14.8 104.5 15.2 104.2 15.5 103.9C15.8 103.6 16 103.3 16.1 102.9C16.2 102.5 16.3 102.2 16.3 101.8C16.3 101.5 16.2 101.1 16 100.7ZM13.6 93.3L4.9 98.4L4.5 97.2L8.7 94.8L12 93L8.2 93.2L3.3 93.4L2.9 92.1L7.1 89.6L10.3 87.7L6.5 88L1.6 88.3L1.4 87L11.6 86.6L12 87.9L7.7 90.6L4.5 92.5L8.2 92.3L13.3 92.1L13.6 93.3ZM10.6 81.3L10.7 82.5L0.9 83.7L0.4 79.8C0.3 78.9 0.5 78.2 0.9 77.7C1.3 77.2 2 76.8 2.9 76.7C3.6 76.6 4.2 76.7 4.7 77C5.2 77.3 5.6 77.7 5.8 78.4L9.8 75.6L10 76.9L6 79.5L6.3 81.8L10.6 81.3ZM5 79.2C4.9 78.7 4.8 78.4 4.5 78.2C4.2 78 3.9 77.9 3.4 77.9L2.7 78C2.3 78.1 1.9 78.2 1.7 78.5C1.5 78.8 1.4 79.2 1.5 79.6L1.8 82.3L5.3 81.9L5 79.2ZM9.8 73.4L0 73.2L0.1 67.2H1.1L1.1 72L4.4 72.1L4.5 67.6H5.5L5.4 72.1L8.8 72.2L8.9 67.4H9.9L9.8 73.4ZM10.2 65.1L0.5 63.6L1.4 57.7L2.4 57.9L1.7 62.7L4.9 63L5.6 58.5L6.6 58.7L6 63.2L9.4 63.7L10.1 58.9L11.1 59.1L10.2 65.1ZM11.7 56.8L2.2 54.1L2.5 53L11 55.4L12.2 51.4L13.2 51.7L11.7 56.8ZM16.6 44.2C16.2 44.9 15.8 45.5 15.3 45.8C14.8 46.2 14.2 46.4 13.5 46.5L13.2 45.4C13.8 45.3 14.3 45.1 14.7 44.8C15.1 44.5 15.4 44.1 15.7 43.6C16 43 16.1 42.4 16 41.9C15.9 41.4 15.5 41 15 40.8C14.6 40.6 14.2 40.6 13.8 40.7C13.4 40.8 13.1 41.2 12.6 41.7L12.1 42.3C11.5 43 10.9 43.5 10.3 43.7C9.7 43.9 9.1 43.9 8.4 43.5C8 43.5 7.7 43.3 7.5 43C7.3 42.7 7.1 42.4 7 42C7 41.6 7 41.3 7 40.8C7.1 40.4 7.2 40 7.4 39.5C7.7 38.8 8.1 38.3 8.6 38C9.1 37.6 9.6 37.4 10.3 37.3L10.5 38.4C10 38.5 9.6 38.6 9.3 38.9C8.9 39.1 8.6 39.5 8.4 40C8.1 40.6 8 41.1 8.1 41.5C8.2 41.9 8.5 42.3 8.9 42.5C9.3 42.7 9.7 42.7 10.1 42.6C10.5 42.5 10.8 42.1 11.2 41.6L11.7 41C12.3 40.2 12.9 39.8 13.5 39.6C14.1 39.4 14.7 39.5 15.4 39.8C15.8 40 16.1 40.3 16.4 40.6C16.7 40.9 16.8 41.2 16.9 41.6C17 42 17 42.4 17 42.8C16.9 43.3 16.8 43.7 16.6 44.2ZM18.9 31.6L16 35.7L19.7 38.3L19 39.3L10.9 33.6L11.6 32.6L15.2 35.1L18 31L14.4 28.5L15.1 27.5L23.2 33.2L22.5 34.2L18.9 31.6ZM27.6 28.7C27.2 29.2 26.7 29.5 26.2 29.7C25.7 29.9 25.1 30 24.6 30C24 30 23.5 29.8 22.9 29.5C22.3 29.2 21.7 28.8 21.1 28.2C20.5 27.6 20.1 27 19.7 26.5C19.4 25.9 19.2 25.3 19.1 24.8C19 24.2 19.1 23.7 19.3 23.2C19.5 22.7 19.8 22.2 20.3 21.7C20.7 21.2 21.2 20.9 21.7 20.7C22.2 20.5 22.8 20.4 23.3 20.4C23.9 20.4 24.4 20.6 25 20.9C25.6 21.2 26.2 21.6 26.8 22.2C27.4 22.8 27.8 23.4 28.2 23.9C28.5 24.5 28.7 25.1 28.8 25.6C28.9 26.2 28.8 26.7 28.6 27.2C28.4 27.7 28.1 28.2 27.6 28.7ZM26.9 27.9C27.2 27.6 27.4 27.3 27.6 26.9C27.7 26.5 27.8 26.2 27.8 25.8C27.8 25.4 27.7 25 27.5 24.7C27.3 24.3 27 24 26.7 23.6L25.5 22.5C25.1 22.2 24.8 21.9 24.4 21.7C24 21.5 23.6 21.4 23.3 21.4C22.9 21.4 22.5 21.5 22.2 21.6C21.9 21.7 21.5 22 21.2 22.3C20.9 22.6 20.7 22.9 20.5 23.3C20.4 23.7 20.3 24 20.3 24.4C20.3 24.8 20.4 25.2 20.6 25.5C20.8 25.9 21.1 26.2 21.4 26.6L22.6 27.7C23 28 23.3 28.3 23.7 28.5C24.1 28.7 24.5 28.8 24.8 28.8C25.2 28.8 25.6 28.7 25.9 28.6C26.2 28.5 26.6 28.2 26.9 27.9ZM33.1 23.3L25.4 16.7L26.4 16L30 19.3L32.8 21.8L31.4 18.3L29.7 13.7L30.8 12.9L34.5 16.1L37.4 18.6L36 15.1L34.2 10.6L35.2 9.9L38.8 19.4L37.7 20.2L33.8 16.9L31 14.5L32.3 18L34.1 22.8L33.1 23.3ZM43.5 16.6L42.4 17.1L38.2 8.2L41.7 6.5C42.5 6.1 43.2 6.1 43.8 6.3C44.4 6.5 45 7 45.3 7.9C45.6 8.6 45.7 9.2 45.6 9.7C45.5 10.3 45.2 10.8 44.7 11.2L48.6 14.2L47.4 14.8L43.7 11.9L41.6 12.9L43.5 16.6ZM43.7 10.7C44.1 10.5 44.4 10.2 44.5 9.9C44.6 9.6 44.6 9.2 44.4 8.8L44.1 8.1C43.9 7.7 43.6 7.4 43.3 7.3C43 7.2 42.6 7.2 42.2 7.4L39.7 8.6L41.2 11.8L43.7 10.7ZM50.8 13.4L47.8 4L53.5 2.2L53.8 3.2L49.2 4.6L50.2 7.8L54.5 6.4L54.8 7.4L50.5 8.8L51.5 12.1L56.1 10.7L56.4 11.7L50.8 13.4ZM58.8 11.1L57.2 1.4L63.1 0.4L63.3 1.4L58.5 2.2L59 5.5L63.5 4.7L63.7 5.7L59.2 6.5L59.8 9.9L64.6 9.1L64.8 10.1L58.8 11.1ZM67 9.9L66.6 0.1L67.8 0L68.2 8.8L72.4 8.6V9.6L67 9.9Z" fill="#F5EFE3"/>
<path d="M108.4 71.9C100.1 62.4 88.7004 51.4 73.5004 51.4C67.4004 51.4 61.7004 53.1 55.8004 56.8C50.8004 59.9 45.7004 64.4 38.6004 71.6L38.4004 71.8L39.6004 73.1C49.7004 83.4 58.4004 92.3 73.4004 92.3C80.1004 92.3 86.5004 90.1 93.2004 85.7C98.8004 81.9 103.6 77 107.5 73.1L108.5 72.1L108.4 71.9ZM73.5004 54.3C79.5004 54.3 85.3004 56 91.2004 59.9C95.6004 62.7 99.9004 66.6 104.7 72C97.7004 79.1 87.2004 89.4 73.5004 89.4C67.3004 89.4 61.8004 87.9 56.3004 84.2C51.3004 80.9 46.8004 76.3 42.4004 71.8C53.2004 61 62.2004 54.3 73.5004 54.3ZM73.5004 86.5C81.6004 86.5 88.1004 79.9 88.1004 71.9C88.1004 63.9 81.5004 57.3 73.5004 57.3C65.5004 57.3 58.9004 63.9 58.9004 71.9C58.9004 79.9 65.4004 86.5 73.5004 86.5ZM73.5004 60.2C79.9004 60.2 85.2004 65.4 85.2004 71.8C85.2004 78.2 79.9004 83.4 73.5004 83.4C67.1004 83.4 61.8004 78.2 61.8004 71.8C61.8004 65.4 67.1004 60.2 73.5004 60.2ZM79.3004 71.9C79.3004 75.1 76.7004 77.7 73.5004 77.7C70.3004 77.7 67.6004 74.9 67.6004 71.7C67.6004 68.5 70.5004 66 73.4004 66V63.1C68.6004 63.1 64.7004 67 64.7004 71.9C64.7004 76.8 68.6004 80.7 73.4004 80.7C78.2004 80.7 82.2004 76.8 82.2004 71.9H79.3004Z" fill="#F5EFE3"/>
</g>
<defs>
<clipPath id="clip0_14_406">
<rect width="144" height="144" fill="white"/>
</clipPath>
</defs>
</svg>
