<svg id="showreel-triger-object" xmlns="http://www.w3.org/2000/svg" xmlns:xlink="http://www.w3.org/1999/xlink" x="0px" y="0px" viewBox="0 0 144 144" shape-rendering="geometricPrecision"
  text-rendering="geometricPrecision" width="144px" height="144px" style="enable-background:new 0 0 144 144;" xml:space="preserve">
  <style>
    #rotation-group {
      animation: rotateInfinite 7000ms linear infinite normal forwards
    }
    @keyframes rotateInfinite {
      0% {
        transform: translate(72px,72px) rotate(0deg);
        }
      100% {
        transform: translate(72px,72px) rotate(360deg);
        }
    }
  </style>
  <g id="rotation-group" transform="translate(72,72) rotate(360)">
    <path fill="#f5efe3" d="M83.5,11c-.8-.1-1.4-.4-1.9-.8s-.9-.9-1.2-1.5l1-.6c.3.5.6.9.9,1.2s.8.5,1.4.6c.7.1,1.3.1,1.7-.2s.7-.7.8-1.2s0-.8-.2-1.1-.7-.6-1.3-.9L84,6.2c-.8-.4-1.5-.8-1.9-1.3s-.5-1.1-.4-1.9c.1-.4.2-.8.4-1.1s.5-.5.8-.7.7-.3,1.1-.3.9,0,1.3.1c.7.1,1.3.4,1.8.8s.8.8,1.1,1.4l-1,.5c-.2-.4-.5-.8-.8-1.1s-.8-.5-1.4-.6-1.1-.1-1.5.1-.7.6-.8,1.1s0,.8.3,1.1.7.6,1.3.8l.8.3c.9.4,1.5.8,1.9,1.4.3.5.4,1.1.3,1.9-.1.4-.2.8-.5,1.2-.2.3-.5.6-.8.8s-.6.3-1.1.3c-.4.1-.9.1-1.4,0ZM96.2,9.8L91.5,8.2L90,12.4L88.9,12l3.2-9.3l1.1.4-1.4,4.1l4.7,1.6L98,4.7l1.1.4-3.2,9.3-1.1-.4l1.4-4.2Zm5.3,7.6c-.6-.3-1-.7-1.4-1.1-.3-.4-.6-.9-.7-1.5-.1-.5-.1-1.2,0-1.8s.4-1.3.8-2.1c.4-.7.8-1.3,1.3-1.8s1-.8,1.5-1s1.1-.3,1.6-.2c.6,0,1.1.2,1.7.5s1,.7,1.4,1.1c.3.4.6.9.7,1.5s.1,1.2,0,1.8-.4,1.3-.8,2.1c-.4.7-.8,1.3-1.3,1.8s-1,.8-1.5,1-1.1.3-1.6.2c-.6-.1-1.2-.2-1.7-.5Zm.5-1c.4.2.8.3,1.1.4.4,0,.8,0,1.1-.1.4-.1.7-.3,1-.6s.6-.6.8-1.1l.8-1.4c.2-.4.4-.9.4-1.3.1-.4.1-.8,0-1.2s-.3-.7-.5-1-.5-.6-.9-.8-.8-.3-1.1-.4c-.4,0-.8,0-1.1.1-.4.1-.7.3-1,.6s-.6.6-.8,1.1l-.8,1.4c-.2.4-.4.9-.4,1.3-.1.4-.1.8,0,1.2s.3.7.5,1c.2.4.5.6.9.8Zm6.1,4.8l4.3-9.2l1,.8-2.2,4.4-1.7,3.4v0l3-2.3l3.9-2.9l1.1.9-2,4.4-1.6,3.4v0l3-2.3l3.8-3l.9.8-8.1,6.1-1-.8l2.1-4.6l1.6-3.4v0l-3,2.2-4.1,3-1-.9Zm9.3,8.2l-.8-.9L124,22l2.6,3c.6.7.8,1.3.8,2s-.4,1.3-1.1,1.9c-.5.5-1.1.7-1.7.8s-1.1-.1-1.7-.5l-1.8,4.6-.9-1l1.8-4.4-1.5-1.7-3.1,2.7Zm5.7-1.4c.3.4.6.5,1,.6.4,0,.7-.1,1-.4l.6-.5c.3-.3.5-.6.5-1s-.1-.7-.4-1.1L124,23.5l-2.7,2.3l1.8,2.2Zm-.6,7.5l8.2-5.4l3.3,5-.9.6-2.6-4-2.8,1.8l2.5,3.8-.9.6-2.5-3.8L124,36l2.6,4-.9.6-3.2-5.1Zm4.4,7.1l8.9-4.2l2.6,5.4-.9.4-2.1-4.4-3,1.4l2,4.1-.9.5-2-4.1-3.1,1.5l2.1,4.4-.9.5-2.7-5.5Zm3.4,7.6l9.4-3.1.4,1.1-8.4,2.8l1.3,4-1,.3-1.7-5.1Zm3.1,13.2c-.1-.8,0-1.5.2-2.1s.6-1.1,1.1-1.6l.8.8c-.4.4-.7.8-.9,1.3s-.2,1-.2,1.5c.1.7.3,1.2.7,1.5s.9.4,1.4.4c.5-.1.8-.3,1-.6s.4-.8.4-1.5l.1-.8c.1-.9.3-1.6.7-2.2.4-.5.9-.8,1.7-.9.4-.1.8,0,1.2.1s.7.3.9.5c.3.3.5.6.6,1c.2.4.3.8.4,1.3.1.7.1,1.4-.1,2s-.5,1.1-1,1.5l-.8-.8c.3-.3.6-.7.7-1.1.2-.4.2-.9.1-1.5s-.3-1.1-.6-1.4-.7-.4-1.3-.4c-.5.1-.8.3-1,.6s-.3.8-.4,1.5l-.1.8c-.1,1-.3,1.7-.7,2.2s-.9.8-1.7.9c-.4.1-.9,0-1.2-.1-.4-.1-.7-.3-1-.5-.3-.3-.5-.6-.7-1s-.3-.9-.3-1.4Zm5.1,11.7l.1-5-4.5-.1v-1.2l9.9.2v1.2l-4.3-.1-.1,5l4.3.1v1.2l-9.9-.2v-1.2l4.5.1ZM133,82.5c.1-.6.3-1.2.6-1.6.3-.5.7-.8,1.2-1.1s1.1-.5,1.7-.6c.7-.1,1.4-.1,2.2.1.8.1,1.5.4,2.1.7s1.1.7,1.4,1.1c.4.4.6.9.7,1.5.1.5.1,1.1,0,1.8-.1.6-.3,1.2-.6,1.6-.3.5-.7.9-1.2,1.1-.5.3-1.1.5-1.7.6-.7.1-1.4.1-2.2-.1-.8-.1-1.5-.4-2.1-.7s-1.1-.7-1.4-1.1c-.4-.4-.6-.9-.7-1.5s-.1-1.2,0-1.8Zm1,.2c-.1.4-.1.8,0,1.2s.2.7.5,1c.2.3.5.6.9.8s.8.4,1.3.4l1.6.3c.5.1.9.1,1.3,0s.8-.2,1.1-.4.6-.5.8-.8.4-.7.4-1.1c.1-.4.1-.8,0-1.2s-.2-.7-.5-1c-.2-.3-.5-.6-.9-.8s-.8-.4-1.3-.4l-1.6-.3c-.5-.1-.9-.1-1.3,0s-.8.2-1.1.4-.6.5-.8.8c-.1.3-.3.7-.4,1.1ZM131.5,90l10.1,1.2-.4,1.2-4.8-.7-3.7-.5v0l3.1,2.1l4,2.8-.5,1.3-4.9-.5-3.8-.4v0l3.1,2.1l4.1,2.7-.4,1.1-8.4-5.8.5-1.2l5.1.5l3.7.4v0l-3.1-2.1-4.2-2.9.5-1.3Zm-4.8,11.4l.6-1l8.5,5-2,3.4c-.4.7-1,1.2-1.6,1.4-.7.2-1.4,0-2.2-.4-.6-.4-1.1-.8-1.3-1.3s-.3-1.1-.1-1.7l-4.9-.2.7-1.2l4.7.3l1.2-2-3.6-2.3Zm3.1,5c-.2.4-.3.8-.2,1.1s.3.6.7.9l.6.4c.4.2.8.3,1.1.2s.6-.4.9-.8l1.4-2.4-3.1-1.8-1.4,2.4Zm-7.3,1.8l7.7,6.1-3.7,4.7-.8-.6l3-3.8-2.6-2-2.8,3.6-.8-.6l2.8-3.6-2.7-2.1-3,3.8-.8-.6l3.7-4.9Zm-5.3,6.4l6.8,7.1-4.3,4.2-.7-.8l3.5-3.4-2.3-2.4-3.3,3.2-.7-.8l3.3-3.2-2.4-2.5-3.5,3.4-.7-.8l4.3-4Zm-6.2,5.7l5.9,7.9-.9.7-5.3-7-3.4,2.5-.6-.8l4.3-3.3Zm-11.5,7.1c.7-.4,1.4-.5,2-.5s1.3.2,1.9.5l-.5,1c-.5-.3-1-.4-1.5-.4s-1,.1-1.5.3c-.6.3-1,.7-1.2,1.2s-.1,1,.1,1.5c.2.4.5.7.9.8s.9.1,1.5-.1l.8-.2c.9-.2,1.7-.2,2.3-.1.6.2,1.1.6,1.4,1.3.2.4.3.8.3,1.1c0,.4-.1.7-.2,1.1-.2.3-.4.6-.7.9s-.7.5-1.1.7c-.7.3-1.3.5-1.9.5s-1.2-.2-1.7-.5l.5-1c.4.2.8.3,1.3.4.4,0,.9-.1,1.4-.4.6-.3.9-.6,1.2-1c.2-.4.2-.8,0-1.3-.2-.4-.5-.7-.9-.8s-.9,0-1.5.1l-.8.2c-1,.2-1.7.3-2.3,0-.6-.2-1-.6-1.4-1.3-.2-.4-.3-.8-.3-1.2s0-.8.2-1.1c.1-.4.4-.7.7-1c.2-.2.5-.5,1-.7ZM90.1,136l4.7-1.5-1.4-4.2l1.1-.4l3,9.4-1.1.4-1.3-4.1-4.7,1.5l1.3,4.1-1.1.4-3-9.4l1.1-.4l1.4,4.2Zm-8.8-2.9c.6-.1,1.2-.1,1.8.1.5.1,1,.4,1.4.8s.8.9,1.1,1.5.5,1.3.6,2.1.1,1.6,0,2.2c-.1.7-.3,1.2-.6,1.7s-.7.9-1.2,1.2-1,.5-1.7.6c-.6.1-1.2.1-1.8-.1-.5-.1-1-.4-1.5-.8-.4-.4-.8-.9-1.1-1.5s-.5-1.3-.6-2.1-.1-1.6,0-2.2c.1-.7.3-1.2.6-1.7s.7-.9,1.2-1.2c.7-.3,1.2-.5,1.8-.6Zm.2,1.1c-.4.1-.8.2-1.1.4s-.6.5-.8.8-.4.7-.4,1.1c-.1.4-.1.9,0,1.3l.2,1.6c.1.5.2.9.4,1.3s.4.7.7.9.6.4,1,.5.8.1,1.2,0s.8-.2,1.1-.4.6-.5.8-.8.4-.7.4-1.1c.1-.4.1-.9,0-1.3l-.2-1.6c-.1-.5-.2-.9-.4-1.3s-.4-.7-.7-.9-.6-.4-1-.5-.8-.1-1.2,0Zm-7.8-.1l2.1,9.9h-1.3l-.9-4.8-.7-3.7v0l-1,3.7-1.4,4.7h-1.4L68,139.1l-.8-3.7v0l-1,3.6-1.3,4.7h-1.2l2.8-9.8h1.3l1.1,4.9.8,3.6v0l1-3.6l1.5-4.9l1.5.2Zm-12.3-1l1.2.2-2,9.7-3.8-.8c-.8-.2-1.5-.5-1.8-1.1-.4-.6-.5-1.3-.3-2.2.1-.7.4-1.3.9-1.6.4-.4,1-.6,1.6-.6L55.9,132l1.3.3l1.2,4.6l2.3.5.7-4.3Zm-3.8,4.6c-.5-.1-.8,0-1.1.1-.3.2-.5.5-.6.9l-.1.7c-.1.4,0,.8.2,1.1s.5.5,1,.6l2.7.6.7-3.5-2.8-.5Zm-3.9-6.4l-3.3,9.3-5.7-2l.4-1l4.5,1.6l1.1-3.1-4.3-1.5.4-1l4.3,1.5l1.2-3.2-4.5-1.6.4-1l5.5,2Zm-7.8-3L41.4,137l-5.3-2.8.5-.9l4.3,2.2l1.5-2.9-4-2.1.5-.9l4,2.1l1.6-3-4.3-2.2.5-.9l5.2,2.7Zm-7.3-4L33,132.4l-1-.7l5-7.2-3.4-2.4.6-.9l4.4,3.1Zm-10.4-8.7c.6.6.9,1.2,1.1,1.8s.2,1.3.1,1.9l-1.1-.1c.1-.6.1-1.1-.1-1.6s-.4-.9-.8-1.3c-.5-.5-1-.8-1.5-.8s-1,.2-1.4.6c-.3.3-.5.7-.5,1.1s.2.9.6,1.4l.4.7c.5.8.8,1.5.8,2.1s-.2,1.2-.8,1.8c-.3.3-.6.5-1,.6s-.7.2-1.1.1c-.4,0-.7-.2-1.1-.4s-.7-.5-1.1-.8c-.5-.5-.9-1.1-1.1-1.6-.2-.6-.2-1.2-.1-1.8l1.1.2c-.1.5-.1.9.1,1.3.1.4.4.8.8,1.2s.9.7,1.3.8.9-.1,1.2-.5c.3-.3.5-.7.4-1.1c0-.4-.2-.8-.6-1.4l-.4-.7c-.5-.8-.8-1.6-.8-2.2s.3-1.2.8-1.7c.3-.3.7-.6,1-.7.4-.1.7-.2,1.1-.2s.8.1,1.2.3c.7.4,1.1.7,1.5,1ZM17,109.5l3,4l3.6-2.7.7,1-7.9,5.9-.7-1l3.5-2.6-3-4-3.5,2.6-.7-1l7.9-5.9.7,1-3.6,2.7Zm-.1-9.3c.3.6.5,1.1.5,1.7s0,1.1-.3,1.6c-.2.5-.6,1-1,1.5-.5.5-1.1.9-1.8,1.3s-1.4.6-2.1.7-1.3.1-1.8,0c-.6-.1-1-.4-1.5-.7-.4-.4-.8-.8-1.1-1.4s-.5-1.1-.5-1.7s0-1.1.3-1.6c.2-.5.6-1,1-1.5.5-.5,1.1-.9,1.8-1.3s1.4-.6,2.1-.7s1.3-.1,1.8,0s1,.4,1.5.7c.5.4.8.9,1.1,1.4Zm-.9.5c-.2-.4-.4-.7-.7-.9s-.6-.4-1-.5-.8-.1-1.2-.1c-.4.1-.8.2-1.3.4l-1.5.8c-.4.2-.8.5-1.1.8s-.5.6-.6,1-.2.7-.2,1.1.1.8.3,1.1c.2.4.4.7.7.9s.6.4,1,.5.8.1,1.2.1c.4-.1.8-.2,1.3-.4l1.5-.8c.4-.2.8-.5,1.1-.8s.5-.6.6-1s.2-.7.2-1.1c0-.3-.1-.7-.3-1.1Zm-2.4-7.4L4.9,98.4l-.4-1.2l4.2-2.4L12,93v0l-3.8.2-4.9.2-.4-1.3l4.2-2.5l3.2-1.9v0L6.5,88l-4.9.3L1.4,87l10.2-.4.4,1.3-4.3,2.7-3.2,1.9v0l3.7-.2l5.1-.2.3,1.2Zm-3-12l.1,1.2-9.8,1.2-.5-3.9c-.1-.9.1-1.6.5-2.1s1.1-.9,2-1c.7-.1,1.3,0,1.8.3s.9.7,1.1,1.4l4-2.8.2,1.3-4,2.6.3,2.3l4.3-.5ZM5,79.2c-.1-.5-.2-.8-.5-1s-.6-.3-1.1-.3l-.7.1c-.4.1-.8.2-1,.5s-.3.7-.2,1.1l.3,2.7l3.5-.4L5,79.2Zm4.8-5.8L0,73.2l.1-6h1v4.8l3.3.1.1-4.5h1l-.1,4.5l3.4.1.1-4.8h1l-.1,6Zm.4-8.3L0.5,63.6l.9-5.9l1,.2-.7,4.8l3.2.3.7-4.5l1,.2L6,63.2l3.4.5.7-4.8l1,.2-.9,6Zm1.5-8.3L2.2,54.1L2.5,53L11,55.4l1.2-4l1,.3-1.5,5.1Zm4.9-12.6c-.4.7-.8,1.3-1.3,1.6-.5.4-1.1.6-1.8.7l-.3-1.1c.6-.1,1.1-.3,1.5-.6s.7-.7,1-1.2c.3-.6.4-1.2.3-1.7s-.5-.9-1-1.1c-.4-.2-.8-.2-1.2-.1s-.7.5-1.2,1l-.5.6c-.6.7-1.2,1.2-1.8,1.4s-1.2.2-1.9-.2c-.4,0-.7-.2-.9-.5s-.4-.6-.5-1c0-.4,0-.7,0-1.2.1-.4.2-.8.4-1.3.3-.7.7-1.2,1.2-1.5.5-.4,1-.6,1.7-.7l.2,1.1c-.5.1-.9.2-1.2.5-.4.2-.7.6-.9,1.1-.3.6-.4,1.1-.3,1.5s.4.8.8,1s.8.2,1.2.1.7-.5,1.1-1l.5-.6c.6-.8,1.2-1.2,1.8-1.4s1.2-.1,1.9.2c.4.2.7.5,1,.8s.4.6.5,1s.1.8.1,1.2c-.1.5-.2.9-.4,1.4Zm2.3-12.6L16,35.7l3.7,2.6-.7,1-8.1-5.7.7-1l3.6,2.5L18,31l-3.6-2.5.7-1l8.1,5.7-.7,1-3.6-2.6Zm8.7-2.9c-.4.5-.9.8-1.4,1s-1.1.3-1.6.3c-.6,0-1.1-.2-1.7-.5s-1.2-.7-1.8-1.3-1-1.2-1.4-1.7c-.3-.6-.5-1.2-.6-1.7-.1-.6,0-1.1.2-1.6s.5-1,1-1.5c.4-.5.9-.8,1.4-1s1.1-.3,1.6-.3c.6,0,1.1.2,1.7.5s1.2.7,1.8,1.3s1,1.2,1.4,1.7c.3.6.5,1.2.6,1.7.1.6,0,1.1-.2,1.6s-.5,1-1,1.5Zm-.7-.8c.3-.3.5-.6.7-1c.1-.4.2-.7.2-1.1s-.1-.8-.3-1.1c-.2-.4-.5-.7-.8-1.1l-1.2-1.1c-.4-.3-.7-.6-1.1-.8s-.8-.3-1.1-.3c-.4,0-.8.1-1.1.2s-.7.4-1,.7-.5.6-.7,1c-.1.4-.2.7-.2,1.1s.1.8.3,1.1c.2.4.5.7.8,1.1l1.2,1.1c.4.3.7.6,1.1.8s.8.3,1.1.3c.4,0,.8-.1,1.1-.2s.7-.4,1-.7Zm6.2-4.6l-7.7-6.6l1-.7L30,19.3l2.8,2.5v0l-1.4-3.5-1.7-4.6l1.1-.8l3.7,3.2l2.9,2.5v0L36,15.1l-1.8-4.5l1-.7l3.6,9.5-1.1.8-3.9-3.3L31,14.5v0L32.3,18l1.8,4.8-1,.5Zm10.4-6.7l-1.1.5-4.2-8.9l3.5-1.7c.8-.4,1.5-.4,2.1-.2s1.2.7,1.5,1.6c.3.7.4,1.3.3,1.8-.1.6-.4,1.1-.9,1.5l3.9,3-1.2.6-3.7-2.9-2.1,1l1.9,3.7Zm.2-5.9c.4-.2.7-.5.8-.8s.1-.7-.1-1.1l-.3-.7c-.2-.4-.5-.7-.8-.8s-.7-.1-1.1.1L39.7,8.6l1.5,3.2l2.5-1.1Zm7.1,2.7L47.8,4l5.7-1.8.3,1-4.6,1.4l1,3.2l4.3-1.4.3,1-4.3,1.4l1,3.3l4.6-1.4.3,1-5.6,1.7Zm8-2.3L57.2,1.4l5.9-1l.2,1-4.8.8.5,3.3l4.5-.8.2,1-4.5.8.6,3.4l4.8-.8.2,1-6,1ZM67,9.9l-.4-9.8L67.8,0l.4,8.8l4.2-.2v1L67,9.9Z" transform="translate(-72,-72)"/>
  </g>
  <path fill="#f5efe3" d="M108.4,71.9c-8.3-9.5-19.7-20.5-34.9-20.5-6.1,0-11.8,1.7-17.7,5.4-5,3.1-10.1,7.6-17.2,14.8l-.2.2l1.2,1.3C49.7,83.4,58.4,92.3,73.4,92.3c6.7,0,13.1-2.2,19.8-6.6c5.6-3.8,10.4-8.7,14.3-12.6l1-1-.1-.2ZM73.5,54.3c6,0,11.8,1.7,17.7,5.6c4.4,2.8,8.7,6.7,13.5,12.1-7,7.1-17.5,17.4-31.2,17.4-6.2,0-11.7-1.5-17.2-5.2-5-3.3-9.5-7.9-13.9-12.4C53.2,61,62.2,54.3,73.5,54.3Zm0,32.2c8.1,0,14.6-6.6,14.6-14.6s-6.6-14.6-14.6-14.6-14.6,6.6-14.6,14.6s6.5,14.6,14.6,14.6Zm0-26.3c6.4,0,11.7,5.2,11.7,11.6s-5.3,11.6-11.7,11.6-11.7-5.2-11.7-11.6s5.3-11.6,11.7-11.6Zm5.8,11.7v0c0,3.2-2.6,5.8-5.8,5.8s-5.9-2.8-5.9-6s2.9-5.7,5.8-5.7v-2.9c-4.8,0-8.7,3.9-8.7,8.8s3.9,8.8,8.7,8.8s8.8-3.9,8.8-8.8v0c0,0-2.9,0-2.9,0Z"/>
</svg>
