<svg xmlns="http://www.w3.org/2000/svg" xmlns:xlink="http://www.w3.org/1999/xlink" version="1.1" x="0px" y="0px" viewBox="0 0 100 125" enable-background="new 0 0 100 100" xml:space="preserve"><path fill="#000000" d="M79.383,93.546L50.261,78.244l-29.12,15.301l5.549-32.419L3.146,38.189l32.567-4.747L50.261,3.944  l14.551,29.499l32.564,4.747L73.829,61.126L79.383,93.546z M5.295,38.887l22.47,21.89l-5.296,30.942l27.792-14.604l27.793,14.603  l-5.3-30.941l22.474-21.89l-31.08-4.53L50.261,6.205L36.376,34.356L5.295,38.887z"/><path fill="#000000" d="M75.4,88.063L50.261,74.855L25.124,88.063l4.791-27.986L9.592,40.281l28.113-4.098l12.556-25.458  l12.558,25.458l28.11,4.098L70.605,60.077L75.4,88.063z M11.742,40.979l19.247,18.749l-4.538,26.51l23.811-12.511l23.811,12.511  l-4.541-26.51l19.25-18.749l-26.626-3.881L50.261,12.986L38.37,37.098L11.742,40.979z"/><path fill="#000000" d="M71.418,82.583L50.261,71.467L29.105,82.582l4.032-23.554L16.039,42.374l23.66-3.449l10.563-21.417  l10.564,21.417l23.656,3.448L67.382,59.028L71.418,82.583z M18.188,43.071l16.023,15.608l-3.779,22.077l19.829-10.418L70.09,80.756  l-3.782-22.077L82.334,43.07l-22.172-3.231l-9.9-20.071l-9.899,20.071L18.188,43.071z"/><path fill="#000000" d="M33.087,77.102l3.273-19.122L22.486,44.465l19.206-2.799l8.57-17.377l8.571,17.377l19.202,2.799  L64.158,57.979l3.277,19.121l-17.174-9.022L33.087,77.102z M24.636,45.163L37.435,57.63l-3.02,17.646l15.847-8.326l15.846,8.325  L63.084,57.63l12.803-12.468L58.169,42.58l-7.907-16.03l-7.906,16.03L24.636,45.163z"/><path fill="#000000" d="M37.069,71.62l2.514-14.689l-10.65-10.374l14.751-2.15l6.577-13.336l6.578,13.336l14.747,2.149  L60.935,56.931l2.518,14.688l-13.191-6.93L37.069,71.62z M31.083,47.254l9.575,9.327l-2.261,13.213l11.865-6.233l11.863,6.232  L59.86,56.581l9.578-9.327l-13.263-1.933l-5.914-11.989l-5.913,11.989L31.083,47.254z"/><path fill="#000000" d="M41.051,66.14l1.756-10.258l-7.426-7.232l10.297-1.501l4.584-9.295l4.584,9.295l10.293,1.5l-7.429,7.233  l1.758,10.256l-9.208-4.837L41.051,66.14z M37.53,49.347l6.351,6.186l-1.503,8.781l7.883-4.142l7.879,4.14l-1.504-8.779l6.353-6.187  l-8.807-1.283l-3.92-7.948l-3.92,7.948L37.53,49.347z"/><polygon fill="#000000" points="46.567,54.658 42.903,51.09 48.003,50.347 50.262,45.766 52.521,50.347 57.616,51.089 53.95,54.658   54.821,59.743 50.261,57.348 45.696,59.746 "/><text x="0" y="115" fill="#000000" font-size="5px" font-weight="bold" font-family="'Helvetica Neue', Helvetica, Arial-Unicode, Arial, Sans-serif">Created by Alexandre</text><text x="0" y="120" fill="#000000" font-size="5px" font-weight="bold" font-family="'Helvetica Neue', Helvetica, Arial-Unicode, Arial, Sans-serif">from the Noun Project</text></svg>