<svg width="100" height="125" viewBox="0 0 100 125" fill="none" xmlns="http://www.w3.org/2000/svg">
<path d="M80.9496 110L50.1155 93.879L19.2834 109.999L25.1587 75.8447L0.230469 51.68L34.7122 46.6789L50.1155 15.602L65.522 46.6799L100 51.681L75.0691 75.8447L80.9496 110ZM2.50581 52.4153L26.2969 75.477L20.6895 108.075L50.1155 92.6895L79.5425 108.074L73.9309 75.477L97.7262 52.4153L64.8189 47.6429L50.1155 17.984L35.4141 47.6418L2.50581 52.4153Z" fill="black"/>
<path d="M76.7317 104.224L50.1147 90.3086L23.4999 104.224L28.5725 74.7396L7.05469 53.884L36.8205 49.5666L50.1147 22.746L63.411 49.5666L93.1737 53.884L71.6548 74.7396L76.7317 104.224ZM9.33109 54.6193L29.7097 74.3719L24.9049 102.301L50.1158 89.1202L75.3267 102.301L70.5187 74.3719L90.9004 54.6193L62.709 50.5306L50.1147 25.128L37.5246 50.5306L9.33109 54.6193Z" fill="black"/>
<path d="M72.5157 98.4502L50.1149 86.7392L27.715 98.4492L31.9841 73.6344L13.8809 56.089L38.9319 52.4554L50.1159 29.892L61.301 52.4554L86.3478 56.0879L68.2424 73.6344L72.5157 98.4502ZM16.1562 56.8233L33.1212 73.2667L29.1201 96.5254L50.1149 85.5498L71.1096 96.5254L67.1053 73.2667L84.0735 56.8223L60.598 53.4183L50.1159 32.273L39.6349 53.4183L16.1562 56.8233Z" fill="black"/>
<path d="M31.9313 92.6759L35.3967 72.5303L20.707 58.2919L41.0422 55.3431L50.1161 37.036L59.191 55.3431L79.5219 58.2919L64.829 72.5293L68.2987 92.6738L50.115 83.1688L31.9313 92.6759ZM22.9834 59.0273L36.5349 72.1616L33.3374 90.7521L50.1161 81.9805L66.8937 90.7511L63.6919 72.1616L77.2476 59.0263L58.4879 56.3061L50.1161 39.418L41.7452 56.3061L22.9834 59.0273Z" fill="black"/>
<path d="M36.1466 86.9004L38.8084 71.4251L27.5322 60.4959L43.1505 58.2308L50.1142 44.181L57.0789 58.2308L72.6929 60.4948L61.4157 71.4251L64.0817 86.8993L50.1152 79.5984L36.1466 86.9004ZM29.8086 61.2302L39.9466 71.0564L37.5526 84.9766L50.1152 78.41L62.6757 84.9756L60.2775 71.0564L70.4186 61.2302L56.3758 59.1937L50.1142 46.563L43.8535 59.1937L29.8086 61.2302Z" fill="black"/>
<path d="M40.3637 81.1271L42.2229 70.32L34.3604 62.7009L45.2627 61.1195L50.1162 51.327L54.9697 61.1195L65.8679 62.6998L58.0021 70.32L59.8635 81.1249L50.1141 76.029L40.3637 81.1271ZM36.6357 63.4352L43.3601 69.9523L41.7687 79.2033L50.1152 74.8396L58.4574 79.2012L56.865 69.9523L63.5915 63.4341L54.2667 62.0825L50.1162 53.709L45.9658 62.0825L36.6357 63.4352Z" fill="black"/>
<path d="M46.2036 69.0305L42.3242 65.2716L47.7241 64.4888L50.1159 59.6626L52.5077 64.4888L57.9022 65.2705L54.0207 69.0305L54.9429 74.3877L50.1148 71.8645L45.2814 74.3909L46.2036 69.0305Z" fill="black"/>
</svg>
