<svg width="104" height="104" viewBox="0 0 104 104" fill="none" xmlns="http://www.w3.org/2000/svg">
<g clip-path="url(#clip0_533_2)">
<path fill-rule="evenodd" clip-rule="evenodd" d="M51.84 93.04C89.44 79.2 101.01 65.6 101.01 51.51C101.01 37.42 89.46 23.83 51.84 10C91.52 23.83 103.69 37.4 103.69 51.51C103.69 65.62 91.5 79.2 51.84 93.04ZM51.84 93.04C12.15 79.2 -0.00999384 65.62 6.16163e-06 51.51C0.0100062 37.4 12.16 23.83 51.84 10C14.22 23.83 2.69001 37.43 2.68001 51.51C2.67001 65.59 14.2 79.2 51.84 93.04ZM51.84 93.04C16.44 79.2 5.60001 65.56 5.61001 51.51C5.62001 37.46 16.46 23.83 51.84 10C18.52 23.83 8.31001 37.48 8.30001 51.51C8.30001 65.54 18.5 79.2 51.84 93.04ZM51.84 93.04C20.74 79.2 11.21 65.51 11.22 51.51C11.23 37.5 20.75 23.83 51.84 10C22.81 23.83 13.92 37.53 13.91 51.51C13.91 65.49 22.8 79.2 51.84 93.04ZM51.84 93.04C25.03 79.2 16.82 65.47 16.83 51.51C16.84 37.55 25.04 23.83 51.84 10C27.11 23.83 19.53 37.57 19.52 51.51C19.52 65.45 27.09 79.2 51.84 93.04ZM51.84 93.04C29.34 79.2 22.44 65.43 22.45 51.51C22.46 37.59 29.35 23.83 51.84 10C31.4 23.83 25.14 37.6 25.14 51.51C25.14 65.42 31.39 79.2 51.84 93.04ZM51.84 93.04C33.63 79.2 28.05 65.4 28.06 51.51C28.07 37.62 33.64 23.83 51.84 10C35.69 23.83 30.75 37.63 30.75 51.51C30.75 65.39 35.69 79.2 51.84 93.04ZM51.84 93.04C37.92 79.2 33.66 65.38 33.67 51.51C33.68 37.64 37.93 23.83 51.84 10C39.99 23.83 36.36 37.65 36.36 51.51C36.36 65.37 39.98 79.2 51.84 93.04ZM51.84 93.04C42.22 79.2 39.27 65.36 39.28 51.51C39.29 37.66 42.22 23.83 51.84 10C44.28 23.83 41.97 37.67 41.97 51.51C41.97 65.35 44.27 79.2 51.84 93.04ZM51.84 93.04C46.51 79.2 44.88 65.35 44.89 51.51C44.9 37.67 46.52 23.83 51.84 10C48.57 23.83 47.58 37.68 47.58 51.51C47.58 65.35 48.56 79.2 51.84 93.04ZM51.84 93.04C50.8 79.2 50.5 65.35 50.5 51.51C50.5 37.68 50.81 23.83 51.84 10C52.88 23.83 53.2 37.68 53.2 51.51C53.2 65.34 52.87 79.2 51.84 93.04ZM51.84 93.04C55.1 79.2 56.11 65.35 56.11 51.51C56.11 37.67 55.1 23.83 51.84 10C57.17 23.83 58.81 37.67 58.81 51.51C58.81 65.35 57.16 79.2 51.84 93.04ZM51.84 93.04C59.39 79.2 61.72 65.36 61.72 51.51C61.72 37.67 59.4 23.83 51.84 10C61.46 23.83 64.42 37.66 64.42 51.51C64.42 65.36 61.45 79.2 51.84 93.04ZM51.84 93.04C63.68 79.2 67.33 65.37 67.33 51.51C67.33 37.65 63.69 23.83 51.84 10C65.76 23.83 70.03 37.64 70.03 51.51C70.03 65.38 65.75 79.2 51.84 93.04ZM51.84 93.04C67.98 79.2 72.94 65.39 72.94 51.51C72.94 37.63 67.98 23.83 51.84 10C70.05 23.83 75.65 37.62 75.64 51.51C75.64 65.4 70.04 79.2 51.84 93.04ZM51.84 93.04C72.27 79.2 78.56 65.42 78.56 51.51C78.56 37.6 72.28 23.83 51.84 10C74.34 23.83 81.26 37.59 81.25 51.51C81.25 65.44 74.33 79.2 51.84 93.04ZM51.84 93.04C76.56 79.2 84.17 65.46 84.17 51.51C84.18 37.57 76.57 23.83 51.84 10C78.64 23.83 86.87 37.55 86.86 51.51C86.86 65.47 78.63 79.2 51.84 93.04ZM51.84 93.04C80.86 79.2 89.78 65.5 89.79 51.51C89.79 37.53 80.87 23.83 51.84 10C82.93 23.83 92.48 37.51 92.47 51.51C92.47 65.52 82.92 79.2 51.84 93.04ZM51.84 93.04C85.15 79.2 95.39 65.54 95.4 51.51C95.4 37.48 85.16 23.83 51.84 10C87.22 23.83 98.09 37.46 98.08 51.51C98.08 65.57 87.21 79.2 51.84 93.04Z" fill="black"/>
</g>
<defs>
<clipPath id="clip0_533_2">
<rect width="103.7" height="103.8" fill="white"/>
</clipPath>
</defs>
</svg>
