<?xml version="1.0" encoding="utf-8"?>
<!-- Generator: Adobe Illustrator 24.1.2, SVG Export Plug-In . SVG Version: 6.00 Build 0)  -->
<svg version="1.1" id="Layer_1" xmlns="http://www.w3.org/2000/svg" xmlns:xlink="http://www.w3.org/1999/xlink" x="0px" y="0px"
	 width="65px" height="50px" viewBox="0 0 65 50" style="enable-background:new 0 0 65 50;" xml:space="preserve">
<style type="text/css">
	.st0{opacity:0.1;}
</style>
<path class="st0" d="M19.5,0c4.3,0,7.4,1.1,9.3,3.3c1.9,2.2,2.9,5,2.9,8.5v2.8c0,5.5-1.6,11.5-4.8,18.1c-3.2,6.6-7.7,12.4-13.4,17.3
	H0c4-4.3,7.3-8.3,9.7-12.1c2.5-3.8,4.2-8,5.3-12.7c-2.7-0.7-4.6-1.9-5.9-3.8c-1.3-1.9-1.9-4.1-1.9-6.8v-2.8c0-3.5,1-6.3,2.9-8.5
	C12.1,1.1,15.2,0,19.5,0z M52.8,0c4.3,0,7.4,1.1,9.3,3.3c1.9,2.2,2.9,5,2.9,8.5v2.8c0,5.5-1.6,11.5-4.8,18.1
	C57,39.3,52.5,45.1,46.7,50H33.3c4-4.3,7.3-8.3,9.7-12.1c2.5-3.8,4.2-8,5.3-12.7c-2.7-0.7-4.6-1.9-5.9-3.8c-1.3-1.9-1.9-4.1-1.9-6.8
	v-2.8c0-3.5,1-6.3,2.9-8.5C45.4,1.1,48.5,0,52.8,0z"/>
</svg>
