<?xml version="1.0" encoding="utf-8"?>
<!-- Generator: Adobe Illustrator 24.1.2, SVG Export Plug-In . SVG Version: 6.00 Build 0)  -->
<svg version="1.1" id="Layer_1" xmlns="http://www.w3.org/2000/svg" xmlns:xlink="http://www.w3.org/1999/xlink" x="0px" y="0px"
	 width="70px" height="70px" viewBox="0 0 70 70" style="enable-background:new 0 0 70 70;" xml:space="preserve">
<style type="text/css">
	.st0{opacity:0.4;fill:#FFFFFF;}
</style>
<path class="st0" d="M53.2,62.1c-7.7,0-19.1-6-29.2-16.1C10.4,32.3,4.2,16.3,10.2,10.2S32.3,10.4,46,24
	c13.7,13.7,19.8,29.7,13.8,35.8l0,0C58.2,61.3,55.9,62.1,53.2,62.1z M16.9,8.9c-2.5,0-4.5,0.7-5.9,2.1c-5.6,5.6,0.5,21,13.8,34.2
	C38,58.5,53.4,64.7,59,59c5.6-5.6-0.5-21-13.8-34.2C35.3,14.9,24.2,8.9,16.9,8.9z M50.1,65.2c-7.7,0-19.1-6-29.2-16.1
	C7.2,35.5,1,19.4,7.1,13.4c6.1-6.1,22.1,0.1,35.8,13.8c6.6,6.6,11.6,13.9,14.3,20.5c2.7,6.8,2.5,12.2-0.5,15.2l0,0l0,0
	C55,64.5,52.8,65.2,50.1,65.2z M13.7,12.1c-2.5,0-4.5,0.7-5.9,2.1c-5.6,5.6,0.5,21,13.8,34.2c9.9,9.9,21,15.9,28.3,15.9
	c2.5,0,4.5-0.7,5.9-2.1l0,0c2.7-2.7,2.8-7.7,0.2-14.1c-2.6-6.5-7.6-13.7-14-20.2c-6.5-6.5-13.6-11.4-20.2-14
	C18.8,12.7,16.1,12.1,13.7,12.1z M54.8,60.5c-7.7,0-19.1-6-29.2-16.1C19,37.9,14,30.6,11.3,23.9c-2.7-6.8-2.5-12.2,0.5-15.2
	c6.1-6.1,22.1,0.1,35.8,13.8C54.1,29,59.2,36.3,61.8,43c2.7,6.8,2.5,12.2-0.5,15.2l0,0C59.8,59.8,57.5,60.5,54.8,60.5z M18.5,7.3
	C16,7.3,14,8,12.6,9.4c-2.7,2.7-2.8,7.7-0.2,14.1c2.6,6.5,7.6,13.7,14,20.2c13.2,13.2,28.6,19.4,34.2,13.8c2.7-2.7,2.8-7.7,0.2-14.1
	c-2.6-6.5-7.6-13.7-14-20.2C36.9,13.3,25.8,7.3,18.5,7.3z M57.9,57.4c-7.7,0-19.1-6-29.2-16.1C15.1,27.6,8.9,11.6,14.9,5.5
	c3-3,8.4-3.2,15.2-0.5c6.7,2.6,14,7.7,20.5,14.3C64.4,32.9,70.5,49,64.5,55.1C62.9,56.6,60.6,57.4,57.9,57.4z M21.6,4.2
	c-2.5,0-4.5,0.7-5.9,2.1C13,9,12.9,14,15.5,20.4c2.6,6.5,7.6,13.7,14,20.2s13.6,11.4,20.2,14C56,57.1,61,57,63.7,54.3
	c5.6-5.6-0.5-21-13.8-34.2C43.5,13.6,36.3,8.6,29.8,6C26.7,4.8,23.9,4.2,21.6,4.2z M59.4,55.9c-2.5,0-5.4-0.6-8.6-1.9
	c-6.7-2.6-14-7.7-20.5-14.3C16.6,26.1,10.5,10,16.5,4c6.1-6.1,22.1,0.1,35.8,13.8C65.9,31.4,72.1,47.4,66,53.5l0,0
	C64.5,55.1,62.2,55.9,59.4,55.9z M23.1,2.6c-2.5,0-4.5,0.7-5.9,2.1c-5.6,5.6,0.5,21,13.8,34.2c6.5,6.5,13.6,11.4,20.2,14
	c6.4,2.5,11.4,2.4,14.1-0.2c5.6-5.6-0.5-21-13.8-34.2C45.1,12,37.9,7,31.4,4.5C28.3,3.2,25.5,2.6,23.1,2.6z M56.3,59
	c-7.7,0-19.1-6-29.2-16.1C20.6,36.3,15.5,29,12.9,22.3c-2.7-6.8-2.5-12.2,0.5-15.2C19.4,1,35.5,7.2,49.1,20.9
	C62.8,34.5,69,50.6,62.9,56.6l0,0C61.3,58.2,59.1,59,56.3,59z M20,5.8c-2.5,0-4.5,0.7-5.9,2.1c-2.7,2.7-2.8,7.7-0.2,14.1
	c2.6,6.5,7.6,13.7,14,20.2c6.5,6.5,13.6,11.4,20.2,14c6.4,2.5,11.4,2.4,14.1-0.2c5.6-5.6-0.5-21-13.8-34.2
	C38.5,11.7,27.4,5.8,20,5.8z M51.6,63.7c-2.5,0-5.4-0.6-8.6-1.9c-6.7-2.6-14-7.7-20.5-14.3C15.9,41,10.8,33.7,8.2,27
	c-2.7-6.8-2.5-12.2,0.5-15.2c6.1-6.1,22.1,0.1,35.8,13.8C51,32.1,56,39.4,58.7,46.1c2.7,6.8,2.5,12.2-0.5,15.2l0,0l0,0
	C56.6,62.9,54.4,63.7,51.6,63.7z M15.3,10.5c-2.5,0-4.5,0.7-5.9,2.1c-2.7,2.7-2.8,7.7-0.2,14.1c2.6,6.5,7.6,13.7,14,20.2
	s13.6,11.4,20.2,14c6.4,2.5,11.4,2.4,14.1-0.2l0,0c2.7-2.7,2.8-7.7,0.2-14.1c-2.6-6.5-7.6-13.7-14-20.2
	C33.8,16.4,22.7,10.5,15.3,10.5z M45.3,70c-2.5,0-5.4-0.6-8.6-1.9c-6.7-2.6-14-7.7-20.5-14.3C2.5,40.2-3.7,24.2,2.4,18.1
	c6.1-6.1,22.1,0.1,35.8,13.8C51.8,45.5,58,61.6,51.9,67.6l0,0C50.3,69.2,48.1,70,45.3,70z M9,16.8c-2.5,0-4.5,0.7-5.9,2.1
	c-5.6,5.6,0.5,21,13.8,34.2c6.5,6.5,13.6,11.4,20.2,14c6.4,2.5,11.4,2.4,14.1-0.2c5.6-5.6-0.5-21-13.8-34.2
	C27.5,22.7,16.4,16.8,9,16.8z M48.4,66.9c-2.5,0-5.4-0.6-8.6-1.9c-6.7-2.6-14-7.7-20.5-14.3C5.6,37.1-0.5,21,5.5,14.9
	c6.1-6.1,22.1,0.1,35.8,13.8s19.8,29.7,13.8,35.8l0,0l0,0C53.5,66.1,51.2,66.9,48.4,66.9z M12.1,13.6c-2.5,0-4.5,0.7-5.9,2.1
	C0.6,21.4,6.8,36.7,20,50c6.5,6.5,13.6,11.4,20.2,14c6.4,2.5,11.4,2.4,14.1-0.2l0,0C57,61,57.1,56,54.5,49.6
	c-2.6-6.5-7.6-13.7-14-20.2S26.9,18,20.4,15.5C17.3,14.2,14.5,13.6,12.1,13.6z M46.9,68.4c-7.7,0-19.1-6-29.2-16.1
	C4.1,38.6-2.1,22.6,4,16.5c3-3,8.4-3.2,15.2-0.5c6.7,2.6,14,7.7,20.5,14.3C53.4,43.9,59.5,60,53.5,66.1
	C51.9,67.6,49.6,68.4,46.9,68.4z M10.6,15.2c-2.5,0-4.5,0.7-5.9,2.1c-5.6,5.6,0.5,21,13.8,34.2c9.9,9.9,21,15.9,28.3,15.9
	c2.5,0,4.5-0.7,5.9-2.1c5.6-5.6-0.5-21-13.8-34.2c-6.5-6.5-13.6-11.4-20.2-14C15.7,15.8,12.9,15.2,10.6,15.2z M61.1,54.2
	c-7.7,0-19.1-6-29.2-16.1C18.2,24.5,12,8.4,18.1,2.4c3-3,8.4-3.2,15.2-0.5c6.7,2.6,14,7.7,20.5,14.3c13.7,13.7,19.8,29.7,13.8,35.8
	C66,53.5,63.8,54.2,61.1,54.2z M24.7,1.1c-2.5,0-4.5,0.7-5.9,2.1c-5.6,5.6,0.5,21,13.8,34.2c9.9,9.9,21,15.9,28.3,15.9
	c2.5,0,4.5-0.7,5.9-2.1c5.6-5.6-0.5-21-13.8-34.2c-6.5-6.5-13.6-11.4-20.2-14C29.8,1.7,27.1,1.1,24.7,1.1z"/>
</svg>
