<svg xmlns="http://www.w3.org/2000/svg" xmlns:xlink="http://www.w3.org/1999/xlink" xml:space="preserve" version="1.1" style="shape-rendering:geometricPrecision;text-rendering:geometricPrecision;image-rendering:optimizeQuality;" viewBox="0 0 1288.34 1610.425" x="0px" y="0px" fill-rule="evenodd" clip-rule="evenodd"><defs><style type="text/css">
   
    .fil0 {fill:black;fill-rule:nonzero}
   
  </style></defs><g><path class="fil0" d="M644.17 0c177.88,0 338.93,72.11 455.49,188.68 116.58,116.56 188.68,277.61 188.68,455.49 0,177.88 -72.11,338.93 -188.68,455.49 -116.56,116.58 -277.61,188.68 -455.49,188.68 -177.88,0 -338.93,-72.11 -455.49,-188.68 -116.58,-116.56 -188.68,-277.61 -188.68,-455.49 0,-177.88 72.11,-338.93 188.68,-455.49 116.56,-116.58 277.61,-188.68 455.49,-188.68zm449.21 194.96c-114.96,-114.96 -273.78,-186.06 -449.21,-186.06 -175.43,0 -334.25,71.1 -449.21,186.06 -114.96,114.96 -186.06,273.78 -186.06,449.21 0,175.43 71.1,334.25 186.06,449.21 114.96,114.96 273.78,186.06 449.21,186.06 175.43,0 334.25,-71.1 449.21,-186.06 114.96,-114.96 186.06,-273.78 186.06,-449.21 0,-175.43 -71.1,-334.25 -186.06,-449.21z"/><path class="fil0" d="M630.34 10.5c172.82,0 329.29,70.05 442.52,183.28 113.25,113.25 183.3,269.71 183.3,442.53 0,172.82 -70.05,329.27 -183.3,442.52 -113.23,113.25 -269.69,183.3 -442.52,183.3 -172.8,0 -329.29,-70.05 -442.53,-183.3 -113.25,-113.25 -183.3,-269.69 -183.3,-442.52 0,-172.82 70.05,-329.29 183.3,-442.53 113.25,-113.23 269.71,-183.28 442.53,-183.28zm436.24 189.58c-111.65,-111.63 -265.87,-180.7 -436.24,-180.7 -170.35,0 -324.61,69.06 -436.24,180.7 -111.65,111.63 -180.72,265.87 -180.72,436.24 0,170.35 69.06,324.59 180.72,436.24 111.63,111.63 265.89,180.7 436.24,180.7 170.37,0 324.59,-69.06 436.24,-180.7 111.63,-111.65 180.7,-265.89 180.7,-436.24 0,-170.37 -69.06,-324.61 -180.7,-436.24z"/><path class="fil0" d="M616.5 20.96c167.74,0 319.64,68.02 429.56,177.94 109.92,109.92 177.92,261.8 177.92,429.54 0,167.74 -68,319.62 -177.92,429.56 -109.94,109.94 -261.8,177.94 -429.56,177.94 -167.74,0 -319.62,-68 -429.56,-177.94 -109.92,-109.94 -177.92,-261.82 -177.92,-429.56 0,-167.74 68,-319.62 177.92,-429.54 109.92,-109.92 261.8,-177.94 429.56,-177.94zm423.27 184.21c-108.32,-108.32 -257.98,-175.31 -423.27,-175.31 -165.29,0 -314.94,66.99 -423.27,175.31 -108.32,108.32 -175.33,257.98 -175.33,423.27 0,165.29 67.01,314.94 175.33,423.29 108.32,108.32 257.98,175.31 423.27,175.31 165.29,0 314.94,-66.99 423.27,-175.31 108.32,-108.34 175.33,-258 175.33,-423.29 0,-165.29 -67.01,-314.94 -175.33,-423.27z"/><path class="fil0" d="M602.67 31.46c162.7,0 309.98,65.94 416.59,172.56 106.61,106.59 172.56,253.89 172.56,416.57 0,162.68 -65.94,309.98 -172.56,416.59 -106.59,106.61 -253.89,172.56 -416.59,172.56 -162.66,0 -309.98,-65.94 -416.59,-172.56 -106.61,-106.61 -172.56,-253.91 -172.56,-416.59 0,-162.66 65.94,-309.96 172.56,-416.57 106.61,-106.61 253.91,-172.56 416.59,-172.56zm410.31 178.83c-105.01,-104.99 -250.08,-169.95 -410.31,-169.95 -160.23,0 -305.28,64.96 -410.29,169.95 -105.01,105.01 -169.97,250.08 -169.97,410.29 0,160.23 64.96,305.3 169.97,410.31 105.01,104.99 250.08,169.95 410.29,169.95 160.23,0 305.3,-64.96 410.31,-169.95 104.99,-105.01 169.95,-250.08 169.95,-410.31 0,-160.23 -64.96,-305.3 -169.95,-410.29z"/><path class="fil0" d="M588.84 41.92c157.62,0 300.34,63.89 403.64,167.19 103.28,103.28 167.17,245.99 167.17,403.62 0,157.62 -63.89,300.32 -167.17,403.62 -103.3,103.28 -246.01,167.19 -403.64,167.19 -157.62,0 -300.34,-63.89 -403.62,-167.19 -103.3,-103.28 -167.19,-245.99 -167.19,-403.62 0,-157.62 63.89,-300.34 167.19,-403.62 103.28,-103.3 245.99,-167.19 403.62,-167.19zm397.34 173.47c-101.68,-101.68 -242.17,-164.57 -397.34,-164.57 -155.15,0 -295.66,62.88 -397.34,164.57 -101.68,101.68 -164.59,242.17 -164.59,397.34 0,155.17 62.9,295.66 164.59,397.34 101.68,101.68 242.17,164.59 397.34,164.59 155.17,0 295.66,-62.92 397.34,-164.6 101.68,-101.68 164.59,-242.15 164.59,-397.32 0,-155.17 -62.9,-295.64 -164.59,-397.34z"/><path class="fil0" d="M574.99 52.4c152.56,0 290.69,61.84 390.66,161.81 99.97,99.99 161.81,238.1 161.81,390.66 0,152.55 -61.84,290.67 -161.81,390.65 -99.97,99.97 -238.1,161.81 -390.66,161.81 -152.56,0 -290.67,-61.84 -390.65,-161.81 -99.97,-99.97 -161.81,-238.1 -161.81,-390.65 0,-152.56 61.84,-290.67 161.81,-390.66 99.97,-99.97 238.08,-161.81 390.65,-161.81zm384.37 168.1c-98.36,-98.37 -234.26,-159.2 -384.37,-159.2 -150.09,0 -285.99,60.83 -384.37,159.2 -98.36,98.37 -159.2,234.26 -159.2,384.37 0,150.09 60.85,285.99 159.2,384.37 98.37,98.36 234.28,159.2 384.37,159.2 150.11,0 286.01,-60.85 384.37,-159.2 98.37,-98.37 159.22,-234.28 159.22,-384.37 0,-150.11 -60.85,-285.99 -159.22,-384.37z"/><path class="fil0" d="M561.17 62.88c147.51,0 281.03,59.78 377.69,156.44 96.64,96.64 156.43,230.19 156.43,377.67 0,147.51 -59.78,281.05 -156.43,377.69 -96.66,96.66 -230.19,156.44 -377.69,156.44 -147.49,0 -281.03,-59.78 -377.69,-156.44 -96.64,-96.64 -156.44,-230.19 -156.44,-377.69 0,-147.49 59.8,-281.03 156.44,-377.67 96.66,-96.66 230.21,-156.44 377.69,-156.44zm371.4 162.72c-95.05,-95.05 -226.35,-153.84 -371.4,-153.84 -145.03,0 -276.35,58.79 -371.4,153.84 -95.07,95.05 -153.86,226.36 -153.86,371.4 0,145.05 58.79,276.35 153.86,371.42 95.05,95.05 226.36,153.84 371.4,153.84 145.05,0 276.35,-58.79 371.4,-153.84 95.05,-95.05 153.84,-226.36 153.84,-371.42 0,-145.03 -58.79,-276.35 -153.84,-371.4z"/><path class="fil0" d="M547.36 73.36c142.43,0 271.39,57.73 364.72,151.08 93.33,93.33 151.06,222.28 151.06,364.72 0,142.41 -57.73,271.37 -151.06,364.7 -93.33,93.33 -222.29,151.06 -364.72,151.06 -142.43,0 -271.37,-57.73 -364.7,-151.06 -93.35,-93.33 -151.08,-222.28 -151.08,-364.7 0,-142.43 57.73,-271.39 151.06,-364.72 93.33,-93.33 222.29,-151.08 364.72,-151.08zm358.44 157.36c-91.74,-91.74 -218.47,-148.48 -358.44,-148.48 -139.97,0 -266.69,56.74 -358.42,148.48 -91.74,91.74 -148.48,218.45 -148.48,358.44 0,139.97 56.74,266.69 148.48,358.42 91.74,91.72 218.45,148.46 358.42,148.46 139.97,0 266.71,-56.74 358.44,-148.48 91.72,-91.72 148.46,-218.45 148.46,-358.41 0,-139.97 -56.74,-266.71 -148.46,-358.44z"/><path class="fil0" d="M533.53 83.84c137.37,0 261.72,55.67 351.75,145.7 90.01,90.02 145.7,214.38 145.7,351.75 0,137.37 -55.69,261.72 -145.7,351.75 -90.02,90.01 -214.38,145.7 -351.75,145.7 -137.37,0 -261.72,-55.69 -351.75,-145.7 -90.01,-90.01 -145.7,-214.38 -145.7,-351.75 0,-137.37 55.69,-261.74 145.7,-351.75 90.01,-90.02 214.38,-145.7 351.75,-145.7zm345.45 151.97c-88.41,-88.41 -210.54,-143.09 -345.45,-143.09 -134.91,0 -257.06,54.68 -345.45,143.09 -88.43,88.43 -143.11,210.56 -143.11,345.47 0,134.91 54.68,257.04 143.11,345.45 88.41,88.41 210.56,143.11 345.45,143.11 134.91,0 257.04,-54.7 345.45,-143.11 88.41,-88.41 143.11,-210.54 143.11,-345.45 0,-134.89 -54.7,-257.04 -143.11,-345.47z"/><path class="fil0" d="M519.68 94.32c132.31,0 252.08,53.62 338.78,140.32 86.7,86.7 140.32,206.49 140.32,338.8 0,132.29 -53.62,252.08 -140.32,338.78 -86.7,86.7 -206.49,140.32 -338.78,140.32 -132.31,0 -252.08,-53.62 -338.78,-140.32 -86.7,-86.7 -140.33,-206.49 -140.33,-338.78 0,-132.31 53.64,-252.1 140.33,-338.78 86.7,-86.72 206.47,-140.33 338.78,-140.33zm332.5 146.61c-85.1,-85.1 -202.65,-137.73 -332.5,-137.73 -129.85,0 -247.4,52.63 -332.5,137.73 -85.08,85.1 -137.71,202.65 -137.71,332.5 0,129.83 52.63,247.4 137.71,332.48 85.1,85.1 202.65,137.73 332.5,137.73 129.85,0 247.4,-52.63 332.48,-137.73 85.1,-85.08 137.73,-202.65 137.73,-332.48 0,-129.85 -52.63,-247.42 -137.71,-332.5z"/><path class="fil0" d="M505.85 104.8c127.23,0 242.44,51.56 325.8,134.95 83.39,83.39 134.97,198.58 134.97,325.8 0,127.25 -51.58,242.44 -134.97,325.82 -83.37,83.39 -198.58,134.95 -325.8,134.95 -127.25,0 -242.44,-51.56 -325.82,-134.95 -83.37,-83.39 -134.95,-198.58 -134.95,-325.82 0,-127.23 51.56,-242.44 134.95,-325.8 83.39,-83.39 198.58,-134.95 325.82,-134.95zm319.53 141.23c-81.77,-81.77 -194.75,-132.35 -319.53,-132.35 -124.79,0 -237.76,50.58 -319.53,132.35 -81.79,81.77 -132.36,194.75 -132.36,319.53 0,124.79 50.59,237.76 132.36,319.55 81.77,81.77 194.75,132.35 319.53,132.35 124.78,0 237.76,-50.58 319.53,-132.36 81.77,-81.77 132.35,-194.73 132.35,-319.53 0,-124.78 -50.58,-237.74 -132.35,-319.53z"/><path class="fil0" d="M492.03 115.28c122.17,0 232.79,49.51 312.85,129.57 80.06,80.08 129.57,190.68 129.57,312.87 0,122.17 -49.51,232.77 -129.57,312.83 -80.06,80.06 -190.68,129.59 -312.85,129.59 -122.15,0 -232.77,-49.53 -312.83,-129.59 -80.08,-80.06 -129.59,-190.68 -129.59,-312.83 0,-122.19 49.51,-232.79 129.57,-312.87 80.08,-80.06 190.68,-129.57 312.85,-129.57zm306.56 135.86c-78.44,-78.46 -186.82,-126.98 -306.56,-126.98 -119.72,0 -228.1,48.52 -306.56,126.98 -78.46,78.46 -126.98,186.84 -126.98,306.57 0,119.72 48.52,228.1 126.98,306.56 78.46,78.44 186.84,126.98 306.56,126.98 119.72,0 228.11,-48.54 306.56,-126.98 78.46,-78.46 126.98,-186.86 126.98,-306.56 0,-119.72 -48.52,-228.11 -126.98,-306.57z"/><path class="fil0" d="M478.18 125.75c117.11,0 223.15,47.48 299.88,124.22 76.75,76.73 124.22,182.77 124.22,299.88 0,117.11 -47.48,223.13 -124.22,299.88 -76.75,76.75 -182.77,124.2 -299.88,124.2 -117.09,0 -223.13,-47.46 -299.88,-124.2 -76.73,-76.75 -124.2,-182.77 -124.2,-299.88 0,-117.11 47.48,-223.13 124.2,-299.88 76.75,-76.75 182.79,-124.22 299.88,-124.22zm293.6 130.5c-75.13,-75.13 -178.95,-121.6 -293.6,-121.6 -114.66,0 -218.45,46.47 -293.58,121.6 -75.13,75.15 -121.62,178.95 -121.62,293.6 0,114.66 46.49,218.45 121.62,293.6 75.13,75.13 178.93,121.6 293.58,121.6 114.66,0 218.45,-46.47 293.6,-121.62 75.13,-75.13 121.62,-178.93 121.62,-293.58 0,-114.66 -46.49,-218.47 -121.62,-293.6z"/><path class="fil0" d="M464.35 136.23c112.05,0 213.49,45.42 286.91,118.84 73.42,73.42 118.84,174.88 118.84,286.91 0,112.05 -45.42,213.51 -118.84,286.93 -73.42,73.42 -174.86,118.84 -286.91,118.84 -112.05,0 -213.49,-45.42 -286.91,-118.84 -73.42,-73.44 -118.84,-174.88 -118.84,-286.93 0,-112.03 45.42,-213.49 118.84,-286.91 73.42,-73.42 174.88,-118.84 286.91,-118.84zm280.63 125.14c-71.82,-71.82 -171.03,-116.25 -280.63,-116.25 -109.58,0 -208.81,44.43 -280.61,116.25 -71.82,71.8 -116.25,171.03 -116.25,280.61 0,109.6 44.43,208.81 116.25,280.63 71.8,71.82 171.03,116.25 280.61,116.25 109.6,0 208.81,-44.43 280.63,-116.25 71.8,-71.8 116.24,-171.03 116.24,-280.63 0,-109.58 -44.43,-208.81 -116.24,-280.61z"/></g><text x="0" y="1303.34" fill="#000000" font-size="5px" font-weight="bold" font-family="'Helvetica Neue', Helvetica, Arial-Unicode, Arial, Sans-serif">Created by Camilo Farkas</text><text x="0" y="1308.34" fill="#000000" font-size="5px" font-weight="bold" font-family="'Helvetica Neue', Helvetica, Arial-Unicode, Arial, Sans-serif">from the Noun Project</text></svg>