<svg xmlns="http://www.w3.org/2000/svg" xmlns:xlink="http://www.w3.org/1999/xlink" xml:space="preserve" version="1.0" style="shape-rendering:geometricPrecision;text-rendering:geometricPrecision;image-rendering:optimizeQuality;" viewBox="0 0 103.7 103.80000000000001" x="0px" y="0px" fill-rule="evenodd" clip-rule="evenodd"><defs><style type="text/css">
   
    .fil0 {fill:black}
   
  </style></defs><g><path class="fil0" d="M51.84 83.04c0,0 0,0 0,0 37.6,-13.84 49.17,-27.44 49.17,-41.53 0,-14.09 -11.55,-27.68 -49.17,-41.51 0,0 0,0 0,0 39.68,13.83 51.85,27.4 51.85,41.51 0,14.11 -12.19,27.69 -51.85,41.53zm0 0c0,0 0,0 0,0 -39.69,-13.84 -51.85,-27.42 -51.84,-41.53 0.01,-14.11 12.16,-27.68 51.84,-41.51 0,0 0,0 0,0 -37.62,13.83 -49.15,27.43 -49.16,41.51 -0.01,14.08 11.52,27.69 49.16,41.53zm0 0c0,0 0,0 0,0 -35.4,-13.84 -46.24,-27.48 -46.23,-41.53 0.01,-14.05 10.85,-27.68 46.23,-41.51 0,0 0,0 0,0 -33.32,13.83 -43.53,27.48 -43.54,41.51 -0,14.03 10.2,27.69 43.54,41.53zm0 0c0,0 0,0 0,0 -31.1,-13.84 -40.63,-27.53 -40.62,-41.53 0.01,-14.01 9.53,-27.68 40.62,-41.51 0,0 0,0 0,0 -29.03,13.83 -37.92,27.53 -37.93,41.51 -0,13.98 8.89,27.69 37.93,41.53zm0 0c0,0 0,0 0,0 -26.81,-13.84 -35.02,-27.57 -35.01,-41.53 0.01,-13.96 8.21,-27.68 35.01,-41.51 0,0 0,0 0,0 -24.73,13.83 -32.31,27.57 -32.32,41.51 -0,13.94 7.57,27.69 32.32,41.53zm0 0c0,0 0,0 0,0 -22.5,-13.84 -29.4,-27.61 -29.39,-41.53 0.01,-13.92 6.9,-27.68 29.39,-41.51 0,0 0,0 0,0 -20.44,13.83 -26.7,27.6 -26.7,41.51 -0,13.91 6.25,27.69 26.7,41.53zm0 0c0,0 0,0 0,0 -18.21,-13.84 -23.79,-27.64 -23.78,-41.53 0.01,-13.89 5.58,-27.68 23.78,-41.51 0,0 0,0 0,0 -16.15,13.83 -21.09,27.63 -21.09,41.51 -0,13.88 4.94,27.69 21.09,41.53zm0 0c0,0 0,0 0,0 -13.92,-13.84 -18.18,-27.66 -18.17,-41.53 0.01,-13.87 4.26,-27.68 18.17,-41.51 0,0 0,0 0,0 -11.85,13.83 -15.48,27.65 -15.48,41.51 -0,13.86 3.62,27.69 15.48,41.53zm0 0c0,0 0,0 0,0 -9.62,-13.84 -12.57,-27.68 -12.56,-41.53 0.01,-13.85 2.94,-27.68 12.56,-41.51 0,0 0,0 0,0 -7.56,13.83 -9.87,27.67 -9.87,41.51 -0,13.84 2.3,27.69 9.87,41.53zm0 0c0,0 0,0 0,0 -5.33,-13.84 -6.96,-27.69 -6.95,-41.53 0.01,-13.84 1.63,-27.68 6.95,-41.51 0,0 0,0 0,0 -3.27,13.83 -4.26,27.68 -4.26,41.51 -0,13.84 0.98,27.69 4.26,41.53zm0 0c0,0 0,0 0,0 -1.04,-13.84 -1.34,-27.69 -1.34,-41.53 0,-13.83 0.31,-27.68 1.34,-41.51 0,0 0,0 0,0 1.04,13.83 1.36,27.68 1.36,41.51 -0,13.83 -0.33,27.69 -1.36,41.53zm0 0c0,0 0,0 0,0 3.26,-13.84 4.27,-27.69 4.27,-41.53 0,-13.84 -1.01,-27.68 -4.27,-41.51 0,0 0,0 0,0 5.33,13.83 6.97,27.67 6.97,41.51 -0,13.84 -1.65,27.69 -6.97,41.53zm0 0c0,0 0,0 0,0 7.55,-13.84 9.88,-27.68 9.88,-41.53 0,-13.84 -2.32,-27.68 -9.88,-41.51 0,0 0,0 0,0 9.62,13.83 12.58,27.66 12.58,41.51 -0,13.85 -2.97,27.69 -12.58,41.53zm0 0c0,0 0,0 0,0 11.84,-13.84 15.49,-27.67 15.49,-41.53 0,-13.86 -3.64,-27.68 -15.49,-41.51 0,0 0,0 0,0 13.92,13.83 18.19,27.64 18.19,41.51 -0,13.87 -4.28,27.69 -18.19,41.53zm0 0c0,0 0,0 0,0 16.14,-13.84 21.1,-27.65 21.1,-41.53 0,-13.88 -4.96,-27.68 -21.1,-41.51 0,0 0,0 0,0 18.21,13.83 23.81,27.62 23.8,41.51 -0,13.89 -5.6,27.69 -23.8,41.53zm0 0c0,0 0,0 0,0 20.43,-13.84 26.72,-27.62 26.72,-41.53 0,-13.91 -6.28,-27.68 -26.72,-41.51 0,0 0,0 0,0 22.5,13.83 29.42,27.59 29.41,41.51 -0,13.93 -6.92,27.69 -29.41,41.53zm0 0c0,0 0,0 0,0 24.72,-13.84 32.33,-27.58 32.33,-41.53 0.01,-13.94 -7.6,-27.68 -32.33,-41.51 0,0 0,0 0,0 26.8,13.83 35.03,27.55 35.02,41.51 -0,13.96 -8.23,27.69 -35.02,41.53zm0 0c0,0 0,0 0,0 29.02,-13.84 37.94,-27.54 37.95,-41.53 0,-13.98 -8.92,-27.68 -37.95,-41.51 0,0 0,0 0,0 31.09,13.83 40.64,27.51 40.63,41.51 -0,14.01 -9.55,27.69 -40.63,41.53zm0 0c0,0 0,0 0,0 33.31,-13.84 43.55,-27.5 43.56,-41.53 0,-14.03 -10.24,-27.68 -43.56,-41.51 0,0 0,0 0,0 35.38,13.83 46.25,27.46 46.24,41.51 -0,14.06 -10.87,27.69 -46.24,41.53z"/></g><text x="0" y="98.04" fill="#000000" font-size="5px" font-weight="bold" font-family="'Helvetica Neue', Helvetica, Arial-Unicode, Arial, Sans-serif">Created by BÖCK</text><text x="0" y="103.04" fill="#000000" font-size="5px" font-weight="bold" font-family="'Helvetica Neue', Helvetica, Arial-Unicode, Arial, Sans-serif">from the Noun Project</text></svg>