<?xml version="1.0" encoding="utf-8"?>
<!-- Generator: Adobe Illustrator 24.1.2, SVG Export Plug-In . SVG Version: 6.00 Build 0)  -->
<svg version="1.1" id="Layer_1" xmlns="http://www.w3.org/2000/svg" xmlns:xlink="http://www.w3.org/1999/xlink" x="0px" y="0px"
	 width="70px" height="70px" viewBox="0 0 70 70" style="enable-background:new 0 0 70 70;" xml:space="preserve">
<style type="text/css">
	.st0{opacity:0.4;fill:#FFFFFF;}
</style>
<path class="st0" d="M35.7,70l-0.1-8.7l-0.1-8.7l0-17.4l0-17.4l0.1-8.7l0.1-8.7l0.1,8.7l0.1,8.7l0,17.4l0,17.4l-0.1,8.7L35.7,70z
	 M37,60.9l-0.4-8.3L35.9,36L35,19.4l-0.5-8.3L34,2.9l0.3,8.3l0.4,8.3L35.5,36l0.9,16.6l0.5,8.3l0.5,8.3L37,60.9z M38.2,60.5
	l-0.8-7.9l-1.6-15.8l-1.7-15.7l-0.9-7.9l-0.9-7.9l0.7,7.9l0.8,7.9l1.6,15.8l1.7,15.7l0.9,7.9l0.9,7.9L38.2,60.5z M39.5,60.1
	l-1.2-7.5l-2.4-14.9l-2.5-14.9L32,15.3l-1.3-7.4l1.1,7.5l1.2,7.5l2.4,14.9L38,52.6l1.3,7.4l1.3,7.4L39.5,60.1z M40.7,59.6l-1.6-7.1
	l-3.3-14.1l-3.4-14.1l-1.7-7l-1.7-7l1.6,7.1l1.6,7.1l3.3,14.1l3.4,14.1l1.7,7l1.7,7L40.7,59.6z M41.9,59.2l-2-6.6l-4.1-13.3
	l-4.2-13.2l-2.1-6.6l-2.2-6.6l2,6.7l2,6.6l4.1,13.3l4.2,13.2l2.1,6.6l2.2,6.6L41.9,59.2z M43.1,58.8l-2.4-6.2l-4.9-12.4l-5-12.4
	l-2.5-6.2l-2.6-6.2l2.4,6.3l2.4,6.2l4.9,12.4l5,12.4l2.5,6.2l2.6,6.2L43.1,58.8z M44.3,58.4l-2.8-5.8l-5.7-11.6l-5.8-11.6L27,23.6
	l-3-5.8l2.8,5.8l2.8,5.8l5.7,11.6l5.8,11.6l2.9,5.8l3,5.8L44.3,58.4z M45.5,58l-3.3-5.4l-6.6-10.8L29.1,31l-3.4-5.4l-3.4-5.3
	l3.2,5.4l3.3,5.4L35.4,42L42,52.7l3.4,5.4l3.4,5.3L45.5,58z M46.8,57.6l-3.7-5l-7.4-10l-7.5-9.9l-3.8-4.9l-3.8-4.9l3.6,5l3.7,5
	l7.4,10l7.5,9.9l3.8,4.9l3.8,4.9L46.8,57.6z M48,57.1l-4.1-4.6l-8.2-9.1l-8.3-9.1l-4.2-4.5L19,25.3l4.1,4.6l4.1,4.6l8.2,9.1l8.3,9.1
	l4.2,4.5l4.2,4.5L48,57.1z M49.2,56.7l-4.5-4.2l-9.1-8.3L26.5,36l-4.6-4.1l-4.6-4.1l4.5,4.2l4.5,4.2l9.1,8.3l9.1,8.3l4.6,4.1
	l4.6,4.1L49.2,56.7z M50.4,56.3l-4.9-3.8L35.6,45l-9.9-7.4l-5-3.7l-5-3.7l4.9,3.8l4.9,3.8l9.9,7.5l9.9,7.4l5,3.7l5,3.7L50.4,56.3z
	 M51.6,55.9l-5.3-3.4l-10.7-6.7l-10.8-6.6L19.4,36L14,32.8l5.3,3.4l5.3,3.4l10.7,6.7l10.8,6.6l5.4,3.3l5.4,3.2L51.6,55.9z
	 M52.8,55.5l-5.8-2.9l-11.6-5.8l-11.6-5.8l-5.8-2.9l-5.8-2.8l5.7,3l5.8,2.9L35.3,47l11.6,5.8l5.8,2.9l5.8,2.8L52.8,55.5z M54,55.1
	l-6.2-2.5l-12.4-5l-12.4-4.9l-6.2-2.4l-6.2-2.4l6.2,2.6l6.2,2.5l12.4,5l12.4,4.9l6.2,2.4l6.2,2.4L54,55.1z M55.2,54.7l-6.6-2.1
	l-13.2-4.2l-13.2-4.1l-6.6-2l-6.6-2l6.6,2.2l6.6,2.1l13.2,4.2l13.2,4.1l6.6,2l6.6,2L55.2,54.7z M56.5,54.3l-7-1.7l-14-3.4l-14.1-3.3
	l-7-1.6l-7-1.6l7,1.7l7,1.7l14,3.4l14.1,3.3l7,1.6l7,1.6L56.5,54.3z M57.7,53.8l-7.4-1.3L35.4,50l-14.9-2.4L13,46.4l-7.5-1.2
	l7.4,1.3l7.4,1.3l14.9,2.5l14.9,2.4l7.4,1.2l7.5,1.2L57.7,53.8z M58.9,53.4L51,52.6l-15.7-1.7l-15.7-1.6l-7.9-0.8l-7.9-0.7l7.8,0.9
	l7.8,0.9l15.7,1.7L51,52.8l7.9,0.8l7.9,0.7L58.9,53.4z M60.1,53l-8.3-0.5l-16.5-0.9l-16.5-0.8l-8.3-0.4l-8.3-0.3l8.3,0.5l8.3,0.5
	l16.5,0.9l16.5,0.8l8.3,0.4l8.3,0.3L60.1,53z M61.3,52.6l-8.7-0.1l-17.4,0l-17.4,0l-8.7,0.1l-8.7,0.1l8.7,0.1l8.7,0.1l17.4,0l17.4,0
	l8.7-0.1l8.7-0.1L61.3,52.6z M35.2,60.9l0.1-8.7l0-17.4l0-17.4l-0.1-8.7L35.1,0L35,8.7L35,17.4l0,17.4l0,17.4l0.1,8.7l0.1,8.7
	L35.2,60.9z M36.4,60.5l-0.4-8.3l-0.8-16.6l-0.9-16.6L34,10.8l-0.5-8.3l0.3,8.3l0.4,8.3l0.8,16.6l0.9,16.6l0.5,8.3l0.5,8.3
	L36.4,60.5z M37.7,60.1l-0.8-7.9l-1.6-15.8l-1.7-15.7l-0.9-7.9L31.8,5l0.7,7.9l0.8,7.9l1.6,15.8l1.7,15.7l0.9,7.9l0.9,7.9L37.7,60.1
	z M38.9,59.7l-1.2-7.5l-2.4-14.9l-2.5-14.9l-1.3-7.4l-1.3-7.4l1.1,7.5l1.2,7.5l2.4,14.9l2.5,14.9l1.3,7.4l1.3,7.4L38.9,59.7z
	 M40.1,59.3l-1.6-7.1l-3.3-14.1L31.9,24l-1.7-7l-1.7-7L30,17l1.6,7.1l3.3,14.1l3.4,14.1l1.7,7l1.7,7L40.1,59.3z M41.3,58.8l-2-6.6
	l-4.1-13.3L31,25.7l-2.1-6.6l-2.2-6.6l2,6.7l2,6.6L34.8,39L39,52.3l2.1,6.6l2.2,6.6L41.3,58.8z M42.5,58.4l-2.4-6.2l-4.9-12.4
	l-5-12.4l-2.5-6.2L25.1,15l2.4,6.3l2.4,6.2l4.9,12.4l5,12.4l2.5,6.2l2.6,6.2L42.5,58.4z M43.7,58l-2.8-5.8l-5.7-11.6L29.3,29
	l-2.9-5.8l-3-5.8l2.8,5.8l2.8,5.8l5.7,11.6l5.8,11.6l2.9,5.8l3,5.8L43.7,58z M45,57.6l-3.3-5.4l-6.6-10.8l-6.7-10.7l-3.4-5.4
	l-3.4-5.3l3.2,5.4l3.3,5.4l6.6,10.8l6.7,10.7l3.4,5.4l3.4,5.3L45,57.6z M46.2,57.2l-3.7-5l-7.4-10l-7.5-9.9l-3.8-4.9l-3.8-4.9l3.6,5
	l3.7,5l7.4,10l7.5,9.9l3.8,4.9l3.8,4.9L46.2,57.2z M47.4,56.8l-4.1-4.6L35.1,43l-8.3-9.1l-4.2-4.5l-4.2-4.5l4.1,4.6l4.1,4.6l8.2,9.1
	l8.3,9.1l4.2,4.5l4.2,4.5L47.4,56.8z M48.6,56.3l-4.5-4.2L35,43.8l-9.1-8.3l-4.6-4.1l-4.6-4.1l4.5,4.2l4.5,4.2l9.1,8.3l9.1,8.3
	l4.6,4.1l4.6,4.1L48.6,56.3z M49.8,55.9l-4.9-3.8L35,44.7l-9.9-7.4l-5-3.7l-5-3.7l4.9,3.8l4.9,3.8l9.9,7.5l9.9,7.4l5,3.7l5,3.7
	L49.8,55.9z M51,55.5l-5.3-3.4L35,45.5l-10.8-6.6l-5.4-3.3l-5.4-3.2l5.3,3.4l5.3,3.4l10.7,6.7l10.8,6.6l5.4,3.3l5.4,3.2L51,55.5z
	 M52.2,55.1l-5.8-2.9l-11.6-5.8l-11.6-5.8l-5.8-2.9l-5.8-2.8l5.7,3l5.8,2.9l11.6,5.8l11.6,5.8l5.8,2.9l5.8,2.8L52.2,55.1z
	 M53.5,54.7l-6.2-2.5l-12.4-5l-12.4-4.9l-6.2-2.4L10,37.4l6.2,2.6l6.2,2.5l12.4,5l12.4,4.9l6.2,2.4l6.2,2.4L53.5,54.7z M54.7,54.3
	l-6.6-2.1L34.9,48l-13.2-4.1l-6.6-2l-6.6-2l6.6,2.2l6.6,2.1l13.2,4.2L48,52.4l6.6,2l6.6,2L54.7,54.3z M55.9,53.9l-7-1.7l-14-3.4
	l-14.1-3.3l-7-1.6l-7-1.6l7,1.7l7,1.7l14,3.4l14.1,3.3l7,1.6l7,1.6L55.9,53.9z M57.1,53.5l-7.4-1.3l-14.9-2.5l-14.9-2.4L12.5,46
	L5,44.9l7.4,1.3l7.4,1.3L34.7,50l14.9,2.4l7.4,1.2l7.5,1.2L57.1,53.5z M58.3,53.1l-7.8-0.9l-15.7-1.7l-15.7-1.6l-7.9-0.8l-7.9-0.7
	l7.8,0.9l7.8,0.9l15.7,1.7l15.7,1.6l7.9,0.8l7.9,0.7L58.3,53.1z M59.5,52.6l-8.3-0.5l-16.5-0.9l-16.5-0.8l-8.3-0.4l-8.3-0.3l8.3,0.5
	l8.3,0.5l16.5,0.9l16.5,0.8l8.3,0.4l8.3,0.3L59.5,52.6z M60.7,52.2l-8.7-0.1l-17.4,0l-17.4,0l-8.7,0.1L0,52.3l8.7,0.1l8.7,0.1
	l17.4,0l17.4,0l8.7-0.1l8.7-0.1L60.7,52.2z"/>
</svg>
