<?xml version="1.0" encoding="utf-8"?>
<!-- Generator: Adobe Illustrator 24.1.2, SVG Export Plug-In . SVG Version: 6.00 Build 0)  -->
<svg version="1.1" id="Layer_1" xmlns="http://www.w3.org/2000/svg" xmlns:xlink="http://www.w3.org/1999/xlink" x="0px" y="0px"
	 width="70px" height="70px" viewBox="0 0 70 70" style="enable-background:new 0 0 70 70;" xml:space="preserve">
<style type="text/css">
	.st0{opacity:0.4;fill:#FFFFFF;}
</style>
<path class="st0" d="M28.8,18.9c-5.2,0-9.4-4.2-9.4-9.5S23.6,0,28.8,0s9.4,4.2,9.4,9.5S34,18.9,28.8,18.9z M28.8,0.3
	c-5,0-9.2,4.1-9.2,9.2s4.1,9.2,9.2,9.2S38,14.5,38,9.5S33.9,0.3,28.8,0.3z M28.9,21c-0.3,0-0.7,0-1,0c-5.5-0.5-9.5-5.5-9-11
	c0.3-2.7,1.5-5.1,3.6-6.8c2.1-1.7,4.7-2.5,7.3-2.2c5.5,0.5,9.5,5.5,9,11l0,0c-0.3,2.7-1.5,5.1-3.6,6.8C33.4,20.2,31.2,21,28.9,21z
	 M28.8,1.2c-2.2,0-4.4,0.8-6.2,2.2c-2,1.6-3.3,4-3.5,6.6c-0.5,5.3,3.4,10.1,8.7,10.6c2.6,0.3,5.1-0.5,7.1-2.2c2-1.7,3.3-4,3.5-6.6
	C39,6.6,35.1,1.8,29.8,1.3C29.5,1.2,29.1,1.2,28.8,1.2z M28.9,23.2c-0.7,0-1.3-0.1-2-0.2c-5.8-1.1-9.6-6.7-8.5-12.5
	c0.5-2.8,2.1-5.2,4.5-6.8s5.2-2.2,8-1.7c5.8,1.1,9.6,6.7,8.5,12.5c-0.5,2.8-2.1,5.2-4.5,6.8C33.1,22.5,31,23.2,28.9,23.2z M28.8,2.1
	c-2.1,0-4.1,0.6-5.8,1.8c-2.3,1.6-3.8,3.9-4.3,6.7c-1.1,5.6,2.7,11.1,8.3,12.1c2.7,0.5,5.5-0.1,7.8-1.6c2.3-1.6,3.8-3.9,4.3-6.7
	c1.1-5.6-2.7-11.1-8.3-12.1C30.1,2.1,29.5,2.1,28.8,2.1z M28.9,25.4c-1,0-2-0.1-3-0.4c-6.1-1.6-9.7-7.9-8.1-14
	c0.8-2.9,2.7-5.4,5.3-6.9c2.6-1.5,5.7-1.9,8.6-1.1c6.1,1.6,9.7,7.9,8.1,14c-0.8,2.9-2.7,5.4-5.3,6.9C32.8,24.9,30.8,25.4,28.9,25.4z
	 M28.8,2.9c-1.9,0-3.8,0.5-5.5,1.5c-2.6,1.5-4.4,3.9-5.2,6.8c-1.6,5.9,2,12,7.9,13.6c2.9,0.8,5.9,0.4,8.4-1.1
	c2.6-1.5,4.4-3.9,5.2-6.8c1.6-5.9-2-12-7.9-13.6C30.7,3,29.8,2.9,28.8,2.9z M28.8,27.7c-1.3,0-2.6-0.2-3.9-0.7
	c-6.4-2.2-9.8-9.1-7.6-15.5c1-3.1,3.2-5.6,6.1-7s6.2-1.7,9.3-0.6c6.4,2.2,9.8,9.1,7.6,15.5c-1,3.1-3.2,5.6-6.1,7
	C32.5,27.3,30.7,27.7,28.8,27.7z M28.8,3.6c-1.8,0-3.6,0.4-5.3,1.2c-2.8,1.4-5,3.8-6,6.8c-2.1,6.2,1.2,13,7.4,15.1
	c3,1,6.2,0.8,9.1-0.6c2.8-1.4,5-3.8,6-6.8c2.1-6.2-1.2-13-7.4-15.1C31.4,3.8,30.1,3.6,28.8,3.6z M28.8,30c-1.7,0-3.3-0.3-4.9-1
	c-6.6-2.7-9.9-10.3-7.2-17c1.3-3.2,3.8-5.7,7-7.1c3.2-1.4,6.7-1.4,10-0.1c6.6,2.7,9.9,10.3,7.2,17c-1.3,3.2-3.8,5.7-7,7.1
	C32.3,29.7,30.6,30,28.8,30z M28.8,4.3c-1.7,0-3.4,0.3-5,1c-3.1,1.3-5.6,3.8-6.8,6.9c-2.6,6.5,0.5,13.9,7,16.6
	c3.1,1.3,6.6,1.3,9.7-0.1c3.1-1.3,5.6-3.8,6.8-6.9c2.6-6.5-0.5-13.9-7-16.6C32.1,4.6,30.5,4.3,28.8,4.3z M28.8,32.4
	c-2,0-4-0.4-5.9-1.3C16,27.9,13,19.6,16.3,12.6c1.6-3.4,4.3-5.9,7.8-7.2c3.5-1.3,7.2-1.1,10.6,0.5c6.9,3.2,9.9,11.5,6.7,18.4
	l-0.1-0.1l0.1,0.1c-1.6,3.4-4.3,5.9-7.8,7.2C32,32.1,30.4,32.4,28.8,32.4z M28.8,4.9c-1.6,0-3.1,0.3-4.7,0.8c-3.4,1.2-6.1,3.7-7.7,7
	c-3.2,6.8-0.2,14.9,6.6,18.1c3.3,1.5,7,1.7,10.4,0.5c3.4-1.2,6.1-3.7,7.7-7c3.2-6.8,0.2-14.9-6.6-18.1C32.7,5.3,30.8,4.9,28.8,4.9z
	 M28.8,34.8c-2.3,0-4.7-0.6-6.8-1.7c-7.2-3.8-10-12.7-6.3-19.9c1.8-3.5,4.9-6.1,8.7-7.3c3.8-1.2,7.8-0.8,11.3,1
	c7.2,3.8,10,12.7,6.3,19.9l0,0c-1.8,3.5-4.9,6.1-8.7,7.3C31.8,34.6,30.3,34.8,28.8,34.8z M28.9,5.5c-1.5,0-2.9,0.2-4.4,0.7
	c-3.7,1.2-6.7,3.7-8.5,7.1c-3.7,7.1-0.9,15.9,6.1,19.6c3.4,1.8,7.4,2.1,11,1c3.7-1.2,6.7-3.7,8.5-7.1l0,0c3.7-7.1,0.9-15.9-6.1-19.6
	C33.4,6.1,31.2,5.5,28.9,5.5z M28.8,37.2c-2.7,0-5.4-0.7-7.8-2.1c-7.5-4.3-10.1-13.9-5.8-21.4c2.1-3.6,5.5-6.2,9.5-7.3
	c4-1.1,8.3-0.6,11.9,1.5c7.5,4.3,10.1,13.9,5.8,21.4l0,0c-2.1,3.6-5.5,6.2-9.5,7.3C31.6,37,30.2,37.2,28.8,37.2z M28.9,6.1
	c-1.4,0-2.7,0.2-4.1,0.5c-4,1.1-7.3,3.6-9.3,7.2c-4.2,7.4-1.7,16.8,5.7,21c3.6,2,7.7,2.6,11.7,1.5c4-1.1,7.3-3.6,9.3-7.2
	c4.2-7.4,1.7-16.8-5.7-21C34.1,6.8,31.5,6.1,28.9,6.1z M28.8,39.7c-3.1,0-6.1-0.9-8.7-2.5C12.3,32.3,9.9,22,14.7,14.2
	c2.3-3.8,6-6.4,10.3-7.4c4.3-1,8.8-0.3,12.6,2.1C45.4,13.7,47.8,24,43,31.8c-2.3,3.8-6,6.4-10.3,7.4C31.4,39.5,30.1,39.7,28.8,39.7z
	 M28.9,6.7c-1.2,0-2.5,0.1-3.8,0.4c-4.3,1-7.9,3.6-10.2,7.3c-4.8,7.7-2.4,17.8,5.3,22.5c3.7,2.3,8.1,3,12.3,2
	c4.3-1,7.9-3.6,10.2-7.3l0.1,0.1l-0.1-0.1c4.8-7.7,2.4-17.8-5.3-22.5C34.8,7.5,31.9,6.7,28.9,6.7z M28.8,42.2c-3.4,0-6.8-1-9.7-3
	C11,33.8,8.8,22.9,14.2,14.8c2.6-3.9,6.6-6.6,11.2-7.5c4.6-0.9,9.3,0,13.2,2.6c8.1,5.4,10.3,16.3,4.9,24.4l0,0
	c-2.6,3.9-6.6,6.6-11.2,7.5C31.1,42,30,42.2,28.8,42.2z M28.9,7.2c-1.1,0-2.3,0.1-3.5,0.3c-4.5,0.9-8.4,3.5-11,7.4
	c-5.3,8-3.1,18.7,4.8,24c3.9,2.6,8.5,3.5,13,2.6c4.5-0.9,8.4-3.5,11-7.4c5.3-8,3.1-18.7-4.8-24C35.5,8.2,32.2,7.2,28.9,7.2z
	 M28.8,44.6c-3.8,0-7.5-1.2-10.7-3.4c-8.4-5.9-10.4-17.5-4.5-25.9c2.9-4.1,7.1-6.8,12-7.6c4.9-0.8,9.8,0.3,13.9,3.1
	c8.4,5.9,10.4,17.5,4.5,25.9c-2.9,4.1-7.1,6.8-12,7.6C30.9,44.6,29.9,44.6,28.8,44.6z M28.9,7.7c-1,0-2.1,0.1-3.1,0.3
	c-4.8,0.8-9,3.5-11.8,7.5C8.1,23.7,10,35.2,18.3,41c4,2.8,8.8,3.9,13.7,3.1c4.8-0.8,9-3.5,11.8-7.5c5.8-8.2,3.8-19.7-4.4-25.5
	C36.3,8.9,32.6,7.7,28.9,7.7z M28.8,47.1c-4.2,0-8.2-1.3-11.6-3.9c-8.7-6.4-10.5-18.7-4-27.4c3.1-4.2,7.7-6.9,12.9-7.7
	c5.2-0.8,10.3,0.5,14.5,3.7c8.7,6.4,10.5,18.7,4,27.4c-3.1,4.2-7.7,6.9-12.9,7.7C30.7,47.1,29.7,47.1,28.8,47.1z M28.9,8.3
	c-0.9,0-1.9,0.1-2.8,0.2c-5.1,0.7-9.6,3.4-12.7,7.6c-6.3,8.5-4.6,20.6,4,27c4.1,3.1,9.2,4.4,14.3,3.6c5.1-0.7,9.6-3.4,12.7-7.6
	c6.3-8.5,4.6-20.6-4-27C37,9.6,33,8.3,28.9,8.3z M28.8,49.7c-4.6,0-9-1.5-12.6-4.4c-8.9-7-10.5-19.9-3.6-28.9
	c3.4-4.3,8.2-7.1,13.7-7.8c5.5-0.7,10.8,0.8,15.2,4.2c8.9,7,10.5,19.9,3.6,28.9c-3.4,4.3-8.2,7.1-13.7,7.8
	C30.5,49.6,29.6,49.7,28.8,49.7z M28.9,8.8c-0.8,0-1.7,0.1-2.5,0.2c-5.4,0.7-10.2,3.4-13.5,7.7C6,25.4,7.5,38.2,16.4,45.1
	c4.3,3.3,9.6,4.8,15,4.1c5.4-0.7,10.2-3.4,13.5-7.7c6.9-8.8,5.3-21.6-3.5-28.5C37.7,10.2,33.4,8.8,28.9,8.8z M28.8,52.2
	c-4.9,0-9.7-1.7-13.6-4.8C6,39.8,4.6,26.2,12.1,16.9c3.6-4.5,8.8-7.3,14.5-7.9c5.7-0.6,11.4,1.1,15.8,4.7
	c9.2,7.5,10.6,21.1,3.1,30.4l-0.1-0.1l0.1,0.1c-3.6,4.5-8.8,7.3-14.5,7.9C30.3,52.1,29.5,52.2,28.8,52.2z M28.9,9.3
	c-0.7,0-1.5,0-2.2,0.1C21,10,15.9,12.7,12.3,17.1c-7.4,9.1-6,22.6,3.1,30c4.4,3.6,10,5.2,15.6,4.7c5.7-0.6,10.8-3.3,14.3-7.8l0,0
	c7.4-9.1,6-22.6-3.1-30C38.4,10.9,33.8,9.3,28.9,9.3z M28.8,54.7c-5.3,0-10.4-1.9-14.6-5.3C4.7,41.3,3.5,27,11.6,17.5
	c3.9-4.6,9.4-7.4,15.4-7.9c6-0.5,11.9,1.4,16.5,5.3c9.5,8.1,10.7,22.4,2.7,31.9l0,0c-3.9,4.6-9.4,7.4-15.4,7.9
	C30.1,54.7,29.4,54.7,28.8,54.7z M28.9,9.7c-0.6,0-1.3,0-1.9,0.1c-5.9,0.5-11.3,3.3-15.2,7.8C3.8,27.1,5,41.2,14.4,49.1
	c4.6,3.9,10.3,5.7,16.3,5.2c5.9-0.5,11.3-3.3,15.2-7.8l0,0c7.9-9.4,6.8-23.5-2.6-31.5C39.2,11.6,34.1,9.7,28.9,9.7z M28.8,57.2
	c-5.7,0-11.2-2-15.5-5.9C3.5,42.8,2.5,27.8,11,18c4.2-4.8,9.9-7.6,16.2-8c6.3-0.4,12.4,1.6,17.1,5.8c9.8,8.6,10.8,23.6,2.2,33.4l0,0
	c-4.2,4.8-9.9,7.6-16.2,8C29.9,57.2,29.3,57.2,28.8,57.2z M28.9,10.2c-0.5,0-1.1,0-1.6,0.1c-6.2,0.4-11.9,3.2-16,7.9
	c-8.5,9.7-7.5,24.5,2.2,33c4.7,4.1,10.7,6.1,16.9,5.7c6.2-0.4,11.9-3.2,16-7.9c8.5-9.7,7.5-24.5-2.2-33
	C39.9,12.2,34.5,10.2,28.9,10.2z M28.8,59.8c-6.1,0-11.9-2.2-16.5-6.4C2.2,44.3,1.4,28.7,10.5,18.6c4.4-4.9,10.5-7.8,17-8.1
	c6.6-0.3,12.9,1.9,17.8,6.3c10.1,9.1,10.9,24.8,1.8,34.9l0,0c-4.4,4.9-10.5,7.8-17,8.1C29.7,59.8,29.2,59.8,28.8,59.8z M28.9,10.7
	c-0.4,0-0.8,0-1.3,0c-6.5,0.3-12.5,3.2-16.9,8c-9,10-8.2,25.4,1.8,34.5c4.8,4.4,11.1,6.6,17.6,6.3c6.5-0.3,12.5-3.2,16.9-8l0,0
	c9-10,8.2-25.4-1.8-34.5C40.7,12.9,34.9,10.7,28.9,10.7z M28.8,62.3c-6.5,0-12.7-2.4-17.5-6.9C1,45.8,0.4,29.5,10,19.1
	c4.7-5,11-7.9,17.9-8.2c6.9-0.3,13.4,2.2,18.4,6.9c10.4,9.7,11,26,1.3,36.4c-4.7,5-11,7.9-17.9,8.2C29.5,62.3,29.1,62.3,28.8,62.3z
	 M28.9,11.2c-0.3,0-0.6,0-1,0c-6.8,0.2-13.1,3.1-17.7,8.1c-9.5,10.3-8.9,26.4,1.3,35.9c5,4.6,11.4,7,18.2,6.8
	c6.8-0.2,13.1-3.1,17.7-8.1C57,43.6,56.4,27.5,46.1,18C41.4,13.6,35.3,11.2,28.9,11.2z M28.8,64.9c-6.9,0-13.4-2.6-18.4-7.4
	C-0.3,47.3-0.7,30.3,9.5,19.6c4.9-5.2,11.6-8.1,18.7-8.3c7.1-0.2,13.9,2.5,19.1,7.4C58,28.9,58.4,45.9,48.2,56.6
	c-4.9,5.2-11.6,8.1-18.7,8.3C29.2,64.9,29,64.9,28.8,64.9z M28.9,11.6c-0.2,0-0.4,0-0.6,0c-7.1,0.2-13.6,3.1-18.5,8.2
	C-0.4,30.4,0,47.2,10.6,57.3c5.1,4.9,11.8,7.5,18.9,7.3c7.1-0.2,13.6-3.1,18.5-8.2l0.1,0.1L48,56.4C58.1,45.8,57.7,29,47.1,19
	C42.1,14.2,35.7,11.6,28.9,11.6z M28.8,67.4c-7.3,0-14.2-2.8-19.4-7.9C-1.6,48.8-1.8,31.1,9,20.2c5.2-5.3,12.1-8.3,19.6-8.4
	c7.4-0.1,14.4,2.7,19.7,7.9c11,10.7,11.2,28.4,0.4,39.3c-5.2,5.3-12.1,8.3-19.6,8.4C29,67.4,28.9,67.4,28.8,67.4z M28.8,12.1
	c-0.1,0-0.2,0-0.3,0c-7.3,0.1-14.2,3-19.4,8.3C-1.4,31.2-1.2,48.7,9.6,59.3c5.2,5.1,12,7.8,19.2,7.8c0.1,0,0.2,0,0.3,0
	c7.3-0.1,14.2-3,19.4-8.3C59.1,48,58.9,30.5,48.1,19.9C42.9,14.9,36.1,12.1,28.8,12.1z M28.8,70c-7.7,0-15-3-20.4-8.5
	C-2.8,50.3-2.8,32,8.4,20.7c5.4-5.5,12.7-8.5,20.4-8.5c7.7,0,15,3,20.4,8.5c11.2,11.3,11.2,29.6,0,40.8l0,0C43.8,67,36.5,70,28.8,70
	z M28.8,12.5c-7.6,0-14.8,3-20.2,8.4c-11.1,11.1-11.1,29.3,0,40.4c5.4,5.4,12.6,8.4,20.2,8.4c7.6,0,14.8-3,20.2-8.4
	c11.1-11.1,11.1-29.3,0-40.4C43.6,15.5,36.5,12.5,28.8,12.5z"/>
</svg>
