<svg width="500" height="500" viewBox="0 0 500 500" fill="none" xmlns="http://www.w3.org/2000/svg">
<path d="M441 336.804C441 382.093 421.137 419.747 381.41 449.766C348.449 474.579 309.416 486.986 264.312 486.986C241.933 486.986 216.345 482.908 187.548 474.753C184.425 491.584 175.838 500 161.786 500C151.204 500 143.831 495.575 139.668 486.726C135.678 478.397 133.683 464.515 133.683 445.081C133.683 404.477 139.147 313.639 150.076 172.566L152.158 143.155C154.76 111.4 157.623 90.9249 160.745 81.7283C165.256 68.7142 173.756 62.2072 186.247 62.2072C202.033 62.2072 209.926 72.7052 209.926 93.7012C209.926 87.628 206.891 118.775 200.819 187.142C194.227 260.368 189.976 338.539 188.068 421.655C217.906 430.852 244.535 435.45 267.955 435.45C302.824 435.45 331.361 425.82 353.567 406.559C374.905 387.819 385.574 364.567 385.574 336.804C385.574 282.492 348.102 255.336 273.159 255.336C270.557 255.336 266.567 255.423 261.189 255.596C255.985 255.77 251.995 255.856 249.219 255.856C233.259 255.856 225.279 248.568 225.279 233.993C225.279 223.408 229.703 216.294 238.55 212.65C243.755 210.394 251.388 208.832 261.45 207.965C273.593 206.75 282.007 205.622 286.691 204.581C301.436 200.937 313.32 192.521 322.341 179.334C331.535 165.973 336.132 150.009 336.132 131.442C336.132 105.761 325.637 85.8928 304.646 71.8376C283.655 57.6089 253.643 50.4945 214.61 50.4945C187.895 50.4945 159.097 56.9148 128.218 69.7553C120.758 73.2257 113.212 76.6962 105.579 80.1666C96.7316 83.8105 89.0118 85.6325 82.4196 85.6325C75.654 85.6325 70.1026 83.4635 65.7657 79.1255C61.2552 74.7874 59 69.6686 59 63.7689C59 54.2252 67.5005 44.5081 84.5014 34.6174C124.054 11.5391 171.327 0 226.32 0C277.323 0 317.743 11.5391 347.582 34.6174C376.9 57.5221 391.559 88.0618 391.559 126.236C391.559 161.635 378.374 191.48 352.005 215.773C379.936 224.449 401.707 239.545 417.32 261.062C433.107 282.579 441 307.826 441 336.804Z" fill="#0C0426"/>
<mask id="mask0_14_345" style="mask-type:luminance" maskUnits="userSpaceOnUse" x="59" y="0" width="382" height="500">
<path d="M441 336.804C441 382.093 421.137 419.747 381.41 449.766C348.449 474.579 309.416 486.986 264.312 486.986C241.933 486.986 216.345 482.908 187.548 474.753C184.425 491.584 175.838 500 161.786 500C151.204 500 143.831 495.575 139.668 486.726C135.678 478.397 133.683 464.515 133.683 445.081C133.683 404.477 139.147 313.639 150.076 172.566L152.158 143.155C154.76 111.4 157.623 90.9249 160.745 81.7283C165.256 68.7142 173.756 62.2072 186.247 62.2072C202.033 62.2072 209.926 72.7052 209.926 93.7012C209.926 87.628 206.891 118.775 200.819 187.142C194.227 260.368 189.976 338.539 188.068 421.655C217.906 430.852 244.535 435.45 267.955 435.45C302.824 435.45 331.361 425.82 353.567 406.559C374.905 387.819 385.574 364.567 385.574 336.804C385.574 282.492 348.102 255.336 273.159 255.336C270.557 255.336 266.567 255.423 261.189 255.596C255.985 255.77 251.995 255.856 249.219 255.856C233.259 255.856 225.279 248.568 225.279 233.993C225.279 223.408 229.703 216.294 238.55 212.65C243.755 210.394 251.388 208.832 261.45 207.965C273.593 206.75 282.007 205.622 286.691 204.581C301.436 200.937 313.32 192.521 322.341 179.334C331.535 165.973 336.132 150.009 336.132 131.442C336.132 105.761 325.637 85.8928 304.646 71.8376C283.655 57.6089 253.643 50.4945 214.61 50.4945C187.895 50.4945 159.097 56.9148 128.218 69.7553C120.758 73.2257 113.212 76.6962 105.579 80.1666C96.7316 83.8105 89.0118 85.6325 82.4196 85.6325C75.654 85.6325 70.1026 83.4635 65.7657 79.1255C61.2552 74.7874 59 69.6686 59 63.7689C59 54.2252 67.5005 44.5081 84.5014 34.6174C124.054 11.5391 171.327 0 226.32 0C277.323 0 317.743 11.5391 347.582 34.6174C376.9 57.5221 391.559 88.0618 391.559 126.236C391.559 161.635 378.374 191.48 352.005 215.773C379.936 224.449 401.707 239.545 417.32 261.062C433.107 282.579 441 307.826 441 336.804Z" fill="white"/>
</mask>
<g mask="url(#mask0_14_345)">
<path d="M401 611C680.456 611 907 384.456 907 105C907 -174.456 680.456 -401 401 -401C121.544 -401 -105 -174.456 -105 105C-105 384.456 121.544 611 401 611Z" fill="url(#paint0_radial_14_345)"/>
</g>
<defs>
<radialGradient id="paint0_radial_14_345" cx="0" cy="0" r="1" gradientUnits="userSpaceOnUse" gradientTransform="translate(401 105) scale(506)">
<stop stop-color="#8900FE"/>
<stop offset="1" stop-color="#8900FE" stop-opacity="0"/>
</radialGradient>
</defs>
</svg>
