<?xml version="1.0" encoding="utf-8"?>
<!-- Generator: Adobe Illustrator 24.1.2, SVG Export Plug-In . SVG Version: 6.00 Build 0)  -->
<svg version="1.1" id="Layer_1" xmlns="http://www.w3.org/2000/svg" xmlns:xlink="http://www.w3.org/1999/xlink" x="0px" y="0px"
	 width="60px" height="60px" viewBox="0 0 60 60" style="enable-background:new 0 0 60 60;" xml:space="preserve">
<style type="text/css">
	.st0{opacity:0.19;enable-background:new    ;}
	.st1{fill:#00F0FF;}
</style>
<ellipse class="st0" cx="30.4" cy="56" rx="13.1" ry="4.1"/>
<path class="st1" d="M30.4,0.1C18.6,0.1,9.1,9.7,9.1,21.4c0,4.6,1.5,9.1,4.2,12.8c0,0,15.9,20.8,16.7,21.9c0.8-1,14.5-18,17.7-22.3
	l0,0l0,0c2.6-3.6,3.9-7.9,3.9-12.3C51.7,9.7,42.1,0.1,30.4,0.1z M30.4,32.9c-6.3,0-11.5-5.2-11.5-11.5S24.1,9.9,30.4,9.9
	s11.5,5.2,11.5,11.5S36.7,32.9,30.4,32.9z"/>
</svg>
