<?xml version="1.0" encoding="utf-8"?>
<!-- Generator: Adobe Illustrator 21.1.0, SVG Export Plug-In . SVG Version: 6.00 Build 0)  -->
<svg version="1.1" id="Слой_1" xmlns="http://www.w3.org/2000/svg" xmlns:xlink="http://www.w3.org/1999/xlink" x="0px" y="0px"
	 width="264px" height="88px" viewBox="0 0 264 88" style="enable-background:new 0 0 264 88;" xml:space="preserve">
<style type="text/css">
	.st0{fill:#FFFFFF;}
</style>
<title>default-skin 2</title>
<path d="M27.2,69.1c0.4,0.4,0.4,1,0,1.4l-0.7,0.7c-0.4,0.4-1,0.4-1.4,0L22,68.1l-3.1,3.1c-0.4,0.4-1,0.4-1.4,0l-0.7-0.7
	c-0.4-0.4-0.4-1,0-1.4l3.1-3.1l-3.1-3.1c-0.4-0.4-0.4-1,0-1.4l0.7-0.7c0.4-0.4,1-0.4,1.4,0l3.1,3.1l3.1-3.1c0.4-0.4,1-0.4,1.4,0
	l0.7,0.7c0.4,0.4,0.4,1,0,1.4L24.1,66L27.2,69.1z"/>
<path class="st0" d="M15.1,15.7c0-0.4,0.3-0.8,0.8-0.8h3.9c0.2,0,0.4,0.2,0.4,0.4v1.3c0,0.2-0.2,0.4-0.4,0.4h-2.6v2.6
	c0,0.2-0.2,0.4-0.4,0.4h-1.3c-0.2,0-0.4-0.2-0.4-0.4C15.1,19.6,15.1,15.7,15.1,15.7z M19.7,28.9h-3.9c-0.4,0-0.8-0.3-0.8-0.8v-3.9
	c0-0.2,0.2-0.4,0.4-0.4h1.3c0.2,0,0.4,0.2,0.4,0.4v2.6h2.6c0.2,0,0.4,0.2,0.4,0.4v1.3C20.1,28.8,19.9,28.9,19.7,28.9z M24.4,14.9
	h3.9c0.4,0,0.8,0.3,0.8,0.8v3.9c0,0.2-0.2,0.4-0.4,0.4h-1.3c-0.2,0-0.4-0.2-0.4-0.4V17h-2.6c-0.2,0-0.4-0.2-0.4-0.4v-1.3
	C24.1,15.1,24.2,14.9,24.4,14.9z M29.1,24.3v3.9c0,0.4-0.3,0.8-0.8,0.8h-3.9c-0.2,0-0.4-0.2-0.4-0.4v-1.3c0-0.2,0.2-0.4,0.4-0.4H27
	v-2.6c0-0.2,0.2-0.4,0.4-0.4h1.3C28.9,23.9,29.1,24.1,29.1,24.3z"/>
<path class="st0" d="M116.9,29.8c-0.3,0.3-0.8,0.3-1.1,0l-3.1-3.1c-0.1-0.1-0.2-0.3-0.2-0.5v-0.5c-1.1,0.9-2.5,1.4-4,1.4
	c-3.6,0-6.5-2.9-6.5-6.5s2.9-6.5,6.5-6.5s6.5,2.9,6.5,6.5c0,1.5-0.5,2.9-1.4,4h0.5c0.2,0,0.4,0.1,0.5,0.2l3.1,3.1
	c0.3,0.3,0.3,0.8,0,1.1L116.9,29.8z M108.5,16.2c-2.4,0-4.3,1.9-4.3,4.3s1.9,4.3,4.3,4.3s4.3-1.9,4.3-4.3S110.9,16.2,108.5,16.2z
	 M111.5,21c0,0.2-0.2,0.4-0.4,0.4h-1.8v1.8c0,0.2-0.2,0.4-0.4,0.4h-1c-0.2,0-0.4-0.2-0.4-0.4v-1.8h-1.8c-0.2,0-0.4-0.2-0.4-0.4v-1
	c0-0.2,0.2-0.4,0.4-0.4h1.8v-1.8c0-0.2,0.2-0.4,0.4-0.4h1c0.2,0,0.4,0.2,0.4,0.4v1.8h1.8c0.2,0,0.4,0.2,0.4,0.4V21z"/>
<path class="st0" d="M160.9,29.8c-0.3,0.3-0.8,0.3-1.1,0l-3.1-3.1c-0.1-0.1-0.2-0.3-0.2-0.5v-0.5c-1.1,0.9-2.5,1.4-4,1.4
	c-3.6,0-6.5-2.9-6.5-6.5s2.9-6.5,6.5-6.5s6.5,2.9,6.5,6.5c0,1.5-0.5,2.9-1.4,4h0.5c0.2,0,0.4,0.1,0.5,0.2l3.1,3.1
	c0.3,0.3,0.3,0.8,0,1.1L160.9,29.8z M152.5,16.2c-2.3,0-4.3,1.9-4.3,4.3s1.9,4.3,4.3,4.3s4.3-1.9,4.3-4.3S154.9,16.2,152.5,16.2z
	 M155.5,21c0,0.2-0.2,0.4-0.4,0.4h-5.3c-0.2,0-0.4-0.2-0.4-0.4v-1c0-0.2,0.2-0.4,0.4-0.4h5.3c0.2,0,0.4,0.2,0.4,0.4V21z"/>
<path class="st0" d="M63.2,20h-3.9c-0.2,0-0.4-0.2-0.4-0.4v-1.3c0-0.2,0.2-0.4,0.4-0.4h2.6v-2.6c0-0.2,0.2-0.4,0.4-0.4h1.3
	c0.2,0,0.4,0.2,0.4,0.4v3.9C64,19.7,63.7,20,63.2,20z M63.6,29h-1.3c-0.2,0-0.4-0.2-0.4-0.4V26h-2.6c-0.2,0-0.4-0.2-0.4-0.4v-1.3
	c0-0.2,0.2-0.4,0.4-0.4h3.9c0.4,0,0.8,0.3,0.8,0.8v3.9C64,28.8,63.8,29,63.6,29z M68.7,20c-0.4,0-0.8-0.3-0.8-0.8v-3.9
	c0-0.2,0.2-0.4,0.4-0.4h1.3c0.2,0,0.4,0.2,0.4,0.4v2.6h2.6c0.2,0,0.4,0.2,0.4,0.4v1.3c0,0.2-0.2,0.4-0.4,0.4H68.7z M69.6,29h-1.3
	c-0.2,0-0.4-0.2-0.4-0.4v-3.9c0-0.4,0.3-0.8,0.8-0.8h3.9c0.2,0,0.4,0.2,0.4,0.4v1.3c0,0.2-0.2,0.4-0.4,0.4H70v2.6
	C70,28.8,69.8,29,69.6,29z"/>
<path class="st0" d="M109.6,59.4c0.3-0.3,0.8-0.3,1.1,0l6.1,6.1c0.3,0.3,0.3,0.8,0,1.1l-6.1,6.1c-0.3,0.3-0.8,0.3-1.1,0l-0.7-0.7
	c-0.3-0.3-0.3-0.8,0-1.1l3.8-3.6h-9c-0.4,0-0.8-0.3-0.8-0.8v-1c0-0.4,0.3-0.8,0.8-0.8h9l-3.8-3.6c-0.3-0.3-0.3-0.8,0-1.1L109.6,59.4
	z"/>
<path class="st0" d="M154.4,72.6c-0.3,0.3-0.8,0.3-1.1,0l-6.1-6.1c-0.3-0.3-0.3-0.8,0-1.1l6.1-6.1c0.3-0.3,0.8-0.3,1.1,0l0.7,0.7
	c0.3,0.3,0.3,0.8,0,1.1l-3.8,3.6h9c0.4,0,0.8,0.3,0.8,0.8v1c0,0.4-0.3,0.8-0.8,0.8h-9l3.8,3.6c0.3,0.3,0.3,0.8,0,1.1L154.4,72.6z"/>
<path class="st0" d="M73,71c0,1.7-1.3,3-3,3s-3-1.3-3-3l0,0c0-0.2,0-0.5,0.1-0.7l-3.2-2C63.4,68.7,62.7,69,62,69c-1.7,0-3-1.3-3-3
	s1.3-3,3-3c0.7,0,1.4,0.2,1.9,0.7l3.2-2c0-0.2-0.1-0.4-0.1-0.7c0-1.7,1.3-3,3-3s3,1.3,3,3s-1.3,3-3,3c-0.7,0-1.4-0.2-1.9-0.7l-3.2,2
	c0,0.2,0.1,0.5,0.1,0.7s0,0.5-0.1,0.7l3.2,2c0.5-0.4,1.2-0.7,1.9-0.7C71.7,68,73,69.3,73,71z"/>
</svg>
