<?xml version="1.0" encoding="utf-8"?>
<!-- Generator: Adobe Illustrator 24.1.2, SVG Export Plug-In . SVG Version: 6.00 Build 0)  -->
<svg version="1.1" id="Layer_1" xmlns="http://www.w3.org/2000/svg" xmlns:xlink="http://www.w3.org/1999/xlink" x="0px" y="0px"
	 width="123px" height="15px" viewBox="0 0 123 15" style="enable-background:new 0 0 123 15;" xml:space="preserve">
<style type="text/css">
	.st0{fill:#FFFFFF;}
	.st1{fill:#00F0FF;}
</style>
<path class="st0" d="M14.9,12.8h-2V15H2.2v-2H0V2.2h2V0h10.8v2h2.1V12.8z M10.7,12.8V2.2H4.3v10.7H10.7z M32.9,12.8h-2V15H20.2v-2
	H18V2.2h2V0h10.8v2h2.1V12.8z M28.6,12.8V2.2h-6.4v10.7H28.6z M50.9,15h-4.2V8.6h-2.1v2.1h-2.2V8.6h-2.1V15H36V0h4.2v2h2.2v2.2h2
	V2.1h2.2V0h4.3V15z M68.9,8.5h-2v2.2h-8.6V15H54V0h12.8v2h2.1V8.5z M64.7,8.5V2.2h-6.4v6.4H64.7z M86.9,15h-4.2V8.6h-6.4V15H72V0
	h4.2v6.4h6.4V0h4.3V15z"/>
<path class="st1" d="M104.9,8.6h-2.1v2.1h-2.1v2.1h-2.2V15h-2.2v-2h-2.2v-2.2h-2.1V8.6H90V0h4.2v6.3h2.2v2.2h2V6.4h2.2V0h4.3V8.6z
	 M123,12.8h-2.1V15h-10.7v-2H108v-2.2h4.2v2h6.5V8.6h-6.5V6.5h2.1V4.2h2.2v-2h-6.4V0H123v2.1h-2.1v2.1h-2.2v2.1h2v2.2h2.3V12.8z"/>
</svg>
