<svg width="100" height="15" viewBox="0 0 100 15" fill="none" xmlns="http://www.w3.org/2000/svg">
<g clip-path="url(#clip0_14_396)">
<path d="M1.15535 15L0.861352 13.215L2.20535 12.9V2.52601L0.735352 2.37901V0.489014H6.55235C7.54635 0.489014 8.39335 0.657014 9.09335 0.993013C9.79335 1.32901 10.3254 1.78401 10.6894 2.35801C11.0674 2.93201 11.2564 3.57601 11.2564 4.29001C11.2564 4.93401 11.1234 5.49401 10.8574 5.97001C10.5914 6.43201 10.2694 6.79601 9.89135 7.06201C9.52735 7.32801 9.19835 7.49601 8.90435 7.56601C9.50635 7.72001 10.0244 7.94401 10.4584 8.23801C10.8924 8.53201 11.2284 8.91701 11.4664 9.39301C11.7184 9.85501 11.8444 10.415 11.8444 11.073C11.8444 12.389 11.4104 13.376 10.5424 14.034C9.68835 14.678 8.56835 15 7.18235 15H1.15535ZM4.95635 12.795H6.51035C6.95835 12.795 7.36435 12.739 7.72835 12.627C8.10635 12.501 8.40735 12.298 8.63135 12.018C8.85535 11.724 8.96735 11.325 8.96735 10.821C8.96735 10.121 8.72235 9.61001 8.23235 9.28801C7.75635 8.95201 7.07035 8.78401 6.17435 8.78401H4.95635V12.795ZM4.95635 6.57901H6.19535C6.68535 6.57901 7.09135 6.49501 7.41335 6.32701C7.73535 6.15901 7.97335 5.92801 8.12735 5.63401C8.29535 5.32601 8.37935 4.98301 8.37935 4.60501C8.37935 3.90501 8.12735 3.41501 7.62335 3.13501C7.13335 2.84101 6.55935 2.69401 5.90135 2.69401H4.95635V6.57901Z" fill="white"/>
<path d="M14.1481 15L13.8751 13.362L15.0301 12.984L19.1881 0.489014H21.7921L26.0131 12.984L26.9791 13.362L26.7691 15H21.3091V13.425L22.9891 12.984L22.2331 10.422H18.1171L17.3191 13.068L19.1671 13.404V15H14.1481ZM18.7681 8.21701H21.3091L20.1961 3.47101L18.7681 8.21701Z" fill="white"/>
<path d="M29.4801 15L29.2911 13.215L30.7401 12.921V2.54701L29.3121 2.40001V0.489014H34.4571C35.8291 0.489014 36.9631 0.692014 37.8591 1.09801C38.7551 1.50401 39.4201 2.06401 39.8541 2.77801C40.2881 3.47801 40.5051 4.29001 40.5051 5.21401C40.5051 6.23601 40.2461 7.10401 39.7281 7.81801C39.2101 8.51801 38.4961 9.05701 37.5861 9.43501L39.4341 12.963L40.7571 13.173V15H37.2081L35.0241 10.065C34.7861 10.079 34.5341 10.093 34.2681 10.107C34.0161 10.121 33.7571 10.128 33.4911 10.128V13.005L34.5831 13.173V15H29.4801ZM33.4911 7.90201H34.1841C35.0101 7.90201 35.6751 7.79001 36.1791 7.56601C36.6971 7.32801 37.0751 7.01301 37.3131 6.62101C37.5511 6.21501 37.6701 5.76701 37.6701 5.27701C37.6701 4.74501 37.5511 4.29001 37.3131 3.91201C37.0891 3.53401 36.6901 3.24701 36.1161 3.05101C35.5561 2.84101 34.7651 2.72901 33.7431 2.71501H33.4911V7.90201Z" fill="white"/>
<path d="M43.8085 15L43.6195 13.215L45.0685 12.921V2.54701L43.6405 2.40001V0.489014H48.7855C50.1575 0.489014 51.2915 0.692014 52.1875 1.09801C53.0835 1.50401 53.7485 2.06401 54.1825 2.77801C54.6165 3.47801 54.8335 4.29001 54.8335 5.21401C54.8335 6.23601 54.5745 7.10401 54.0565 7.81801C53.5385 8.51801 52.8245 9.05701 51.9145 9.43501L53.7625 12.963L55.0855 13.173V15H51.5365L49.3525 10.065C49.1145 10.079 48.8625 10.093 48.5965 10.107C48.3445 10.121 48.0855 10.128 47.8195 10.128V13.005L48.9115 13.173V15H43.8085ZM47.8195 7.90201H48.5125C49.3385 7.90201 50.0035 7.79001 50.5075 7.56601C51.0255 7.32801 51.4035 7.01301 51.6415 6.62101C51.8795 6.21501 51.9985 5.76701 51.9985 5.27701C51.9985 4.74501 51.8795 4.29001 51.6415 3.91201C51.4175 3.53401 51.0185 3.24701 50.4445 3.05101C49.8845 2.84101 49.0935 2.72901 48.0715 2.71501H47.8195V7.90201Z" fill="white"/>
<path d="M59.6518 15L59.4418 13.467L61.8358 12.984V9.70801L57.8248 2.56801L56.9848 2.35801V0.489014H62.1088L62.4238 2.14801L60.9328 2.44201L63.5368 6.97801L65.8888 2.37901L64.6078 2.14801V0.489014H69.2488V2.33701L68.3248 2.56801L64.5868 9.72901V12.984L67.0018 13.467L66.8128 15H59.6518Z" fill="white"/>
<path d="M74.1133 15L73.8193 13.152L75.1843 12.879V2.50501L73.8613 2.35801V0.489014H83.4373L83.8363 4.79401H82.2403L81.3373 2.69401H77.9353V6.43201H81.1273V8.63701H77.9353V12.795L81.5053 13.341L81.3583 15H74.1133Z" fill="#00F0FF"/>
<path d="M85.2614 15L84.9884 13.362L86.1434 12.984L90.3014 0.489014H92.9054L97.1264 12.984L98.0924 13.362L97.8824 15H92.4224V13.425L94.1024 12.984L93.3464 10.422H89.2304L88.4324 13.068L90.2804 13.404V15H85.2614ZM89.8814 8.21701H92.4224L91.3094 3.47101L89.8814 8.21701Z" fill="#00F0FF"/>
</g>
<defs>
<clipPath id="clip0_14_396">
<rect width="100" height="15" fill="white"/>
</clipPath>
</defs>
</svg>
